<svg version="1.1" id="Layer_1" xmlns="http://www.w3.org/2000/svg" xmlns:xlink="http://www.w3.org/1999/xlink" x="0px" y="0px"
	 width="100%" viewBox="0 0 2000 2000" enable-background="new 0 0 2000 2000" xml:space="preserve">
<path fill="#1D1D1B" opacity="1.000000" stroke="none" 
	d="
M2001.000000,993.000000 
	C2001.000000,998.022095 2001.000000,1003.044189 2000.642334,1008.646118 
	C2000.017700,1010.154236 1999.813477,1011.106262 1999.473999,1012.007324 
	C1995.936157,1021.394592 1987.854614,1026.121338 1979.933228,1031.005127 
	C1957.831421,1044.631226 1935.867188,1058.489136 1913.544678,1071.743774 
	C1906.079956,1076.176147 1899.884399,1080.417847 1901.935791,1090.378540 
	C1902.074463,1091.051270 1901.124390,1091.908936 1901.177124,1092.645142 
	C1901.417114,1095.999634 1900.548828,1100.641968 1902.400635,1102.472656 
	C1912.935059,1112.887085 1924.236694,1122.519165 1935.080933,1132.627930 
	C1948.280151,1144.932373 1961.476196,1157.251465 1974.323608,1169.918945 
	C1989.420654,1184.804810 1983.769043,1210.202759 1964.906128,1217.502686 
	C1935.393677,1228.923584 1905.716675,1239.922729 1876.023560,1250.867798 
	C1872.251587,1252.258423 1869.665405,1253.632324 1868.855225,1257.972290 
	C1868.095581,1262.040771 1866.151367,1265.873535 1865.101318,1269.907104 
	C1864.307617,1272.956055 1864.504028,1275.623657 1866.866455,1278.632935 
	C1873.650757,1287.274414 1879.666626,1296.515259 1886.101318,1305.436279 
	C1897.668823,1321.473511 1909.098389,1337.617676 1921.009155,1353.397461 
	C1930.499268,1365.970215 1929.670044,1382.610840 1919.351074,1393.242432 
	C1912.759766,1400.033203 1904.273926,1401.628052 1895.599731,1402.987305 
	C1882.282715,1405.074463 1868.942627,1407.015015 1855.632812,1409.146240 
	C1841.862793,1411.351196 1828.068848,1413.464600 1814.391968,1416.158447 
	C1810.553955,1416.914551 1805.567261,1415.437866 1803.007812,1420.079590 
	C1800.280029,1425.026733 1797.554199,1429.981689 1795.080322,1435.056641 
	C1794.489746,1436.268311 1794.404663,1438.185669 1794.934448,1439.412354 
	C1799.590332,1450.193115 1804.360596,1460.926392 1809.246338,1471.605347 
	C1817.217285,1489.027222 1825.436157,1506.337036 1833.248291,1523.828979 
	C1835.386108,1528.616089 1837.333374,1533.798096 1837.835449,1538.948364 
	C1839.415771,1555.159058 1825.520142,1570.585083 1808.296509,1569.977173 
	C1803.036377,1569.791504 1797.789551,1569.244263 1792.530029,1569.019531 
	C1783.111572,1568.616821 1773.689697,1568.273560 1764.266235,1568.014404 
	C1750.179932,1567.626831 1736.089600,1567.384033 1722.004272,1566.968262 
	C1717.929810,1566.847900 1713.869751,1566.196777 1709.796265,1566.109375 
	C1708.565796,1566.083008 1706.931274,1566.810791 1706.134888,1567.748169 
	C1702.553223,1571.963257 1699.534180,1576.705811 1695.646484,1580.592407 
	C1693.469238,1582.769043 1693.737183,1584.771362 1694.081543,1587.018188 
	C1694.542725,1590.028442 1695.334351,1592.990479 1696.034790,1595.961182 
	C1702.769043,1624.519165 1709.558716,1653.064209 1716.240112,1681.634521 
	C1720.877441,1701.463989 1704.880615,1720.094360 1683.234497,1716.767822 
	C1669.576294,1714.668823 1656.231323,1710.539307 1642.740601,1707.342773 
	C1623.927002,1702.885254 1605.113037,1698.428589 1586.281494,1694.048218 
	C1585.041260,1693.759766 1583.264160,1693.608643 1582.392090,1694.264648 
	C1577.187622,1698.179443 1572.131348,1702.297241 1567.149170,1706.494141 
	C1566.427246,1707.102173 1566.009644,1708.519897 1566.062622,1709.530884 
	C1566.638062,1720.525269 1567.426758,1731.508911 1567.972290,1742.504517 
	C1568.439575,1751.919312 1568.712524,1761.344604 1568.988525,1770.767700 
	C1569.366821,1783.687500 1570.029663,1796.615723 1569.806152,1809.527344 
	C1569.726196,1814.149780 1568.350342,1819.293701 1565.968384,1823.233887 
	C1557.734863,1836.854736 1542.906860,1841.944824 1527.159058,1834.670654 
	C1498.377808,1821.375610 1469.486694,1808.317261 1440.566040,1795.328003 
	C1438.831665,1794.549072 1436.143433,1794.599487 1434.401245,1795.382080 
	C1429.704468,1797.492310 1425.196533,1800.071533 1420.792236,1802.757568 
	C1419.279419,1803.680054 1417.484131,1805.322388 1417.200684,1806.886475 
	C1415.261353,1817.584961 1413.725952,1828.355835 1411.989380,1839.091919 
	C1410.461670,1848.536255 1408.825928,1857.963257 1407.266479,1867.402588 
	C1405.494385,1878.127930 1403.048950,1888.800293 1402.154785,1899.599854 
	C1400.552002,1918.958862 1382.457886,1932.997925 1363.071777,1925.793701 
	C1356.294922,1923.275269 1350.365723,1918.264771 1344.334717,1913.989746 
	C1325.578857,1900.694458 1306.823853,1887.389893 1288.333252,1873.730591 
	C1275.096191,1863.952393 1275.267212,1863.631958 1259.525391,1868.231934 
	C1256.130981,1869.223755 1252.716797,1870.195801 1251.192749,1874.342285 
	C1240.221558,1904.190796 1229.104980,1933.985962 1217.975586,1963.775879 
	C1210.588379,1983.548706 1185.246582,1989.724121 1170.136597,1974.461792 
	C1156.196655,1960.381226 1143.085815,1945.482300 1129.513306,1931.034546 
	C1121.340698,1922.334839 1112.539673,1914.177490 1104.924316,1905.024902 
	C1101.810425,1901.282227 1098.817993,1900.774048 1094.878784,1901.018677 
	C1090.787476,1901.272583 1086.637573,1901.338623 1082.647217,1902.147461 
	C1080.572754,1902.567993 1078.231445,1904.003662 1076.981445,1905.697388 
	C1073.926880,1909.835938 1071.439941,1914.393066 1068.720093,1918.778931 
	C1057.157837,1937.424194 1045.470581,1955.993530 1034.078125,1974.741943 
	C1027.612061,1985.383301 1021.871643,1996.549316 1009.000000,2001.000000 
	C1002.645569,2001.000000 996.291199,2001.000000 989.466125,2000.631348 
	C986.681763,1998.364502 983.879822,1996.830078 982.144226,1994.500977 
	C976.543823,1986.985229 971.050110,1979.358032 966.033691,1971.445068 
	C954.201599,1952.780884 942.500916,1934.028320 931.097473,1915.100342 
	C926.484985,1907.444336 922.713013,1899.376831 911.450989,1901.924683 
	C910.801147,1902.071777 909.946045,1901.071167 909.205383,1901.099487 
	C906.165710,1901.215454 901.966125,1900.325073 900.290710,1901.957642 
	C890.583008,1911.416626 881.502319,1921.516724 872.142578,1931.336182 
	C867.860107,1935.828979 863.290466,1940.052490 859.086548,1944.615112 
	C849.940430,1954.542236 841.357971,1965.024048 831.793701,1974.522461 
	C816.780273,1989.432617 791.748291,1983.967896 784.130920,1964.144287 
	C772.726013,1934.463867 761.983215,1904.528931 750.927368,1874.713867 
	C749.908813,1871.966919 748.342896,1869.796875 745.157410,1868.982300 
	C740.803467,1867.868896 736.591736,1866.195190 732.233032,1865.105835 
	C729.193909,1864.346313 726.446960,1864.308594 723.468079,1866.780884 
	C717.257263,1871.935303 710.382996,1876.286133 703.823547,1881.025391 
	C687.667786,1892.698242 671.674316,1904.602295 655.328247,1916.001221 
	C648.573975,1920.711304 642.472839,1926.387939 633.224854,1927.269775 
	C621.030457,1928.432739 609.460327,1923.157959 603.711548,1912.364380 
	C598.653198,1902.867310 599.177673,1892.268311 597.122742,1882.198975 
	C594.852173,1871.072998 593.601990,1859.741821 591.779419,1848.520752 
	C589.934204,1837.160156 588.095703,1825.793213 585.910522,1814.495728 
	C585.150085,1810.564209 584.437744,1805.609741 581.798401,1803.286987 
	C577.566895,1799.562500 571.789307,1797.557129 566.567810,1795.026123 
	C565.476379,1794.497070 563.747559,1794.366333 562.674011,1794.851562 
	C538.767578,1805.658325 514.958740,1816.681763 491.020203,1827.416138 
	C482.986176,1831.018677 474.796295,1834.413574 466.412262,1837.063965 
	C452.737915,1841.386597 438.152039,1830.861084 434.029572,1819.302246 
	C431.152344,1811.234741 431.883392,1803.019897 432.805359,1794.614990 
	C433.884766,1784.774292 433.722290,1774.791992 433.985016,1764.868164 
	C434.375610,1750.114380 434.620483,1735.356812 435.033203,1720.603882 
	C435.133240,1717.028809 435.809326,1713.468628 435.883209,1709.894775 
	C435.909271,1708.636475 435.274902,1706.947021 434.345032,1706.157959 
	C430.130066,1702.582031 425.364899,1699.594971 421.477173,1695.715088 
	C419.160065,1693.402832 416.983490,1693.752563 414.580597,1694.113403 
	C411.733734,1694.540771 408.946014,1695.365112 406.134888,1696.026855 
	C377.570282,1702.750000 348.976166,1709.351196 320.452942,1716.245728 
	C302.868561,1720.496216 284.554779,1707.362183 285.238312,1688.799316 
	C285.585815,1679.361084 288.039642,1669.926270 290.199585,1660.643066 
	C296.217773,1634.777222 302.579956,1608.991455 308.731323,1583.485229 
	C304.317291,1578.129517 300.210480,1573.034302 295.948303,1568.072510 
	C295.126495,1567.115845 293.667114,1566.052612 292.551300,1566.104248 
	C281.720123,1566.606323 270.904205,1567.429810 260.074371,1567.971191 
	C250.659317,1568.441772 241.233246,1568.710571 231.809708,1568.989014 
	C219.055786,1569.365845 206.301071,1569.742676 193.544113,1569.982788 
	C172.571960,1570.377319 157.694717,1548.732788 166.629776,1528.855957 
	C179.692245,1499.797363 192.784500,1470.750854 206.161743,1441.836914 
	C207.735153,1438.436279 207.884109,1436.019287 206.041565,1432.966553 
	C203.709732,1429.103149 201.949860,1424.877197 199.439896,1421.146240 
	C198.239746,1419.362183 196.029099,1417.488037 194.020325,1417.142578 
	C180.737045,1414.858887 167.368912,1413.075195 154.057831,1410.944702 
	C135.960678,1408.048340 117.875420,1405.071533 99.811279,1401.976196 
	C77.216965,1398.104492 67.453781,1374.278809 79.187790,1356.441284 
	C86.119843,1345.903442 93.734970,1335.813232 101.093689,1325.558228 
	C112.334732,1309.892944 123.431526,1294.117310 135.039581,1278.728027 
	C137.455490,1275.525391 137.737259,1272.840454 136.831329,1269.562744 
	C135.676178,1265.383545 134.066345,1261.322754 133.046265,1257.115601 
	C132.277237,1253.944092 130.294235,1252.249146 127.525452,1251.208618 
	C98.053963,1240.132935 68.737091,1228.612671 39.022549,1218.231079 
	C24.153454,1213.036377 12.854396,1193.651611 22.722799,1177.182373 
	C26.974949,1170.085815 33.911312,1164.509033 39.988701,1158.613525 
	C52.343056,1146.628662 64.895226,1134.845947 77.458977,1123.079346 
	C84.794174,1116.209595 92.346977,1109.572266 99.690628,1102.711304 
	C100.502289,1101.953003 100.972382,1100.395752 100.929703,1099.233765 
	C100.773247,1094.974121 100.015457,1090.719849 100.083351,1086.473145 
	C100.161827,1081.564209 99.198196,1077.663452 94.178024,1075.557861 
	C92.125122,1074.696899 90.367157,1073.145386 88.446892,1071.953369 
	C70.763977,1060.976685 52.984783,1050.151733 35.423378,1038.984253 
	C25.888605,1032.920898 16.549330,1026.510498 7.490918,1019.761292 
	C4.700442,1017.682190 3.129420,1013.966370 1.000008,1011.000000 
	C1.000000,1004.645569 1.000000,998.291199 1.346398,991.380676 
	C4.818221,986.687378 7.522034,982.116455 11.196965,978.544678 
	C14.374687,975.456116 18.618183,973.442444 22.454901,971.057129 
	C43.959877,957.687012 65.424164,944.249634 87.035347,931.053040 
	C94.435249,926.534424 102.527557,922.873901 100.057014,911.799744 
	C99.905945,911.122559 100.768997,910.264282 100.739052,909.506958 
	C100.614052,906.346252 101.587952,901.926453 99.895653,900.241455 
	C89.264366,889.656250 77.956192,879.755249 67.007408,869.483398 
	C53.724987,857.022278 40.237198,844.752869 27.457928,831.789673 
	C12.186292,816.298218 18.593676,791.552124 37.882423,784.132629 
	C67.558784,772.717346 97.493988,761.975403 127.306641,750.913452 
	C130.049133,749.895874 132.218246,748.335632 133.023346,745.133911 
	C134.119064,740.776550 135.960678,736.588379 136.823547,732.198181 
	C137.291550,729.816833 137.235733,726.592773 135.969421,724.735107 
	C129.579971,715.361694 122.682549,706.335876 116.023766,697.144348 
	C105.951828,683.241455 95.716583,669.449280 85.979179,655.314880 
	C81.305153,648.530273 75.612366,642.450745 74.724968,633.202332 
	C73.558632,621.046875 78.474602,608.628540 89.776802,603.980347 
	C97.260452,600.902466 105.540009,599.559631 113.581795,598.087585 
	C124.762421,596.041016 136.070663,594.702759 147.293869,592.874634 
	C160.732513,590.685608 174.189056,588.546387 187.528305,585.844666 
	C191.385056,585.063599 196.410782,586.573120 198.964706,581.988525 
	C201.788696,576.919189 204.448120,571.752075 206.977417,566.529785 
	C207.503265,565.444092 207.596985,563.733704 207.123688,562.643860 
	C202.446014,551.872498 197.681595,541.137085 192.796387,530.457947 
	C184.825882,513.034363 176.614655,495.719513 168.799835,478.227051 
	C166.659943,473.437256 164.676270,468.266693 164.164764,463.117523 
	C162.501877,446.378265 177.141876,431.445160 193.642014,432.022583 
	C199.068909,432.212494 204.483200,432.742035 209.909180,432.982971 
	C218.828217,433.378998 227.750031,433.742310 236.674362,433.982269 
	C251.427704,434.378937 266.185333,434.619080 280.938110,435.033020 
	C284.679596,435.137970 288.406372,435.808289 292.146851,435.886353 
	C293.394043,435.912354 295.017029,435.224274 295.856720,434.304443 
	C298.601349,431.297821 300.942078,427.924042 303.666168,424.896637 
	C307.113007,421.065948 309.498993,417.187622 307.065582,411.792938 
	C306.291748,410.077362 306.402191,407.981903 305.958832,406.095367 
	C299.245453,377.529816 292.605927,348.946320 285.738312,320.417816 
	C281.524628,302.913818 294.535919,284.754425 313.245758,285.189819 
	C320.423004,285.356842 327.602417,287.435120 334.691254,289.038513 
	C360.801178,294.944244 386.902588,300.895477 412.927521,307.160461 
	C416.650024,308.056580 419.307556,308.735413 422.227051,305.479126 
	C424.572021,302.863617 427.793762,301.032471 430.633942,298.863129 
	C434.138336,296.186432 435.953552,293.691101 435.336029,288.263550 
	C433.936523,275.963074 434.316132,263.458618 434.004608,251.036316 
	C433.651245,236.948425 433.333038,222.859665 433.000122,208.771255 
	C432.988312,208.271500 432.974792,207.771606 432.975281,207.271790 
	C432.982635,200.112656 431.779297,192.693939 433.244690,185.846466 
	C436.677002,169.807755 454.731110,158.849762 471.193573,165.917801 
	C501.061249,178.741226 530.547913,192.462631 560.027954,206.165665 
	C563.892822,207.962158 566.619629,207.543686 569.790710,205.659790 
	C571.870300,204.424301 573.828552,202.772339 576.079102,202.076157 
	C583.168884,199.882996 585.221313,194.649429 586.084595,187.940369 
	C587.804993,174.570709 589.896423,161.244370 592.070740,147.938721 
	C594.580078,132.582977 597.671021,117.316010 599.892334,101.921471 
	C601.611328,90.008453 606.976196,80.948868 618.215759,76.441940 
	C629.280518,72.005104 639.703918,74.076950 649.095154,81.537605 
	C653.278198,84.860710 657.707397,87.875374 662.045532,91.001396 
	C679.260315,103.406273 696.620117,115.615318 713.659058,128.257034 
	C726.877563,138.064285 726.720703,138.369186 742.463623,133.771225 
	C745.851318,132.781784 749.271301,131.816040 750.803040,127.668068 
	C761.764832,97.983650 773.193420,68.468697 783.885132,38.688576 
	C790.713196,19.669992 816.172302,11.568066 832.258728,27.859182 
	C840.838135,36.547733 848.862488,45.782116 857.218323,54.694202 
	C868.536011,66.765327 880.019043,78.682426 891.258545,90.825310 
	C897.441772,97.505486 903.089966,102.595039 914.000000,100.575829 
	C921.178223,99.247299 925.554932,97.233330 928.477661,91.061752 
	C928.957275,90.049217 929.699463,89.163300 930.293884,88.202507 
	C942.854858,67.899437 955.467224,47.627846 967.947205,27.275059 
	C974.432251,16.699091 980.028015,5.356004 993.000000,1.000000 
	C998.022095,1.000000 1003.044189,1.000000 1008.645996,1.357707 
	C1016.649963,3.488452 1022.082214,8.119972 1025.983521,14.352413 
	C1041.387695,38.961212 1056.816650,63.560291 1071.743042,88.458717 
	C1076.205933,95.903160 1080.427368,102.138275 1090.370728,100.014061 
	C1090.528564,99.980339 1090.719360,99.979530 1090.866699,100.036278 
	C1097.043701,102.414528 1101.595459,101.010139 1106.095215,95.686722 
	C1114.724121,85.478081 1124.147461,75.936516 1133.321655,66.194061 
	C1145.464722,53.298923 1157.431763,40.223881 1169.937134,27.687645 
	C1185.162354,12.424711 1209.980957,18.223869 1217.458130,37.133507 
	C1229.093628,66.559395 1239.929077,96.303925 1250.867676,126.000298 
	C1252.261963,129.785614 1253.704834,132.314346 1257.996338,133.141541 
	C1262.063477,133.925476 1265.897461,135.849747 1269.930908,136.900162 
	C1272.982056,137.694748 1275.688110,137.574173 1278.653198,135.111969 
	C1284.855469,129.961472 1291.773438,125.679352 1298.334961,120.953796 
	C1313.063354,110.346619 1327.579834,99.433655 1342.528442,89.147987 
	C1350.758423,83.485214 1357.738281,75.870445 1368.933228,74.728691 
	C1380.655396,73.533157 1393.325317,78.487915 1397.835571,89.477921 
	C1400.907227,96.962181 1402.456177,105.173576 1403.898071,113.201347 
	C1406.280884,126.466980 1407.942749,139.860397 1410.067627,153.174576 
	C1411.932373,164.859665 1413.842041,176.543701 1416.103394,188.155884 
	C1416.831177,191.892517 1417.762939,196.522644 1420.330566,198.755417 
	C1424.486572,202.369492 1430.018188,204.450851 1435.093750,206.922775 
	C1436.300049,207.510223 1438.213501,207.573090 1439.441284,207.042786 
	C1450.222168,202.386017 1460.957397,197.618835 1471.636597,192.732574 
	C1489.058105,184.761475 1506.365845,176.538788 1523.858643,168.729004 
	C1528.647461,166.590958 1533.838989,164.663574 1538.993652,164.162674 
	C1555.683838,162.540817 1570.612061,177.225433 1569.979370,193.752396 
	C1569.778076,199.012543 1569.250000,204.259659 1569.018555,209.519226 
	C1568.618530,218.604553 1568.267822,227.693115 1568.015503,236.783615 
	C1567.624512,250.869995 1567.385986,264.960724 1566.968994,279.046234 
	C1566.838623,283.453674 1566.115723,287.851349 1566.136230,292.251251 
	C1566.143433,293.777161 1567.220215,295.718842 1568.426636,296.741058 
	C1572.381836,300.092438 1576.964233,302.761963 1580.621948,306.383911 
	C1582.806763,308.547424 1584.789185,308.302307 1587.060913,307.925171 
	C1590.067383,307.426147 1593.034058,306.670319 1596.002808,305.962250 
	C1624.691284,299.120209 1653.363403,292.208771 1682.070312,285.444489 
	C1691.933960,283.120300 1705.071289,287.615540 1711.400024,296.614410 
	C1717.495239,305.281372 1718.136475,314.472626 1715.891724,324.062958 
	C1709.536865,351.212097 1702.642334,378.235809 1696.408081,405.411591 
	C1694.957764,411.733521 1690.593506,418.876373 1698.136719,424.722443 
	C1699.502441,425.780884 1700.165894,427.711273 1701.467896,428.892609 
	C1704.971191,432.070770 1706.725708,436.617645 1713.855225,435.404907 
	C1724.848755,433.534882 1736.297363,434.372772 1747.550415,433.986267 
	C1755.141235,433.725616 1762.724976,433.248169 1770.316528,433.020874 
	C1783.735840,432.619049 1797.163330,432.000580 1810.577148,432.193848 
	C1814.857910,432.255524 1819.590942,433.801758 1823.281738,436.043762 
	C1836.694946,444.191864 1841.973022,459.020935 1834.652466,474.887390 
	C1821.507324,503.378357 1808.788208,532.065857 1795.677002,560.572815 
	C1794.293823,563.580139 1793.980835,565.664368 1795.818726,568.535767 
	C1798.506836,572.735413 1800.523560,577.359070 1803.023926,581.687866 
	C1803.772217,582.983032 1805.032593,584.586426 1806.313110,584.861328 
	C1810.910400,585.848511 1815.620972,586.300171 1820.281250,587.003845 
	C1833.611816,589.016785 1846.953369,590.962646 1860.262939,593.107239 
	C1873.866455,595.299255 1887.390137,598.037170 1901.033691,599.920288 
	C1920.306763,602.580383 1932.869751,620.829407 1925.809326,638.874573 
	C1922.989990,646.080200 1918.004639,652.541016 1913.449219,658.945374 
	C1900.395630,677.296936 1887.227905,695.573059 1873.774780,713.632690 
	C1863.940063,726.834839 1863.628296,726.684204 1868.217896,742.424866 
	C1869.198486,745.787659 1870.116943,749.244446 1874.294312,750.786621 
	C1903.979370,761.745544 1933.480591,773.211975 1963.270996,783.872620 
	C1982.287964,790.677917 1990.440308,816.149963 1974.172607,832.225952 
	C1965.013672,841.276794 1955.288696,849.752197 1945.922974,858.597412 
	C1932.198364,871.558960 1918.768433,884.842712 1904.750000,897.475403 
	C1901.407227,900.487671 1900.689453,903.299622 1901.001099,907.120422 
	C1901.334351,911.206970 1901.338501,915.360962 1902.147217,919.351624 
	C1902.567627,921.426208 1904.002930,923.767883 1905.696533,925.017944 
	C1909.835083,928.072632 1914.392334,930.559509 1918.778320,933.279419 
	C1937.423462,944.842102 1956.029541,956.468201 1974.726685,967.946045 
	C1985.299072,974.436035 1996.644287,980.028198 2001.000000,993.000000 
M1586.462158,1193.000977 
	C1608.401611,1186.137939 1624.702759,1172.481567 1634.554810,1151.749268 
	C1641.367065,1137.413574 1644.315308,1121.893921 1644.882568,1106.116455 
	C1645.427002,1090.970581 1644.697021,1075.781372 1645.106323,1060.626953 
	C1645.379883,1050.499268 1650.217529,1048.781128 1656.569946,1048.871460 
	C1679.563599,1049.198120 1702.564697,1049.000000 1725.562988,1049.000000 
	C1727.324219,1049.000000 1729.085449,1049.000000 1730.929810,1049.000000 
	C1731.639771,1034.039673 1732.750122,1019.712341 1732.886475,1005.375732 
	C1733.042358,988.959595 1732.497314,972.529724 1731.938477,956.116577 
	C1731.603027,946.263184 1730.736450,936.424194 1729.936401,926.592773 
	C1729.729248,924.047180 1728.630615,922.064514 1725.786865,920.885193 
	C1716.723877,917.126282 1707.825195,912.971558 1698.855957,908.985901 
	C1677.834473,899.644714 1656.821533,890.284058 1635.779297,880.989746 
	C1625.784546,876.575134 1615.636719,872.496887 1605.727905,867.900574 
	C1593.709351,862.325562 1581.242310,857.469849 1573.192993,845.789001 
	C1561.935669,829.452759 1558.316284,811.959045 1565.484863,793.276733 
	C1570.893921,779.180237 1577.598145,765.582275 1583.676880,751.740845 
	C1593.504517,729.363098 1603.224121,706.937622 1613.119019,684.589722 
	C1620.218994,668.553955 1627.637451,652.658264 1634.624390,636.574341 
	C1635.592163,634.346619 1635.885376,630.845520 1634.794312,628.871704 
	C1629.803223,619.842590 1624.380981,611.036255 1618.797363,602.353333 
	C1601.932739,576.128418 1584.085205,550.608826 1563.554688,527.071716 
	C1551.574707,513.337341 1539.822998,499.384827 1527.385010,486.075836 
	C1517.994141,476.027252 1507.809448,466.702515 1497.734985,457.316376 
	C1488.714600,448.912201 1479.700684,440.440369 1470.077515,432.757812 
	C1455.235962,420.909088 1439.946167,409.615784 1424.721191,398.254852 
	C1401.508179,380.933258 1376.929443,365.648804 1351.321899,352.251465 
	C1327.502441,339.789642 1303.338257,327.748505 1278.491699,317.555328 
	C1253.713623,307.390228 1228.122314,299.015808 1202.468750,291.237366 
	C1182.150513,285.076599 1161.213257,280.943726 1140.504150,276.110321 
	C1138.655762,275.678925 1135.924683,276.060242 1134.528564,277.198517 
	C1129.675537,281.155548 1125.185059,285.565186 1120.637817,289.887817 
	C1106.230225,303.583588 1091.811768,317.268463 1077.488403,331.052094 
	C1064.924194,343.142883 1052.570557,355.453125 1039.959351,367.494080 
	C1029.893066,377.105133 1019.201599,385.329407 1004.536560,387.290833 
	C987.870972,389.519714 973.010559,386.079285 960.640747,374.888062 
	C951.315186,366.451050 943.038757,356.855469 934.283997,347.786499 
	C924.603638,337.758698 914.913391,327.740509 905.221863,317.723511 
	C895.066895,307.227539 884.896484,296.746429 874.764282,286.228455 
	C873.993530,285.428314 873.633545,284.202240 872.810364,283.487885 
	C869.004028,280.184753 866.779846,274.267700 859.919067,276.011993 
	C835.729919,282.161865 811.298767,287.471619 787.362732,294.478058 
	C755.255493,303.876312 724.030579,315.999695 693.756958,330.216888 
	C673.763000,339.606506 654.383179,350.360962 635.043701,361.073486 
	C606.559875,376.851257 579.453064,394.819885 554.222107,415.418182 
	C534.065674,431.873657 514.082092,448.587616 494.779266,466.025330 
	C482.117004,477.464142 470.797638,490.390442 458.909607,502.682220 
	C458.444122,503.163483 458.317902,503.972931 457.873199,505.000000 
	C460.349976,505.000000 462.331055,505.000000 464.312134,505.000000 
	C716.293579,505.000000 968.275024,504.956421 1220.256348,505.127167 
	C1233.015259,505.135803 1245.936646,506.045837 1258.491211,508.218384 
	C1275.938965,511.237732 1293.295898,515.185547 1310.356934,519.938171 
	C1334.485718,526.659668 1357.132324,537.120605 1378.674438,549.948303 
	C1397.335205,561.060242 1414.907959,573.647034 1430.330566,588.965576 
	C1439.700439,598.272217 1448.627808,608.051697 1457.360352,617.965576 
	C1468.546875,630.665649 1477.424927,645.119568 1484.400757,660.361145 
	C1490.650513,674.016357 1495.575195,688.492310 1499.190186,703.075684 
	C1502.458008,716.257996 1503.971558,730.029480 1504.743164,743.627197 
	C1505.354004,754.390930 1504.036377,765.323181 1502.915039,776.112061 
	C1501.268921,791.952820 1496.296875,806.993347 1489.797485,821.425659 
	C1477.356934,849.050903 1459.048584,872.653503 1438.102539,894.259460 
	C1431.467529,901.103455 1424.282837,907.486938 1416.869019,913.487427 
	C1403.985840,923.915039 1390.834473,934.021301 1377.585449,943.982910 
	C1370.558350,949.266541 1363.089722,953.963074 1355.702393,959.005127 
	C1359.418823,962.069275 1362.719116,964.959229 1366.192017,967.624390 
	C1381.251709,979.181702 1395.632935,991.439819 1408.837158,1005.165527 
	C1425.501465,1022.487915 1438.124023,1042.266968 1447.673584,1064.198364 
	C1459.383057,1091.090332 1466.703857,1119.247192 1471.949707,1147.987427 
	C1474.179199,1160.202393 1477.732300,1171.107666 1488.421509,1179.209351 
	C1504.637939,1191.500122 1522.930542,1197.256104 1542.726929,1198.853149 
	C1549.904541,1199.432373 1557.288574,1198.846680 1564.448608,1197.854736 
	C1571.597290,1196.864502 1578.583252,1194.700073 1586.462158,1193.000977 
M881.500000,1430.000000 
	C725.475708,1430.000000 569.451416,1430.000000 412.725769,1430.000000 
	C417.474182,1435.957642 421.556946,1441.222778 425.790771,1446.363525 
	C435.344421,1457.963257 444.898041,1469.564941 454.600464,1481.040039 
	C459.907074,1487.316162 465.639618,1493.232300 470.936523,1499.516113 
	C473.466675,1502.517700 476.115295,1503.885010 480.078796,1502.999146 
	C499.763184,1498.600220 519.464417,1494.275391 539.178528,1490.011353 
	C557.961914,1485.948608 576.817993,1482.208618 595.544250,1477.901123 
	C605.147400,1475.692139 614.605347,1475.351685 623.996460,1478.081421 
	C641.349487,1483.125732 654.099915,1493.862915 660.232300,1510.953491 
	C663.802490,1520.903564 665.671753,1531.491455 667.954346,1541.869751 
	C672.290222,1561.583862 676.361877,1581.355835 680.564880,1601.099243 
	C683.691711,1615.787476 687.147705,1630.413574 689.883667,1645.173706 
	C691.430603,1653.519287 693.180481,1660.019409 702.941895,1663.309326 
	C721.639282,1669.610718 739.594360,1678.076294 758.117371,1684.942871 
	C785.927490,1695.251953 814.430664,1703.367554 843.531433,1709.131958 
	C865.292236,1713.442383 887.135254,1717.406738 909.045471,1720.868408 
	C921.948364,1722.907104 935.030457,1723.998413 948.074341,1724.909546 
	C963.058228,1725.956055 978.090027,1726.881470 993.099121,1726.853882 
	C1009.944031,1726.822876 1026.790894,1725.752808 1043.629150,1724.969971 
	C1054.478760,1724.465698 1065.370361,1724.143433 1076.143311,1722.884888 
	C1092.451660,1720.979858 1108.727783,1718.653564 1124.914673,1715.900879 
	C1139.087891,1713.490845 1153.166504,1710.457764 1167.203735,1707.327148 
	C1197.078857,1700.664551 1226.240479,1691.519775 1254.913330,1680.891724 
	C1269.971802,1675.309937 1284.740723,1668.936157 1299.536621,1662.674805 
	C1301.062500,1662.029053 1302.487427,1659.857788 1302.922119,1658.132812 
	C1305.442993,1648.130005 1307.796631,1638.079346 1309.941650,1627.988525 
	C1316.691895,1596.234131 1323.459351,1564.482422 1329.944580,1532.673462 
	C1333.079956,1517.294800 1337.538940,1502.815796 1350.209839,1492.239380 
	C1362.338501,1482.115723 1376.505615,1476.980957 1391.826782,1479.320801 
	C1412.871216,1482.534790 1433.623779,1487.698975 1454.461792,1492.210693 
	C1475.122437,1496.684082 1495.748413,1501.321289 1516.355103,1506.037109 
	C1520.698364,1507.031006 1523.763306,1506.364014 1526.920532,1502.754639 
	C1543.488403,1483.813721 1560.444580,1465.212769 1577.062378,1446.314941 
	C1581.389893,1441.393799 1584.989136,1435.832397 1589.345215,1430.000000 
	C1586.636841,1430.000000 1584.841309,1430.000000 1583.045776,1430.000000 
	C1482.546631,1430.000000 1382.047607,1430.017090 1281.548462,1429.935669 
	C1277.674072,1429.932495 1273.752686,1429.216797 1269.934570,1428.435547 
	C1250.862061,1424.532959 1236.185669,1412.991699 1222.737427,1399.958130 
	C1215.387085,1392.834595 1209.151611,1384.485474 1202.904907,1376.313232 
	C1187.245605,1355.826904 1175.980469,1333.121948 1170.040527,1307.957886 
	C1166.073975,1291.154175 1162.442383,1274.270386 1158.760254,1257.400757 
	C1155.109741,1240.676147 1151.402344,1223.960449 1148.049927,1207.174927 
	C1144.007812,1186.936768 1140.520630,1166.585938 1133.004395,1147.216553 
	C1126.348267,1130.063599 1116.842896,1114.584351 1103.871704,1101.684814 
	C1094.006348,1091.873779 1082.390625,1084.126709 1069.338623,1078.636230 
	C1056.199219,1073.109131 1042.567749,1069.246826 1028.458618,1069.162476 
	C965.794739,1068.787720 903.127380,1068.998413 840.461243,1069.010132 
	C839.029602,1069.010376 837.597961,1069.162964 835.596252,1069.276978 
	C835.596252,1113.640259 835.596252,1157.653687 835.596252,1202.000000 
	C837.282532,1202.000000 839.081116,1202.000000 840.879639,1202.000000 
	C888.379211,1202.000000 935.878784,1202.000000 983.378357,1202.000000 
	C992.711609,1202.000000 1002.045288,1201.946167 1011.377991,1202.016235 
	C1019.496582,1202.077148 1021.999573,1204.610352 1021.999634,1212.493408 
	C1022.000183,1280.992798 1021.936462,1349.492310 1022.080811,1417.991455 
	C1022.098816,1426.533081 1021.339722,1429.944824 1009.998779,1429.966919 
	C967.499329,1430.049683 924.999634,1430.000000 881.500000,1430.000000 
M270.000000,1029.539185 
	C270.332062,1033.959595 270.584717,1038.387817 271.010254,1042.799194 
	C272.643219,1059.727417 274.129669,1076.673584 276.069214,1093.567261 
	C277.402771,1105.182373 278.766785,1116.857300 281.227600,1128.265991 
	C285.711731,1149.054810 291.170288,1169.632080 295.846680,1190.382202 
	C296.681580,1194.087036 297.922913,1195.075439 301.532318,1195.070190 
	C368.009308,1194.974121 434.486450,1195.001343 500.963562,1194.989624 
	C502.234985,1194.989502 503.506439,1194.837280 504.756592,1194.757324 
	C504.756592,1039.061890 504.756592,883.697449 504.756592,728.228149 
	C470.843079,728.228149 437.173431,728.228149 403.178497,728.228149 
	C411.510590,746.885193 419.855713,765.165588 427.838043,783.602966 
	C432.373291,794.078430 435.039368,804.736694 433.200806,816.621155 
	C430.061981,836.910461 419.078552,850.793884 401.050415,859.364746 
	C386.530609,866.267761 371.674408,872.462036 356.983276,879.006226 
	C344.348602,884.634338 331.756042,890.357300 319.108765,895.956787 
	C304.553070,902.401245 289.936279,908.708557 275.421631,915.243408 
	C274.308105,915.744690 273.277100,917.501038 273.088531,918.801697 
	C272.222260,924.776611 271.442078,930.782227 271.050690,936.804077 
	C270.227722,949.466736 269.194916,962.143372 269.113586,974.819885 
	C268.998657,992.732849 269.666656,1010.650818 270.000000,1029.539185 
M1157.001099,840.497559 
	C1168.331909,828.689331 1173.078369,814.935364 1171.173706,798.400940 
	C1169.521240,784.055237 1163.122192,772.460144 1153.121582,762.790466 
	C1142.640625,752.656311 1130.049927,745.439819 1116.172607,741.138977 
	C1105.127075,737.715759 1093.675415,733.448120 1082.372681,733.354919 
	C1001.726135,732.689758 921.071594,732.998718 840.419556,733.010193 
	C838.991638,733.010376 837.563660,733.163208 835.581787,733.276428 
	C835.581787,778.997070 835.581787,824.338196 835.581787,870.000000 
	C837.296326,870.000000 839.096130,870.000000 840.895935,870.000000 
	C913.049500,870.000000 985.203247,869.898071 1057.356445,870.070068 
	C1075.955566,870.114380 1094.317871,868.688904 1112.318115,863.958984 
	C1128.739502,859.643921 1144.225830,853.373291 1157.001099,840.497559 
M1031.303223,284.967773 
	C1032.643677,283.729492 1033.905884,282.391449 1035.336670,281.268463 
	C1049.068970,270.490692 1056.010864,255.977356 1056.839111,238.953033 
	C1057.743652,220.360748 1050.763794,204.513580 1036.639526,192.205597 
	C1021.933289,179.390366 1005.028259,174.209015 985.686279,178.731018 
	C965.995911,183.334488 952.329102,194.938782 943.797302,213.404785 
	C934.327515,233.900787 939.526978,259.971802 954.402283,275.861755 
	C967.851807,290.228546 984.652222,296.583405 1004.145935,294.870087 
	C1013.667908,294.033234 1022.702209,290.852539 1031.303223,284.967773 
M572.357422,1555.996948 
	C570.288269,1555.654785 568.213867,1555.341675 566.150879,1554.966064 
	C546.057434,1551.307983 528.740723,1557.599365 515.059082,1571.824829 
	C502.215485,1585.178833 496.516357,1601.535889 498.816589,1620.786743 
	C502.417084,1650.919800 533.665955,1676.284546 564.602783,1671.160522 
	C580.810059,1668.476074 593.949585,1661.434204 603.899475,1648.543579 
	C621.883972,1625.243652 619.691711,1593.540649 599.882751,1572.369629 
	C592.478455,1564.455933 583.367493,1559.401367 572.357422,1555.996948 
M245.996918,733.506470 
	C244.910843,734.923462 243.889114,736.395569 242.728455,737.748596 
	C233.828537,748.123230 229.411591,760.471191 229.211472,773.798950 
	C229.008667,787.305420 233.108505,799.842590 241.914825,810.628357 
	C255.786606,827.618408 273.168060,835.811035 295.280731,833.033875 
	C311.311401,831.020691 324.310394,823.766174 334.416138,811.121765 
	C355.611542,784.601868 349.598419,746.349304 322.274841,726.790405 
	C309.958282,717.973938 296.053131,714.529602 281.181091,716.120422 
	C267.769135,717.554932 256.398468,723.939148 245.996918,733.506470 
M1734.975098,725.469666 
	C1724.712402,720.320618 1714.082642,717.820068 1702.391235,718.856262 
	C1688.522217,720.085449 1676.505615,725.309814 1666.883179,734.858154 
	C1651.829224,749.796082 1645.638062,767.876587 1649.906616,789.260132 
	C1654.829346,813.919983 1674.048096,832.211487 1698.499390,835.720581 
	C1719.067993,838.672546 1737.201294,832.363037 1751.445679,816.171448 
	C1764.617065,801.199829 1768.736938,783.926025 1764.848877,764.922424 
	C1761.304321,747.598877 1751.177734,734.549072 1734.975098,725.469666 
M1496.999878,1607.728516 
	C1494.458496,1592.881226 1487.772339,1580.577881 1476.210693,1570.547119 
	C1452.880981,1550.306396 1415.083008,1552.519043 1393.827148,1577.429565 
	C1374.514771,1600.062500 1375.036133,1634.502441 1395.711670,1656.002197 
	C1408.511230,1669.311768 1424.431641,1675.846558 1443.396729,1674.065186 
	C1462.048828,1672.312866 1476.436035,1663.777466 1487.132935,1648.517090 
	C1495.594360,1636.445679 1498.359009,1623.074463 1496.999878,1607.728516 
z"/>
<path fill="#FFFFFF" opacity="1.000000" stroke="none" 
	d="
M992.531372,1.000000 
	C980.028015,5.356004 974.432251,16.699091 967.947205,27.275059 
	C955.467224,47.627846 942.854858,67.899437 930.293884,88.202507 
	C929.699463,89.163300 928.957275,90.049217 928.477661,91.061752 
	C925.554932,97.233330 921.178223,99.247299 914.000000,100.575829 
	C903.089966,102.595039 897.441772,97.505486 891.258545,90.825310 
	C880.019043,78.682426 868.536011,66.765327 857.218323,54.694202 
	C848.862488,45.782116 840.838135,36.547733 832.258728,27.859182 
	C816.172302,11.568066 790.713196,19.669992 783.885132,38.688576 
	C773.193420,68.468697 761.764832,97.983650 750.803040,127.668068 
	C749.271301,131.816040 745.851318,132.781784 742.463623,133.771225 
	C726.720703,138.369186 726.877563,138.064285 713.659058,128.257034 
	C696.620117,115.615318 679.260315,103.406273 662.045532,91.001396 
	C657.707397,87.875374 653.278198,84.860710 649.095154,81.537605 
	C639.703918,74.076950 629.280518,72.005104 618.215759,76.441940 
	C606.976196,80.948868 601.611328,90.008453 599.892334,101.921471 
	C597.671021,117.316010 594.580078,132.582977 592.070740,147.938721 
	C589.896423,161.244370 587.804993,174.570709 586.084595,187.940369 
	C585.221313,194.649429 583.168884,199.882996 576.079102,202.076157 
	C573.828552,202.772339 571.870300,204.424301 569.790710,205.659790 
	C566.619629,207.543686 563.892822,207.962158 560.027954,206.165665 
	C530.547913,192.462631 501.061249,178.741226 471.193573,165.917801 
	C454.731110,158.849762 436.677002,169.807755 433.244690,185.846466 
	C431.779297,192.693939 432.982635,200.112656 432.975281,207.271790 
	C432.974792,207.771606 432.988312,208.271500 433.000122,208.771255 
	C433.333038,222.859665 433.651245,236.948425 434.004608,251.036316 
	C434.316132,263.458618 433.936523,275.963074 435.336029,288.263550 
	C435.953552,293.691101 434.138336,296.186432 430.633942,298.863129 
	C427.793762,301.032471 424.572021,302.863617 422.227051,305.479126 
	C419.307556,308.735413 416.650024,308.056580 412.927521,307.160461 
	C386.902588,300.895477 360.801178,294.944244 334.691254,289.038513 
	C327.602417,287.435120 320.423004,285.356842 313.245758,285.189819 
	C294.535919,284.754425 281.524628,302.913818 285.738312,320.417816 
	C292.605927,348.946320 299.245453,377.529816 305.958832,406.095367 
	C306.402191,407.981903 306.291748,410.077362 307.065582,411.792938 
	C309.498993,417.187622 307.113007,421.065948 303.666168,424.896637 
	C300.942078,427.924042 298.601349,431.297821 295.856720,434.304443 
	C295.017029,435.224274 293.394043,435.912354 292.146851,435.886353 
	C288.406372,435.808289 284.679596,435.137970 280.938110,435.033020 
	C266.185333,434.619080 251.427704,434.378937 236.674362,433.982269 
	C227.750031,433.742310 218.828217,433.378998 209.909180,432.982971 
	C204.483200,432.742035 199.068909,432.212494 193.642014,432.022583 
	C177.141876,431.445160 162.501877,446.378265 164.164764,463.117523 
	C164.676270,468.266693 166.659943,473.437256 168.799835,478.227051 
	C176.614655,495.719513 184.825882,513.034363 192.796387,530.457947 
	C197.681595,541.137085 202.446014,551.872498 207.123688,562.643860 
	C207.596985,563.733704 207.503265,565.444092 206.977417,566.529785 
	C204.448120,571.752075 201.788696,576.919189 198.964706,581.988525 
	C196.410782,586.573120 191.385056,585.063599 187.528305,585.844666 
	C174.189056,588.546387 160.732513,590.685608 147.293869,592.874634 
	C136.070663,594.702759 124.762421,596.041016 113.581795,598.087585 
	C105.540009,599.559631 97.260452,600.902466 89.776802,603.980347 
	C78.474602,608.628540 73.558632,621.046875 74.724968,633.202332 
	C75.612366,642.450745 81.305153,648.530273 85.979179,655.314880 
	C95.716583,669.449280 105.951828,683.241455 116.023766,697.144348 
	C122.682549,706.335876 129.579971,715.361694 135.969421,724.735107 
	C137.235733,726.592773 137.291550,729.816833 136.823547,732.198181 
	C135.960678,736.588379 134.119064,740.776550 133.023346,745.133911 
	C132.218246,748.335632 130.049133,749.895874 127.306641,750.913452 
	C97.493988,761.975403 67.558784,772.717346 37.882423,784.132629 
	C18.593676,791.552124 12.186292,816.298218 27.457928,831.789673 
	C40.237198,844.752869 53.724987,857.022278 67.007408,869.483398 
	C77.956192,879.755249 89.264366,889.656250 99.895653,900.241455 
	C101.587952,901.926453 100.614052,906.346252 100.739052,909.506958 
	C100.768997,910.264282 99.905945,911.122559 100.057014,911.799744 
	C102.527557,922.873901 94.435249,926.534424 87.035347,931.053040 
	C65.424164,944.249634 43.959877,957.687012 22.454901,971.057129 
	C18.618183,973.442444 14.374687,975.456116 11.196965,978.544678 
	C7.522034,982.116455 4.818221,986.687378 1.346398,990.912292 
	C1.000000,661.072815 1.000000,331.145630 1.000000,1.000000 
	C331.354187,1.000000 661.708435,1.000000 992.531372,1.000000 
z"/>
<path fill="#FFFFFF" opacity="1.000000" stroke="none" 
	d="
M2001.000000,992.531372 
	C1996.644287,980.028198 1985.299072,974.436035 1974.726685,967.946045 
	C1956.029541,956.468201 1937.423462,944.842102 1918.778320,933.279419 
	C1914.392334,930.559509 1909.835083,928.072632 1905.696533,925.017944 
	C1904.002930,923.767883 1902.567627,921.426208 1902.147217,919.351624 
	C1901.338501,915.360962 1901.334351,911.206970 1901.001099,907.120422 
	C1900.689453,903.299622 1901.407227,900.487671 1904.750000,897.475403 
	C1918.768433,884.842712 1932.198364,871.558960 1945.922974,858.597412 
	C1955.288696,849.752197 1965.013672,841.276794 1974.172607,832.225952 
	C1990.440308,816.149963 1982.287964,790.677917 1963.270996,783.872620 
	C1933.480591,773.211975 1903.979370,761.745544 1874.294312,750.786621 
	C1870.116943,749.244446 1869.198486,745.787659 1868.217896,742.424866 
	C1863.628296,726.684204 1863.940063,726.834839 1873.774780,713.632690 
	C1887.227905,695.573059 1900.395630,677.296936 1913.449219,658.945374 
	C1918.004639,652.541016 1922.989990,646.080200 1925.809326,638.874573 
	C1932.869751,620.829407 1920.306763,602.580383 1901.033691,599.920288 
	C1887.390137,598.037170 1873.866455,595.299255 1860.262939,593.107239 
	C1846.953369,590.962646 1833.611816,589.016785 1820.281250,587.003845 
	C1815.620972,586.300171 1810.910400,585.848511 1806.313110,584.861328 
	C1805.032593,584.586426 1803.772217,582.983032 1803.023926,581.687866 
	C1800.523560,577.359070 1798.506836,572.735413 1795.818726,568.535767 
	C1793.980835,565.664368 1794.293823,563.580139 1795.677002,560.572815 
	C1808.788208,532.065857 1821.507324,503.378357 1834.652466,474.887390 
	C1841.973022,459.020935 1836.694946,444.191864 1823.281738,436.043762 
	C1819.590942,433.801758 1814.857910,432.255524 1810.577148,432.193848 
	C1797.163330,432.000580 1783.735840,432.619049 1770.316528,433.020874 
	C1762.724976,433.248169 1755.141235,433.725616 1747.550415,433.986267 
	C1736.297363,434.372772 1724.848755,433.534882 1713.855225,435.404907 
	C1706.725708,436.617645 1704.971191,432.070770 1701.467896,428.892609 
	C1700.165894,427.711273 1699.502441,425.780884 1698.136719,424.722443 
	C1690.593506,418.876373 1694.957764,411.733521 1696.408081,405.411591 
	C1702.642334,378.235809 1709.536865,351.212097 1715.891724,324.062958 
	C1718.136475,314.472626 1717.495239,305.281372 1711.400024,296.614410 
	C1705.071289,287.615540 1691.933960,283.120300 1682.070312,285.444489 
	C1653.363403,292.208771 1624.691284,299.120209 1596.002808,305.962250 
	C1593.034058,306.670319 1590.067383,307.426147 1587.060913,307.925171 
	C1584.789185,308.302307 1582.806763,308.547424 1580.621948,306.383911 
	C1576.964233,302.761963 1572.381836,300.092438 1568.426636,296.741058 
	C1567.220215,295.718842 1566.143433,293.777161 1566.136230,292.251251 
	C1566.115723,287.851349 1566.838623,283.453674 1566.968994,279.046234 
	C1567.385986,264.960724 1567.624512,250.869995 1568.015503,236.783615 
	C1568.267822,227.693115 1568.618530,218.604553 1569.018555,209.519226 
	C1569.250000,204.259659 1569.778076,199.012543 1569.979370,193.752396 
	C1570.612061,177.225433 1555.683838,162.540817 1538.993652,164.162674 
	C1533.838989,164.663574 1528.647461,166.590958 1523.858643,168.729004 
	C1506.365845,176.538788 1489.058105,184.761475 1471.636597,192.732574 
	C1460.957397,197.618835 1450.222168,202.386017 1439.441284,207.042786 
	C1438.213501,207.573090 1436.300049,207.510223 1435.093750,206.922775 
	C1430.018188,204.450851 1424.486572,202.369492 1420.330566,198.755417 
	C1417.762939,196.522644 1416.831177,191.892517 1416.103394,188.155884 
	C1413.842041,176.543701 1411.932373,164.859665 1410.067627,153.174576 
	C1407.942749,139.860397 1406.280884,126.466980 1403.898071,113.201347 
	C1402.456177,105.173576 1400.907227,96.962181 1397.835571,89.477921 
	C1393.325317,78.487915 1380.655396,73.533157 1368.933228,74.728691 
	C1357.738281,75.870445 1350.758423,83.485214 1342.528442,89.147987 
	C1327.579834,99.433655 1313.063354,110.346619 1298.334961,120.953796 
	C1291.773438,125.679352 1284.855469,129.961472 1278.653198,135.111969 
	C1275.688110,137.574173 1272.982056,137.694748 1269.930908,136.900162 
	C1265.897461,135.849747 1262.063477,133.925476 1257.996338,133.141541 
	C1253.704834,132.314346 1252.261963,129.785614 1250.867676,126.000298 
	C1239.929077,96.303925 1229.093628,66.559395 1217.458130,37.133507 
	C1209.980957,18.223869 1185.162354,12.424711 1169.937134,27.687645 
	C1157.431763,40.223881 1145.464722,53.298923 1133.321655,66.194061 
	C1124.147461,75.936516 1114.724121,85.478081 1106.095215,95.686722 
	C1101.595459,101.010139 1097.043701,102.414528 1090.866699,100.036278 
	C1090.719360,99.979530 1090.528564,99.980339 1090.370728,100.014061 
	C1080.427368,102.138275 1076.205933,95.903160 1071.743042,88.458717 
	C1056.816650,63.560291 1041.387695,38.961212 1025.983521,14.352413 
	C1022.082214,8.119972 1016.649963,3.488452 1009.112915,1.357707 
	C1339.593750,1.000000 1670.187622,1.000000 2001.000000,1.000000 
	C2001.000000,331.354187 2001.000000,661.708435 2001.000000,992.531372 
z"/>
<path fill="#FFFFFF" opacity="1.000000" stroke="none" 
	d="
M1009.468628,2001.000000 
	C1021.871643,1996.549316 1027.612061,1985.383301 1034.078125,1974.741943 
	C1045.470581,1955.993530 1057.157837,1937.424194 1068.720093,1918.778931 
	C1071.439941,1914.393066 1073.926880,1909.835938 1076.981445,1905.697388 
	C1078.231445,1904.003662 1080.572754,1902.567993 1082.647217,1902.147461 
	C1086.637573,1901.338623 1090.787476,1901.272583 1094.878784,1901.018677 
	C1098.817993,1900.774048 1101.810425,1901.282227 1104.924316,1905.024902 
	C1112.539673,1914.177490 1121.340698,1922.334839 1129.513306,1931.034546 
	C1143.085815,1945.482300 1156.196655,1960.381226 1170.136597,1974.461792 
	C1185.246582,1989.724121 1210.588379,1983.548706 1217.975586,1963.775879 
	C1229.104980,1933.985962 1240.221558,1904.190796 1251.192749,1874.342285 
	C1252.716797,1870.195801 1256.130981,1869.223755 1259.525391,1868.231934 
	C1275.267212,1863.631958 1275.096191,1863.952393 1288.333252,1873.730591 
	C1306.823853,1887.389893 1325.578857,1900.694458 1344.334717,1913.989746 
	C1350.365723,1918.264771 1356.294922,1923.275269 1363.071777,1925.793701 
	C1382.457886,1932.997925 1400.552002,1918.958862 1402.154785,1899.599854 
	C1403.048950,1888.800293 1405.494385,1878.127930 1407.266479,1867.402588 
	C1408.825928,1857.963257 1410.461670,1848.536255 1411.989380,1839.091919 
	C1413.725952,1828.355835 1415.261353,1817.584961 1417.200684,1806.886475 
	C1417.484131,1805.322388 1419.279419,1803.680054 1420.792236,1802.757568 
	C1425.196533,1800.071533 1429.704468,1797.492310 1434.401245,1795.382080 
	C1436.143433,1794.599487 1438.831665,1794.549072 1440.566040,1795.328003 
	C1469.486694,1808.317261 1498.377808,1821.375610 1527.159058,1834.670654 
	C1542.906860,1841.944824 1557.734863,1836.854736 1565.968384,1823.233887 
	C1568.350342,1819.293701 1569.726196,1814.149780 1569.806152,1809.527344 
	C1570.029663,1796.615723 1569.366821,1783.687500 1568.988525,1770.767700 
	C1568.712524,1761.344604 1568.439575,1751.919312 1567.972290,1742.504517 
	C1567.426758,1731.508911 1566.638062,1720.525269 1566.062622,1709.530884 
	C1566.009644,1708.519897 1566.427246,1707.102173 1567.149170,1706.494141 
	C1572.131348,1702.297241 1577.187622,1698.179443 1582.392090,1694.264648 
	C1583.264160,1693.608643 1585.041260,1693.759766 1586.281494,1694.048218 
	C1605.113037,1698.428589 1623.927002,1702.885254 1642.740601,1707.342773 
	C1656.231323,1710.539307 1669.576294,1714.668823 1683.234497,1716.767822 
	C1704.880615,1720.094360 1720.877441,1701.463989 1716.240112,1681.634521 
	C1709.558716,1653.064209 1702.769043,1624.519165 1696.034790,1595.961182 
	C1695.334351,1592.990479 1694.542725,1590.028442 1694.081543,1587.018188 
	C1693.737183,1584.771362 1693.469238,1582.769043 1695.646484,1580.592407 
	C1699.534180,1576.705811 1702.553223,1571.963257 1706.134888,1567.748169 
	C1706.931274,1566.810791 1708.565796,1566.083008 1709.796265,1566.109375 
	C1713.869751,1566.196777 1717.929810,1566.847900 1722.004272,1566.968262 
	C1736.089600,1567.384033 1750.179932,1567.626831 1764.266235,1568.014404 
	C1773.689697,1568.273560 1783.111572,1568.616821 1792.530029,1569.019531 
	C1797.789551,1569.244263 1803.036377,1569.791504 1808.296509,1569.977173 
	C1825.520142,1570.585083 1839.415771,1555.159058 1837.835449,1538.948364 
	C1837.333374,1533.798096 1835.386108,1528.616089 1833.248291,1523.828979 
	C1825.436157,1506.337036 1817.217285,1489.027222 1809.246338,1471.605347 
	C1804.360596,1460.926392 1799.590332,1450.193115 1794.934448,1439.412354 
	C1794.404663,1438.185669 1794.489746,1436.268311 1795.080322,1435.056641 
	C1797.554199,1429.981689 1800.280029,1425.026733 1803.007812,1420.079590 
	C1805.567261,1415.437866 1810.553955,1416.914551 1814.391968,1416.158447 
	C1828.068848,1413.464600 1841.862793,1411.351196 1855.632812,1409.146240 
	C1868.942627,1407.015015 1882.282715,1405.074463 1895.599731,1402.987305 
	C1904.273926,1401.628052 1912.759766,1400.033203 1919.351074,1393.242432 
	C1929.670044,1382.610840 1930.499268,1365.970215 1921.009155,1353.397461 
	C1909.098389,1337.617676 1897.668823,1321.473511 1886.101318,1305.436279 
	C1879.666626,1296.515259 1873.650757,1287.274414 1866.866455,1278.632935 
	C1864.504028,1275.623657 1864.307617,1272.956055 1865.101318,1269.907104 
	C1866.151367,1265.873535 1868.095581,1262.040771 1868.855225,1257.972290 
	C1869.665405,1253.632324 1872.251587,1252.258423 1876.023560,1250.867798 
	C1905.716675,1239.922729 1935.393677,1228.923584 1964.906128,1217.502686 
	C1983.769043,1210.202759 1989.420654,1184.804810 1974.323608,1169.918945 
	C1961.476196,1157.251465 1948.280151,1144.932373 1935.080933,1132.627930 
	C1924.236694,1122.519165 1912.935059,1112.887085 1902.400635,1102.472656 
	C1900.548828,1100.641968 1901.417114,1095.999634 1901.177124,1092.645142 
	C1901.124390,1091.908936 1902.074463,1091.051270 1901.935791,1090.378540 
	C1899.884399,1080.417847 1906.079956,1076.176147 1913.544678,1071.743774 
	C1935.867188,1058.489136 1957.831421,1044.631226 1979.933228,1031.005127 
	C1987.854614,1026.121338 1995.936157,1021.394592 1999.473999,1012.007324 
	C1999.813477,1011.106262 2000.017700,1010.154236 2000.642334,1009.112915 
	C2001.000000,1339.593750 2001.000000,1670.187622 2001.000000,2001.000000 
	C1670.645752,2001.000000 1340.291504,2001.000000 1009.468628,2001.000000 
z"/>
<path fill="#FFFFFF" opacity="1.000000" stroke="none" 
	d="
M1.000008,1011.468628 
	C3.129420,1013.966370 4.700442,1017.682190 7.490918,1019.761292 
	C16.549330,1026.510498 25.888605,1032.920898 35.423378,1038.984253 
	C52.984783,1050.151733 70.763977,1060.976685 88.446892,1071.953369 
	C90.367157,1073.145386 92.125122,1074.696899 94.178024,1075.557861 
	C99.198196,1077.663452 100.161827,1081.564209 100.083351,1086.473145 
	C100.015457,1090.719849 100.773247,1094.974121 100.929703,1099.233765 
	C100.972382,1100.395752 100.502289,1101.953003 99.690628,1102.711304 
	C92.346977,1109.572266 84.794174,1116.209595 77.458977,1123.079346 
	C64.895226,1134.845947 52.343056,1146.628662 39.988701,1158.613525 
	C33.911312,1164.509033 26.974949,1170.085815 22.722799,1177.182373 
	C12.854396,1193.651611 24.153454,1213.036377 39.022549,1218.231079 
	C68.737091,1228.612671 98.053963,1240.132935 127.525452,1251.208618 
	C130.294235,1252.249146 132.277237,1253.944092 133.046265,1257.115601 
	C134.066345,1261.322754 135.676178,1265.383545 136.831329,1269.562744 
	C137.737259,1272.840454 137.455490,1275.525391 135.039581,1278.728027 
	C123.431526,1294.117310 112.334732,1309.892944 101.093689,1325.558228 
	C93.734970,1335.813232 86.119843,1345.903442 79.187790,1356.441284 
	C67.453781,1374.278809 77.216965,1398.104492 99.811279,1401.976196 
	C117.875420,1405.071533 135.960678,1408.048340 154.057831,1410.944702 
	C167.368912,1413.075195 180.737045,1414.858887 194.020325,1417.142578 
	C196.029099,1417.488037 198.239746,1419.362183 199.439896,1421.146240 
	C201.949860,1424.877197 203.709732,1429.103149 206.041565,1432.966553 
	C207.884109,1436.019287 207.735153,1438.436279 206.161743,1441.836914 
	C192.784500,1470.750854 179.692245,1499.797363 166.629776,1528.855957 
	C157.694717,1548.732788 172.571960,1570.377319 193.544113,1569.982788 
	C206.301071,1569.742676 219.055786,1569.365845 231.809708,1568.989014 
	C241.233246,1568.710571 250.659317,1568.441772 260.074371,1567.971191 
	C270.904205,1567.429810 281.720123,1566.606323 292.551300,1566.104248 
	C293.667114,1566.052612 295.126495,1567.115845 295.948303,1568.072510 
	C300.210480,1573.034302 304.317291,1578.129517 308.731323,1583.485229 
	C302.579956,1608.991455 296.217773,1634.777222 290.199585,1660.643066 
	C288.039642,1669.926270 285.585815,1679.361084 285.238312,1688.799316 
	C284.554779,1707.362183 302.868561,1720.496216 320.452942,1716.245728 
	C348.976166,1709.351196 377.570282,1702.750000 406.134888,1696.026855 
	C408.946014,1695.365112 411.733734,1694.540771 414.580597,1694.113403 
	C416.983490,1693.752563 419.160065,1693.402832 421.477173,1695.715088 
	C425.364899,1699.594971 430.130066,1702.582031 434.345032,1706.157959 
	C435.274902,1706.947021 435.909271,1708.636475 435.883209,1709.894775 
	C435.809326,1713.468628 435.133240,1717.028809 435.033203,1720.603882 
	C434.620483,1735.356812 434.375610,1750.114380 433.985016,1764.868164 
	C433.722290,1774.791992 433.884766,1784.774292 432.805359,1794.614990 
	C431.883392,1803.019897 431.152344,1811.234741 434.029572,1819.302246 
	C438.152039,1830.861084 452.737915,1841.386597 466.412262,1837.063965 
	C474.796295,1834.413574 482.986176,1831.018677 491.020203,1827.416138 
	C514.958740,1816.681763 538.767578,1805.658325 562.674011,1794.851562 
	C563.747559,1794.366333 565.476379,1794.497070 566.567810,1795.026123 
	C571.789307,1797.557129 577.566895,1799.562500 581.798401,1803.286987 
	C584.437744,1805.609741 585.150085,1810.564209 585.910522,1814.495728 
	C588.095703,1825.793213 589.934204,1837.160156 591.779419,1848.520752 
	C593.601990,1859.741821 594.852173,1871.072998 597.122742,1882.198975 
	C599.177673,1892.268311 598.653198,1902.867310 603.711548,1912.364380 
	C609.460327,1923.157959 621.030457,1928.432739 633.224854,1927.269775 
	C642.472839,1926.387939 648.573975,1920.711304 655.328247,1916.001221 
	C671.674316,1904.602295 687.667786,1892.698242 703.823547,1881.025391 
	C710.382996,1876.286133 717.257263,1871.935303 723.468079,1866.780884 
	C726.446960,1864.308594 729.193909,1864.346313 732.233032,1865.105835 
	C736.591736,1866.195190 740.803467,1867.868896 745.157410,1868.982300 
	C748.342896,1869.796875 749.908813,1871.966919 750.927368,1874.713867 
	C761.983215,1904.528931 772.726013,1934.463867 784.130920,1964.144287 
	C791.748291,1983.967896 816.780273,1989.432617 831.793701,1974.522461 
	C841.357971,1965.024048 849.940430,1954.542236 859.086548,1944.615112 
	C863.290466,1940.052490 867.860107,1935.828979 872.142578,1931.336182 
	C881.502319,1921.516724 890.583008,1911.416626 900.290710,1901.957642 
	C901.966125,1900.325073 906.165710,1901.215454 909.205383,1901.099487 
	C909.946045,1901.071167 910.801147,1902.071777 911.450989,1901.924683 
	C922.713013,1899.376831 926.484985,1907.444336 931.097473,1915.100342 
	C942.500916,1934.028320 954.201599,1952.780884 966.033691,1971.445068 
	C971.050110,1979.358032 976.543823,1986.985229 982.144226,1994.500977 
	C983.879822,1996.830078 986.681763,1998.364502 988.997742,2000.631348 
	C659.739502,2001.000000 330.478973,2001.000000 1.000000,2001.000000 
	C1.000000,1671.312500 1.000000,1341.624878 1.000008,1011.468628 
z"/>
<path fill="#FFFFFF" opacity="1.000000" stroke="none" 
	d="
M1586.051392,1193.025635 
	C1578.583252,1194.700073 1571.597290,1196.864502 1564.448608,1197.854736 
	C1557.288574,1198.846680 1549.904541,1199.432373 1542.726929,1198.853149 
	C1522.930542,1197.256104 1504.637939,1191.500122 1488.421509,1179.209351 
	C1477.732300,1171.107666 1474.179199,1160.202393 1471.949707,1147.987427 
	C1466.703857,1119.247192 1459.383057,1091.090332 1447.673584,1064.198364 
	C1438.124023,1042.266968 1425.501465,1022.487915 1408.837158,1005.165527 
	C1395.632935,991.439819 1381.251709,979.181702 1366.192017,967.624390 
	C1362.719116,964.959229 1359.418823,962.069275 1355.702393,959.005127 
	C1363.089722,953.963074 1370.558350,949.266541 1377.585449,943.982910 
	C1390.834473,934.021301 1403.985840,923.915039 1416.869019,913.487427 
	C1424.282837,907.486938 1431.467529,901.103455 1438.102539,894.259460 
	C1459.048584,872.653503 1477.356934,849.050903 1489.797485,821.425659 
	C1496.296875,806.993347 1501.268921,791.952820 1502.915039,776.112061 
	C1504.036377,765.323181 1505.354004,754.390930 1504.743164,743.627197 
	C1503.971558,730.029480 1502.458008,716.257996 1499.190186,703.075684 
	C1495.575195,688.492310 1490.650513,674.016357 1484.400757,660.361145 
	C1477.424927,645.119568 1468.546875,630.665649 1457.360352,617.965576 
	C1448.627808,608.051697 1439.700439,598.272217 1430.330566,588.965576 
	C1414.907959,573.647034 1397.335205,561.060242 1378.674438,549.948303 
	C1357.132324,537.120605 1334.485718,526.659668 1310.356934,519.938171 
	C1293.295898,515.185547 1275.938965,511.237732 1258.491211,508.218384 
	C1245.936646,506.045837 1233.015259,505.135803 1220.256348,505.127167 
	C968.275024,504.956421 716.293579,505.000000 464.312134,505.000000 
	C462.331055,505.000000 460.349976,505.000000 457.873199,505.000000 
	C458.317902,503.972931 458.444122,503.163483 458.909607,502.682220 
	C470.797638,490.390442 482.117004,477.464142 494.779266,466.025330 
	C514.082092,448.587616 534.065674,431.873657 554.222107,415.418182 
	C579.453064,394.819885 606.559875,376.851257 635.043701,361.073486 
	C654.383179,350.360962 673.763000,339.606506 693.756958,330.216888 
	C724.030579,315.999695 755.255493,303.876312 787.362732,294.478058 
	C811.298767,287.471619 835.729919,282.161865 859.919067,276.011993 
	C866.779846,274.267700 869.004028,280.184753 872.810364,283.487885 
	C873.633545,284.202240 873.993530,285.428314 874.764282,286.228455 
	C884.896484,296.746429 895.066895,307.227539 905.221863,317.723511 
	C914.913391,327.740509 924.603638,337.758698 934.283997,347.786499 
	C943.038757,356.855469 951.315186,366.451050 960.640747,374.888062 
	C973.010559,386.079285 987.870972,389.519714 1004.536560,387.290833 
	C1019.201599,385.329407 1029.893066,377.105133 1039.959351,367.494080 
	C1052.570557,355.453125 1064.924194,343.142883 1077.488403,331.052094 
	C1091.811768,317.268463 1106.230225,303.583588 1120.637817,289.887817 
	C1125.185059,285.565186 1129.675537,281.155548 1134.528564,277.198517 
	C1135.924683,276.060242 1138.655762,275.678925 1140.504150,276.110321 
	C1161.213257,280.943726 1182.150513,285.076599 1202.468750,291.237366 
	C1228.122314,299.015808 1253.713623,307.390228 1278.491699,317.555328 
	C1303.338257,327.748505 1327.502441,339.789642 1351.321899,352.251465 
	C1376.929443,365.648804 1401.508179,380.933258 1424.721191,398.254852 
	C1439.946167,409.615784 1455.235962,420.909088 1470.077515,432.757812 
	C1479.700684,440.440369 1488.714600,448.912201 1497.734985,457.316376 
	C1507.809448,466.702515 1517.994141,476.027252 1527.385010,486.075836 
	C1539.822998,499.384827 1551.574707,513.337341 1563.554688,527.071716 
	C1584.085205,550.608826 1601.932739,576.128418 1618.797363,602.353333 
	C1624.380981,611.036255 1629.803223,619.842590 1634.794312,628.871704 
	C1635.885376,630.845520 1635.592163,634.346619 1634.624390,636.574341 
	C1627.637451,652.658264 1620.218994,668.553955 1613.119019,684.589722 
	C1603.224121,706.937622 1593.504517,729.363098 1583.676880,751.740845 
	C1577.598145,765.582275 1570.893921,779.180237 1565.484863,793.276733 
	C1558.316284,811.959045 1561.935669,829.452759 1573.192993,845.789001 
	C1581.242310,857.469849 1593.709351,862.325562 1605.727905,867.900574 
	C1615.636719,872.496887 1625.784546,876.575134 1635.779297,880.989746 
	C1656.821533,890.284058 1677.834473,899.644714 1698.855957,908.985901 
	C1707.825195,912.971558 1716.723877,917.126282 1725.786865,920.885193 
	C1728.630615,922.064514 1729.729248,924.047180 1729.936401,926.592773 
	C1730.736450,936.424194 1731.603027,946.263184 1731.938477,956.116577 
	C1732.497314,972.529724 1733.042358,988.959595 1732.886475,1005.375732 
	C1732.750122,1019.712341 1731.639771,1034.039673 1730.929810,1049.000000 
	C1729.085449,1049.000000 1727.324219,1049.000000 1725.562988,1049.000000 
	C1702.564697,1049.000000 1679.563599,1049.198120 1656.569946,1048.871460 
	C1650.217529,1048.781128 1645.379883,1050.499268 1645.106323,1060.626953 
	C1644.697021,1075.781372 1645.427002,1090.970581 1644.882568,1106.116455 
	C1644.315308,1121.893921 1641.367065,1137.413574 1634.554810,1151.749268 
	C1624.702759,1172.481567 1608.401611,1186.137939 1586.051392,1193.025635 
z"/>
<path fill="#FFFFFF" opacity="1.000000" stroke="none" 
	d="
M882.000000,1430.000000 
	C924.999634,1430.000000 967.499329,1430.049683 1009.998779,1429.966919 
	C1021.339722,1429.944824 1022.098816,1426.533081 1022.080811,1417.991455 
	C1021.936462,1349.492310 1022.000183,1280.992798 1021.999634,1212.493408 
	C1021.999573,1204.610352 1019.496582,1202.077148 1011.377991,1202.016235 
	C1002.045288,1201.946167 992.711609,1202.000000 983.378357,1202.000000 
	C935.878784,1202.000000 888.379211,1202.000000 840.879639,1202.000000 
	C839.081116,1202.000000 837.282532,1202.000000 835.596252,1202.000000 
	C835.596252,1157.653687 835.596252,1113.640259 835.596252,1069.276978 
	C837.597961,1069.162964 839.029602,1069.010376 840.461243,1069.010132 
	C903.127380,1068.998413 965.794739,1068.787720 1028.458618,1069.162476 
	C1042.567749,1069.246826 1056.199219,1073.109131 1069.338623,1078.636230 
	C1082.390625,1084.126709 1094.006348,1091.873779 1103.871704,1101.684814 
	C1116.842896,1114.584351 1126.348267,1130.063599 1133.004395,1147.216553 
	C1140.520630,1166.585938 1144.007812,1186.936768 1148.049927,1207.174927 
	C1151.402344,1223.960449 1155.109741,1240.676147 1158.760254,1257.400757 
	C1162.442383,1274.270386 1166.073975,1291.154175 1170.040527,1307.957886 
	C1175.980469,1333.121948 1187.245605,1355.826904 1202.904907,1376.313232 
	C1209.151611,1384.485474 1215.387085,1392.834595 1222.737427,1399.958130 
	C1236.185669,1412.991699 1250.862061,1424.532959 1269.934570,1428.435547 
	C1273.752686,1429.216797 1277.674072,1429.932495 1281.548462,1429.935669 
	C1382.047607,1430.017090 1482.546631,1430.000000 1583.045776,1430.000000 
	C1584.841309,1430.000000 1586.636841,1430.000000 1589.345215,1430.000000 
	C1584.989136,1435.832397 1581.389893,1441.393799 1577.062378,1446.314941 
	C1560.444580,1465.212769 1543.488403,1483.813721 1526.920532,1502.754639 
	C1523.763306,1506.364014 1520.698364,1507.031006 1516.355103,1506.037109 
	C1495.748413,1501.321289 1475.122437,1496.684082 1454.461792,1492.210693 
	C1433.623779,1487.698975 1412.871216,1482.534790 1391.826782,1479.320801 
	C1376.505615,1476.980957 1362.338501,1482.115723 1350.209839,1492.239380 
	C1337.538940,1502.815796 1333.079956,1517.294800 1329.944580,1532.673462 
	C1323.459351,1564.482422 1316.691895,1596.234131 1309.941650,1627.988525 
	C1307.796631,1638.079346 1305.442993,1648.130005 1302.922119,1658.132812 
	C1302.487427,1659.857788 1301.062500,1662.029053 1299.536621,1662.674805 
	C1284.740723,1668.936157 1269.971802,1675.309937 1254.913330,1680.891724 
	C1226.240479,1691.519775 1197.078857,1700.664551 1167.203735,1707.327148 
	C1153.166504,1710.457764 1139.087891,1713.490845 1124.914673,1715.900879 
	C1108.727783,1718.653564 1092.451660,1720.979858 1076.143311,1722.884888 
	C1065.370361,1724.143433 1054.478760,1724.465698 1043.629150,1724.969971 
	C1026.790894,1725.752808 1009.944031,1726.822876 993.099121,1726.853882 
	C978.090027,1726.881470 963.058228,1725.956055 948.074341,1724.909546 
	C935.030457,1723.998413 921.948364,1722.907104 909.045471,1720.868408 
	C887.135254,1717.406738 865.292236,1713.442383 843.531433,1709.131958 
	C814.430664,1703.367554 785.927490,1695.251953 758.117371,1684.942871 
	C739.594360,1678.076294 721.639282,1669.610718 702.941895,1663.309326 
	C693.180481,1660.019409 691.430603,1653.519287 689.883667,1645.173706 
	C687.147705,1630.413574 683.691711,1615.787476 680.564880,1601.099243 
	C676.361877,1581.355835 672.290222,1561.583862 667.954346,1541.869751 
	C665.671753,1531.491455 663.802490,1520.903564 660.232300,1510.953491 
	C654.099915,1493.862915 641.349487,1483.125732 623.996460,1478.081421 
	C614.605347,1475.351685 605.147400,1475.692139 595.544250,1477.901123 
	C576.817993,1482.208618 557.961914,1485.948608 539.178528,1490.011353 
	C519.464417,1494.275391 499.763184,1498.600220 480.078796,1502.999146 
	C476.115295,1503.885010 473.466675,1502.517700 470.936523,1499.516113 
	C465.639618,1493.232300 459.907074,1487.316162 454.600464,1481.040039 
	C444.898041,1469.564941 435.344421,1457.963257 425.790771,1446.363525 
	C421.556946,1441.222778 417.474182,1435.957642 412.725769,1430.000000 
	C569.451416,1430.000000 725.475708,1430.000000 882.000000,1430.000000 
z"/>
<path fill="#FFFFFF" opacity="1.000000" stroke="none" 
	d="
M270.000000,1029.052979 
	C269.666656,1010.650818 268.998657,992.732849 269.113586,974.819885 
	C269.194916,962.143372 270.227722,949.466736 271.050690,936.804077 
	C271.442078,930.782227 272.222260,924.776611 273.088531,918.801697 
	C273.277100,917.501038 274.308105,915.744690 275.421631,915.243408 
	C289.936279,908.708557 304.553070,902.401245 319.108765,895.956787 
	C331.756042,890.357300 344.348602,884.634338 356.983276,879.006226 
	C371.674408,872.462036 386.530609,866.267761 401.050415,859.364746 
	C419.078552,850.793884 430.061981,836.910461 433.200806,816.621155 
	C435.039368,804.736694 432.373291,794.078430 427.838043,783.602966 
	C419.855713,765.165588 411.510590,746.885193 403.178497,728.228149 
	C437.173431,728.228149 470.843079,728.228149 504.756592,728.228149 
	C504.756592,883.697449 504.756592,1039.061890 504.756592,1194.757324 
	C503.506439,1194.837280 502.234985,1194.989502 500.963562,1194.989624 
	C434.486450,1195.001343 368.009308,1194.974121 301.532318,1195.070190 
	C297.922913,1195.075439 296.681580,1194.087036 295.846680,1190.382202 
	C291.170288,1169.632080 285.711731,1149.054810 281.227600,1128.265991 
	C278.766785,1116.857300 277.402771,1105.182373 276.069214,1093.567261 
	C274.129669,1076.673584 272.643219,1059.727417 271.010254,1042.799194 
	C270.584717,1038.387817 270.332062,1033.959595 270.000000,1029.052979 
z"/>
<path fill="#FFFFFF" opacity="1.000000" stroke="none" 
	d="
M1156.749878,840.749023 
	C1144.225830,853.373291 1128.739502,859.643921 1112.318115,863.958984 
	C1094.317871,868.688904 1075.955566,870.114380 1057.356445,870.070068 
	C985.203247,869.898071 913.049500,870.000000 840.895935,870.000000 
	C839.096130,870.000000 837.296326,870.000000 835.581787,870.000000 
	C835.581787,824.338196 835.581787,778.997070 835.581787,733.276428 
	C837.563660,733.163208 838.991638,733.010376 840.419556,733.010193 
	C921.071594,732.998718 1001.726135,732.689758 1082.372681,733.354919 
	C1093.675415,733.448120 1105.127075,737.715759 1116.172607,741.138977 
	C1130.049927,745.439819 1142.640625,752.656311 1153.121582,762.790466 
	C1163.122192,772.460144 1169.521240,784.055237 1171.173706,798.400940 
	C1173.078369,814.935364 1168.331909,828.689331 1156.749878,840.749023 
z"/>
<path fill="#FFFFFF" opacity="1.000000" stroke="none" 
	d="
M1030.935547,285.007141 
	C1022.702209,290.852539 1013.667908,294.033234 1004.145935,294.870087 
	C984.652222,296.583405 967.851807,290.228546 954.402283,275.861755 
	C939.526978,259.971802 934.327515,233.900787 943.797302,213.404785 
	C952.329102,194.938782 965.995911,183.334488 985.686279,178.731018 
	C1005.028259,174.209015 1021.933289,179.390366 1036.639526,192.205597 
	C1050.763794,204.513580 1057.743652,220.360748 1056.839111,238.953033 
	C1056.010864,255.977356 1049.068970,270.490692 1035.336670,281.268463 
	C1033.905884,282.391449 1032.643677,283.729492 1030.935547,285.007141 
z"/>
<path fill="#FFFFFF" opacity="1.000000" stroke="none" 
	d="
M572.779175,1556.016602 
	C583.367493,1559.401367 592.478455,1564.455933 599.882751,1572.369629 
	C619.691711,1593.540649 621.883972,1625.243652 603.899475,1648.543579 
	C593.949585,1661.434204 580.810059,1668.476074 564.602783,1671.160522 
	C533.665955,1676.284546 502.417084,1650.919800 498.816589,1620.786743 
	C496.516357,1601.535889 502.215485,1585.178833 515.059082,1571.824829 
	C528.740723,1557.599365 546.057434,1551.307983 566.150879,1554.966064 
	C568.213867,1555.341675 570.288269,1555.654785 572.779175,1556.016602 
z"/>
<path fill="#FFFFFF" opacity="1.000000" stroke="none" 
	d="
M246.252426,733.250977 
	C256.398468,723.939148 267.769135,717.554932 281.181091,716.120422 
	C296.053131,714.529602 309.958282,717.973938 322.274841,726.790405 
	C349.598419,746.349304 355.611542,784.601868 334.416138,811.121765 
	C324.310394,823.766174 311.311401,831.020691 295.280731,833.033875 
	C273.168060,835.811035 255.786606,827.618408 241.914825,810.628357 
	C233.108505,799.842590 229.008667,787.305420 229.211472,773.798950 
	C229.411591,760.471191 233.828537,748.123230 242.728455,737.748596 
	C243.889114,736.395569 244.910843,734.923462 246.252426,733.250977 
z"/>
<path fill="#FFFFFF" opacity="1.000000" stroke="none" 
	d="
M1735.271729,725.711060 
	C1751.177734,734.549072 1761.304321,747.598877 1764.848877,764.922424 
	C1768.736938,783.926025 1764.617065,801.199829 1751.445679,816.171448 
	C1737.201294,832.363037 1719.067993,838.672546 1698.499390,835.720581 
	C1674.048096,832.211487 1654.829346,813.919983 1649.906616,789.260132 
	C1645.638062,767.876587 1651.829224,749.796082 1666.883179,734.858154 
	C1676.505615,725.309814 1688.522217,720.085449 1702.391235,718.856262 
	C1714.082642,717.820068 1724.712402,720.320618 1735.271729,725.711060 
z"/>
<path fill="#FFFFFF" opacity="1.000000" stroke="none" 
	d="
M1497.000000,1608.178833 
	C1498.359009,1623.074463 1495.594360,1636.445679 1487.132935,1648.517090 
	C1476.436035,1663.777466 1462.048828,1672.312866 1443.396729,1674.065186 
	C1424.431641,1675.846558 1408.511230,1669.311768 1395.711670,1656.002197 
	C1375.036133,1634.502441 1374.514771,1600.062500 1393.827148,1577.429565 
	C1415.083008,1552.519043 1452.880981,1550.306396 1476.210693,1570.547119 
	C1487.772339,1580.577881 1494.458496,1592.881226 1497.000000,1608.178833 
z"/>
</svg>