<svg version="1.1" id="Layer_1" xmlns="http://www.w3.org/2000/svg" xmlns:xlink="http://www.w3.org/1999/xlink" x="0px" y="0px"
	 width="100%" viewBox="0 0 2000 1449" enable-background="new 0 0 2000 1449" xml:space="preserve">
<path fill="#FFFFFF" opacity="1.000000" stroke="none" 
	d="
M997.000000,1450.000000 
	C665.093750,1450.000000 333.187439,1450.000000 1.000000,1450.000000 
	C1.000000,1295.970703 1.000000,1141.941284 1.468657,987.455933 
	C21.528788,987.000000 41.120258,987.000000 61.176292,987.000000 
	C61.176292,954.015625 61.176292,921.628418 61.176292,888.774170 
	C88.366974,888.774170 115.089752,888.774170 141.619720,888.774170 
	C141.619720,871.907471 141.619720,855.516235 141.619720,838.837219 
	C114.637497,838.837219 88.034592,838.837219 61.259506,838.837219 
	C61.259506,820.151550 61.259506,801.763062 61.259506,782.903198 
	C90.570351,782.903198 119.625244,782.903198 148.684738,782.903198 
	C148.684738,766.039307 148.684738,749.649658 148.684738,733.000000 
	C99.246628,733.000000 50.123314,733.000000 1.000000,733.000000 
	C1.000000,489.058167 1.000000,245.116318 1.000000,1.000000 
	C332.696014,1.000000 664.392090,1.000000 996.419189,1.345034 
	C993.145203,4.255702 988.385925,6.065084 986.126892,9.512720 
	C973.755554,28.393278 961.767639,47.538906 950.224182,66.936363 
	C947.931396,70.789139 945.258789,72.445305 941.565796,72.631233 
	C936.516174,72.885452 931.167419,75.092155 926.848328,69.532875 
	C921.603821,62.782509 915.632690,56.578789 909.773621,50.328190 
	C901.604004,41.612621 893.244202,33.075352 884.975220,24.452770 
	C884.291504,23.739798 883.608643,23.007492 883.045410,22.200392 
	C876.396545,12.672908 860.859009,11.332945 852.257690,19.106253 
	C846.280579,24.508028 844.692261,31.890915 842.016479,38.800068 
	C834.941711,57.067345 828.070068,75.413254 821.063843,93.707291 
	C820.733154,94.570839 820.033447,95.619377 819.249634,95.924606 
	C816.390015,97.038208 813.460999,98.031342 810.483582,98.768753 
	C807.408325,99.530396 804.693604,99.769989 801.587952,97.404442 
	C790.071960,88.632965 778.182129,80.351204 766.403076,71.926895 
	C759.521057,67.004921 752.813416,61.786377 745.619690,57.364475 
	C732.568115,49.341843 717.404053,55.447754 713.310852,69.957535 
	C710.411682,80.234604 709.667236,91.122711 708.007019,101.745247 
	C705.968872,114.785835 704.006775,127.838348 701.943970,140.875000 
	C701.539246,143.432968 688.645630,151.260681 686.160706,150.587891 
	C685.856201,150.505447 685.621277,150.194122 685.322632,150.057648 
	C672.628479,144.254791 659.966309,138.380112 647.221985,132.689484 
	C637.312378,128.264603 627.448303,123.671944 617.291199,119.885674 
	C607.125122,116.096077 593.719116,123.499031 592.208008,134.026962 
	C591.128540,141.547546 591.893616,149.349762 592.021362,157.023224 
	C592.281067,172.619827 592.634766,188.215134 593.031250,203.808899 
	C593.097107,206.396622 593.808411,208.978363 593.758484,211.553879 
	C593.735962,212.715881 592.809265,214.109009 591.887085,214.955002 
	C589.722595,216.940613 586.863953,218.311630 585.113831,220.572128 
	C582.761414,223.610565 579.857971,223.565628 576.952209,222.881607 
	C559.445801,218.760468 542.028931,214.250305 524.485962,210.296906 
	C517.201843,208.655396 509.703491,207.429535 502.260925,207.158646 
	C492.552582,206.805298 482.059326,220.100952 484.168335,229.399643 
	C489.045441,250.902924 493.445374,272.546997 499.360901,293.765411 
	C501.587280,301.751373 499.765198,306.531372 494.740082,312.071320 
	C491.972961,315.121948 489.536987,316.580841 485.648529,315.909027 
	C483.565552,315.549103 481.471558,315.128723 479.368683,315.029877 
	C470.776489,314.626038 462.180328,314.295349 453.583130,314.013397 
	C442.155853,313.638641 430.727875,313.145294 419.297180,313.044098 
	C401.941345,312.890442 391.814178,329.218262 399.375702,344.838318 
	C401.568939,349.368958 404.317291,353.773743 405.595612,358.560822 
	C406.690002,362.659149 408.728516,363.054993 412.194611,363.051239 
	C476.526337,362.981384 540.859009,362.850159 605.188721,363.223755 
	C611.876892,363.262604 615.615112,360.354858 619.381836,356.094116 
	C621.338318,353.881042 623.064880,351.442017 625.172058,349.389099 
	C631.699829,343.029388 638.211304,336.639069 645.004700,330.569092 
	C654.931641,321.699249 664.558777,312.357025 675.282959,304.546997 
	C693.397766,291.354553 712.008545,278.793365 730.886658,266.710114 
	C760.962769,247.459335 793.388733,232.930084 826.980347,220.979813 
	C851.142212,212.384232 875.763672,205.485107 901.005859,200.738281 
	C904.167114,200.143814 905.502075,200.909897 907.229431,202.724030 
	C914.203430,210.048584 921.168213,217.382202 928.180969,224.669571 
	C937.851318,234.718719 947.567200,244.724121 957.244263,254.766815 
	C957.916565,255.464462 958.347656,256.396667 959.028503,257.083374 
	C964.631958,262.735046 969.791382,268.964020 976.014404,273.829742 
	C983.853333,279.958923 993.120178,282.079102 1003.342041,281.180939 
	C1011.136658,280.496063 1018.201050,278.335693 1023.909851,273.403320 
	C1034.040405,264.650635 1043.678467,255.319000 1053.374878,246.074677 
	C1064.554077,235.416718 1075.547729,224.564362 1086.674805,213.851288 
	C1091.078979,209.611115 1095.557617,205.440933 1100.166382,201.427261 
	C1101.043823,200.663300 1102.803711,200.300888 1103.966797,200.570740 
	C1117.067505,203.610245 1130.160889,206.691986 1143.198486,209.990082 
	C1171.556641,217.163849 1199.038208,226.967834 1225.241211,239.883224 
	C1245.489502,249.863449 1265.611206,260.336487 1284.757080,272.249176 
	C1302.819092,283.487305 1319.728760,296.632080 1336.757935,309.452545 
	C1345.276855,315.866028 1353.107422,323.238129 1360.934204,330.515625 
	C1370.901367,339.783234 1380.881348,349.085785 1390.130493,359.046722 
	C1392.872559,361.999786 1395.077881,363.048920 1398.733643,363.045380 
	C1463.065430,362.982635 1527.397827,362.887054 1591.728271,363.184845 
	C1597.775757,363.212799 1600.666870,361.142670 1602.573975,355.995209 
	C1603.924316,352.349884 1605.538818,348.783203 1607.286743,345.307800 
	C1613.723022,332.510681 1607.763550,317.704681 1596.097412,314.872253 
	C1589.799561,313.343231 1582.916748,313.970490 1576.302979,314.051971 
	C1564.705200,314.194855 1553.109985,314.622589 1541.516479,315.015961 
	C1534.256470,315.262299 1526.958618,315.285095 1519.756836,316.104736 
	C1512.843018,316.891571 1511.870361,310.522827 1508.326538,307.392151 
	C1506.531860,305.806641 1504.904175,303.569550 1505.828857,299.893433 
	C1511.324097,278.049042 1516.495361,256.116974 1521.368530,234.124252 
	C1525.283813,216.454712 1513.623291,203.485275 1494.663086,207.347137 
	C1474.511108,211.451767 1454.586182,216.711884 1434.649536,221.809372 
	C1428.025269,223.503098 1423.278687,222.464371 1417.721924,217.824112 
	C1412.923096,213.816956 1412.860840,209.804062 1413.042480,204.957825 
	C1413.208618,200.523514 1413.836060,196.105255 1413.968994,191.671188 
	C1414.386475,177.744980 1414.658447,163.814468 1415.018921,149.886444 
	C1415.043945,148.917160 1415.302124,147.948639 1415.500732,146.989883 
	C1418.804688,131.049377 1406.506836,115.042557 1388.955811,120.047142 
	C1383.547119,121.589439 1378.371216,124.050514 1373.224243,126.389351 
	C1360.070923,132.366531 1346.971069,138.463318 1333.894531,144.607254 
	C1325.559448,148.523422 1317.278198,153.233170 1308.737061,145.248871 
	C1307.226196,143.836578 1305.506958,142.019455 1305.127075,140.138214 
	C1303.774048,133.438065 1303.044189,126.615143 1301.920288,119.865005 
	C1299.328247,104.294586 1296.387573,88.777687 1294.064941,73.168159 
	C1291.488525,55.853653 1273.887207,49.236061 1262.189697,56.691174 
	C1246.156250,66.909668 1231.133911,78.713547 1215.666382,89.821655 
	C1208.160645,95.212029 1201.420898,103.329575 1190.548706,97.002510 
	C1189.996704,96.681282 1189.234863,96.676292 1188.747925,96.296669 
	C1187.462646,95.294601 1185.649902,94.402977 1185.141846,93.054771 
	C1176.980225,71.399902 1169.041138,49.661331 1160.938843,27.983870 
	C1157.004272,17.457125 1145.675049,11.673453 1134.680542,14.911976 
	C1127.399658,17.056639 1123.313110,22.564976 1118.553589,27.780903 
	C1106.269043,41.243378 1093.533325,54.293900 1080.993164,67.523636 
	C1079.193359,69.422279 1077.479492,71.402176 1075.602905,73.480652 
	C1070.380005,72.983841 1064.862183,72.458969 1059.496826,71.948608 
	C1058.924194,70.844627 1058.530884,69.949425 1058.021851,69.125710 
	C1047.438354,51.997211 1036.870361,34.858952 1026.233032,17.763832 
	C1022.039429,11.024104 1017.968201,4.109866 1010.000000,1.000000 
	C1340.258911,1.000000 1670.517822,1.000000 2001.000000,1.000000 
	C2001.000000,279.696014 2001.000000,558.392090 2000.636475,837.426147 
	C1999.854980,837.083679 1999.194580,836.449646 1999.054321,835.716125 
	C1994.714111,813.006958 1980.975464,798.805542 1959.337524,791.740906 
	C1945.117310,787.098206 1930.510620,786.743713 1915.990234,789.186035 
	C1900.595703,791.775269 1886.856445,798.082031 1876.770020,810.708313 
	C1874.982056,812.946472 1873.059814,815.077393 1870.714722,817.826050 
	C1868.020874,809.466614 1865.366577,802.038086 1863.310547,794.447510 
	C1862.500610,791.457764 1861.090210,790.942444 1858.465942,790.964172 
	C1847.967529,791.051270 1837.468262,791.000061 1826.969238,791.000000 
	C1823.376953,791.000000 1819.784790,791.000000 1816.373169,791.000000 
	C1816.373169,856.740479 1816.373169,921.797180 1816.373169,986.767334 
	C1836.689209,986.767334 1856.631226,986.767334 1877.000000,986.767334 
	C1877.000000,983.089905 1876.913452,979.628174 1877.013306,976.171753 
	C1878.034180,940.830139 1874.250366,905.338013 1879.206177,870.156250 
	C1881.710571,852.376892 1886.785278,840.280579 1907.187012,836.248352 
	C1917.973633,834.116394 1932.360718,839.362000 1935.683472,848.775574 
	C1938.404663,856.484924 1940.647827,864.819946 1940.767456,872.912048 
	C1941.302368,909.067322 1941.000000,945.234863 1941.000000,981.398010 
	C1941.000000,983.166931 1941.000000,984.935791 1941.000000,987.000000 
	C1961.392212,987.000000 1981.196045,987.000000 2001.000000,987.000000 
	C2001.000000,1141.289551 2001.000000,1295.579224 2001.000000,1450.000000 
	C1670.970581,1450.000000 1340.941284,1450.000000 1010.579224,1449.656250 
	C1015.802917,1448.324585 1019.214905,1444.221436 1021.879211,1440.013062 
	C1032.991455,1422.460449 1043.595825,1404.586792 1054.655640,1387.000122 
	C1056.955322,1383.343384 1058.384644,1378.220215 1064.340576,1378.260376 
	C1068.193970,1378.286377 1073.192383,1376.401489 1075.672241,1378.175781 
	C1081.249512,1382.166504 1085.655029,1387.831055 1090.400757,1392.941040 
	C1102.319580,1405.774414 1113.607910,1419.254395 1126.203369,1431.379883 
	C1137.168945,1441.936157 1155.025024,1437.878540 1160.636963,1423.593628 
	C1169.098999,1402.053589 1176.850098,1380.234985 1185.100708,1358.610107 
	C1185.769775,1356.856323 1187.729614,1355.218262 1189.494751,1354.351074 
	C1191.923218,1353.158081 1194.838867,1352.993774 1197.361450,1351.945190 
	C1200.314087,1350.717773 1202.422241,1351.489136 1204.901611,1353.294189 
	C1223.848145,1367.087891 1242.583130,1381.212158 1262.056885,1394.226440 
	C1273.126221,1401.624146 1289.925903,1395.252197 1292.944824,1381.724243 
	C1294.324585,1375.541870 1295.022095,1369.208374 1296.060791,1362.948730 
	C1298.698853,1347.052368 1301.555542,1331.188477 1303.892456,1315.248291 
	C1304.696655,1309.762451 1306.657104,1305.918457 1312.021606,1303.953125 
	C1315.909180,1302.528931 1318.950439,1299.439209 1324.016602,1301.861572 
	C1344.224243,1311.524414 1364.661499,1320.709106 1385.045532,1330.000854 
	C1397.189087,1335.536377 1412.806030,1329.367554 1414.897827,1315.292480 
	C1415.650024,1310.229980 1415.080688,1304.958862 1414.986450,1299.785278 
	C1414.690186,1283.523315 1414.345093,1267.262207 1413.973145,1251.001831 
	C1413.947632,1249.880737 1413.275879,1248.745972 1413.366577,1247.656006 
	C1413.695068,1243.709717 1413.273071,1239.296875 1414.958252,1235.989868 
	C1416.428345,1233.105225 1420.222656,1231.255005 1423.257324,1229.380615 
	C1424.790771,1228.433350 1427.079224,1227.741333 1428.749390,1228.128540 
	C1450.682617,1233.213501 1472.569946,1238.496948 1494.461060,1243.763062 
	C1505.667725,1246.458618 1516.960327,1241.311646 1520.736572,1231.606323 
	C1523.857544,1223.584961 1521.255249,1215.769043 1519.478760,1208.008789 
	C1514.993042,1188.412842 1510.322388,1168.859131 1505.737549,1149.285767 
	C1505.569824,1148.569702 1505.161621,1147.536743 1505.478149,1147.137817 
	C1508.631592,1143.164551 1511.440308,1138.674683 1515.369385,1135.667969 
	C1517.200317,1134.266724 1521.273071,1135.803223 1524.330811,1135.990723 
	C1524.994995,1136.031372 1525.664429,1135.978271 1526.330200,1136.003174 
	C1535.092041,1136.331299 1543.852539,1136.705688 1552.615967,1136.988525 
	C1564.209473,1137.362671 1575.808472,1137.581543 1587.399414,1138.020508 
	C1603.592041,1138.633545 1614.217407,1122.503540 1608.293457,1108.716309 
	C1605.990967,1103.357544 1603.418091,1098.104248 1601.359497,1092.655273 
	C1599.986328,1089.020508 1597.960449,1087.895996 1594.022949,1087.900269 
	C1480.031006,1088.023682 1366.038818,1088.025513 1252.046875,1087.889282 
	C1248.223511,1087.884766 1245.609009,1089.127808 1243.640015,1091.932251 
	C1238.390747,1099.409180 1235.529541,1107.730713 1234.954834,1116.907227 
	C1234.493408,1124.274780 1233.739502,1131.629517 1232.919678,1138.968018 
	C1231.703857,1149.854614 1230.255493,1160.715088 1229.018066,1171.599487 
	C1227.926392,1181.201416 1227.048096,1190.828003 1225.887817,1200.421021 
	C1225.774048,1201.362305 1224.501221,1202.555542 1223.500732,1202.939331 
	C1202.047852,1211.169312 1180.746216,1219.856079 1159.006592,1227.253540 
	C1144.636108,1232.143433 1129.752319,1235.763428 1114.868774,1238.842651 
	C1098.461060,1242.237305 1081.843872,1244.776001 1065.218872,1246.917847 
	C1050.416748,1248.824829 1035.501465,1250.342163 1020.596069,1250.848389 
	C996.945984,1251.651489 973.282349,1251.003784 949.749390,1248.005493 
	C936.457703,1246.312012 923.014282,1245.380127 909.909241,1242.756226 
	C892.131348,1239.196655 874.590759,1234.430542 856.987183,1230.026733 
	C831.275391,1223.594482 806.916199,1213.399414 782.722290,1202.817017 
	C781.079529,1202.098389 779.579834,1199.754395 779.108215,1197.889526 
	C777.398865,1191.129272 776.127380,1184.256958 774.743103,1177.416260 
	C770.813721,1157.998535 767.058777,1138.543945 762.930542,1119.168701 
	C761.013000,1110.169067 758.343567,1101.331055 756.108093,1092.396606 
	C755.164124,1088.623901 752.777893,1087.917480 749.177551,1087.926392 
	C704.320801,1088.038818 659.463684,1088.000000 614.606628,1088.000000 
	C568.443176,1088.000000 522.279663,1088.000000 476.116211,1088.000000 
	C454.451050,1088.000000 432.785553,1087.953857 411.121277,1088.094849 
	C409.529999,1088.105225 407.124237,1089.049194 406.501312,1090.273438 
	C403.567474,1096.039551 401.060028,1102.027954 398.517578,1107.986938 
	C392.406708,1122.309570 402.746094,1137.991211 418.368286,1137.950073 
	C423.297668,1137.937012 428.221008,1137.158936 433.154877,1137.032104 
	C449.413940,1136.613647 465.676575,1136.333008 481.937836,1136.000000 
	C482.437592,1135.989746 483.027588,1136.158813 483.423859,1135.952759 
	C489.941467,1132.563477 493.745087,1136.728394 496.525208,1141.388306 
	C498.173340,1144.150757 502.328217,1145.447876 501.106262,1150.242676 
	C496.625275,1167.824951 492.554504,1185.512573 488.419373,1203.181641 
	C486.830566,1209.970459 483.772736,1216.967529 484.361664,1223.605591 
	C485.847656,1240.355591 497.169525,1246.739258 512.264771,1243.640503 
	C533.833618,1239.212646 555.104736,1233.342285 576.538147,1228.235474 
	C578.539795,1227.758545 581.160461,1227.662842 582.845276,1228.580688 
	C585.522949,1230.039062 587.491028,1232.744141 590.063354,1234.468384 
	C592.555298,1236.138916 593.204773,1238.095215 593.061707,1240.972900 
	C592.568420,1250.893311 592.290222,1260.825439 592.011597,1270.755249 
	C591.634949,1284.182251 591.382446,1297.612793 590.986206,1311.039062 
	C590.592224,1324.390259 604.605103,1335.698120 618.530701,1330.937988 
	C623.729492,1329.160889 628.779541,1326.901001 633.785461,1324.616211 
	C650.914612,1316.798218 667.991028,1308.864624 685.101501,1301.005737 
	C685.914185,1300.632324 687.086792,1300.094727 687.707703,1300.404175 
	C692.067566,1302.576782 696.884705,1304.332886 700.400574,1307.503174 
	C702.393250,1309.299927 702.261841,1313.508423 702.958862,1316.659058 
	C703.240601,1317.932495 703.078491,1319.298340 703.291321,1320.593750 
	C705.507324,1334.086670 707.771179,1347.571655 709.994995,1361.063354 
	C711.134583,1367.977051 711.224426,1375.253418 713.530579,1381.747192 
	C718.913879,1396.905518 734.162903,1401.923218 747.979797,1392.354004 
	C763.236633,1381.787354 778.180481,1370.743042 792.902222,1359.439941 
	C800.907471,1353.293701 808.674194,1348.937378 818.504639,1355.015503 
	C819.526855,1355.647583 820.749512,1356.493652 821.144531,1357.522461 
	C829.151672,1378.375977 837.239380,1399.202026 844.904602,1420.182007 
	C849.762207,1433.477295 861.492065,1440.625366 873.034302,1435.744019 
	C877.434692,1433.883057 881.221680,1430.125732 884.716064,1426.656372 
	C893.309387,1418.124390 901.593628,1409.279907 909.956848,1400.517822 
	C915.098999,1395.130249 921.132263,1390.271851 925.003235,1384.075073 
	C929.651123,1376.634399 935.577454,1377.350952 942.185974,1378.693359 
	C944.440918,1379.151245 947.524170,1379.774536 948.549744,1381.389038 
	C959.428284,1398.515259 970.127808,1415.761353 980.522888,1433.185303 
	C984.719177,1440.219116 988.791626,1447.046509 997.000000,1450.000000 
M709.041138,597.280151 
	C712.622131,603.279541 716.181458,609.291992 719.787903,615.276062 
	C733.947083,638.770508 748.185730,662.217651 762.197388,685.799683 
	C763.728943,688.377441 765.312073,689.060120 768.051880,689.048157 
	C788.382385,688.959290 808.713440,689.000000 829.044312,689.000000 
	C830.285400,689.000000 831.526489,689.000000 833.611572,689.000000 
	C808.573608,651.760193 784.080750,615.331177 759.582520,578.894226 
	C762.015137,577.344299 763.780273,576.184570 765.578918,575.079407 
	C778.489807,567.146301 789.911194,557.507324 796.913635,543.871277 
	C806.888245,524.447693 806.384155,503.946411 800.112854,483.717621 
	C793.564270,462.594818 777.866516,450.166138 757.569519,443.024231 
	C741.854858,437.494720 725.475403,435.376007 708.969543,435.114594 
	C682.146240,434.689697 655.311218,435.000000 628.481140,435.000000 
	C626.723938,435.000000 624.966675,435.000000 623.364990,435.000000 
	C623.364990,520.062744 623.364990,604.449890 623.364990,688.776123 
	C644.005615,688.776123 664.280579,688.776123 685.034790,688.776123 
	C685.034790,657.161987 685.034790,625.767517 685.034790,594.002319 
	C691.972595,594.002319 698.441589,593.861389 704.895020,594.115784 
	C706.260925,594.169495 707.569946,595.668396 709.041138,597.280151 
M926.654907,790.005737 
	C909.623047,794.029114 897.287415,804.524353 887.788208,818.664795 
	C875.321655,837.222473 872.015747,858.564636 871.282898,880.115540 
	C870.793640,894.503967 872.181641,909.099670 874.202271,923.394470 
	C876.846802,942.102722 883.894104,959.010010 897.964111,972.604614 
	C916.655457,990.664612 938.735046,993.367432 962.742920,988.013794 
	C976.642639,984.914185 986.862549,976.323914 994.696289,964.750977 
	C997.200012,961.052063 998.438416,961.249451 1000.177063,965.371216 
	C1002.827881,971.655029 1006.175232,977.642700 1008.906433,983.896118 
	C1010.014282,986.432617 1011.410156,987.118164 1014.063843,987.068237 
	C1023.390320,986.892517 1032.722168,987.000000 1042.051880,987.000000 
	C1046.974487,987.000000 1051.897217,987.000000 1056.650635,987.000000 
	C1056.650635,896.601318 1056.650635,806.897888 1056.650635,717.379395 
	C1036.242554,717.379395 1016.185425,717.379395 996.000366,717.379395 
	C996.000366,741.411682 995.992798,765.064758 996.023499,788.717834 
	C996.024963,789.845642 996.417908,790.967407 996.537659,792.101624 
	C997.356934,799.864563 998.151794,807.630188 998.982971,815.668945 
	C977.059082,785.874695 951.003723,785.320190 926.654907,790.005737 
M562.519714,987.000000 
	C573.609253,987.000000 584.698792,987.000000 595.647400,987.000000 
	C595.647400,921.282593 595.647400,856.234985 595.647400,791.384644 
	C575.234497,791.384644 555.176025,791.384644 535.000000,791.384644 
	C535.000000,823.423340 535.216797,855.080017 534.861572,886.730286 
	C534.761230,895.674927 533.832581,904.797363 531.808838,913.495056 
	C527.383301,932.514709 518.128662,942.784241 496.464691,941.872009 
	C487.994965,941.515320 481.001801,937.944519 476.809753,929.590698 
	C472.407196,920.817322 471.253082,911.426208 471.152161,902.076538 
	C470.772675,866.924316 471.000000,831.765503 471.000000,796.609192 
	C471.000000,794.839844 471.000000,793.070496 471.000000,791.323975 
	C450.357239,791.323975 430.300110,791.323975 410.000000,791.323975 
	C410.000000,793.456909 410.000000,795.271667 410.000000,797.086487 
	C410.000000,832.576050 409.731171,868.068665 410.137573,903.553589 
	C410.291595,917.001648 411.156799,930.564392 413.236725,943.833618 
	C415.389038,957.564880 422.830505,968.648621 434.265045,977.120789 
	C451.863922,990.160217 472.011871,991.975464 492.490234,989.713013 
	C510.972595,987.671021 527.425659,980.129822 538.380737,963.969299 
	C540.884888,960.275330 541.874573,962.203857 542.757568,964.558594 
	C544.061279,968.035339 545.127075,971.627441 545.970154,975.245911 
	C548.705872,986.986755 548.648987,987.000000 560.530579,987.000000 
	C560.863831,987.000000 561.197021,987.000000 562.519714,987.000000 
M661.503418,987.000000 
	C676.593140,987.000000 691.682800,987.000000 707.000000,987.000000 
	C707.000000,960.034119 707.088074,933.724487 706.963867,907.415955 
	C706.899170,893.716125 707.071350,880.071594 709.983704,866.595703 
	C713.534180,850.167175 719.059875,839.343018 737.499878,836.343689 
	C748.631714,834.533203 760.577271,836.868469 766.128662,849.855896 
	C768.813110,856.136108 770.708557,863.280334 770.789185,870.059143 
	C771.231262,907.212463 771.000000,944.373840 771.000000,981.532410 
	C771.000000,983.288208 771.000000,985.044006 771.000000,986.624207 
	C791.745422,986.624207 811.804749,986.624207 832.000000,986.624207 
	C832.000000,944.429932 832.174316,902.609985 831.862915,860.793701 
	C831.795044,851.684387 830.675537,842.445557 828.820129,833.519958 
	C826.175720,820.798889 820.086548,809.732361 809.299316,801.830078 
	C799.405151,794.582214 788.401306,790.382507 776.137573,788.888428 
	C763.752869,787.379639 751.632446,787.630188 739.529419,790.799072 
	C723.773254,794.924500 711.133240,803.393372 701.366150,818.265991 
	C698.083557,808.526672 695.145081,799.808411 692.268066,791.272339 
	C676.874695,791.272339 661.609619,791.272339 646.295654,791.272339 
	C646.295654,856.596008 646.295654,921.646851 646.295654,987.000000 
	C651.227051,987.000000 655.866028,987.000000 661.503418,987.000000 
M988.923767,671.634460 
	C989.633789,674.130371 990.266113,676.651428 991.067322,679.117676 
	C994.279846,689.006287 994.299194,689.000000 1004.862122,689.000000 
	C1016.797607,689.000000 1028.733154,689.000000 1040.712402,689.000000 
	C1040.712402,623.736145 1040.712402,559.027161 1040.712402,494.317352 
	C1020.367493,494.317352 1000.311890,494.317352 980.000000,494.317352 
	C980.000000,499.276215 980.096008,503.922272 979.984619,508.563354 
	C979.196533,541.401062 982.259277,574.355225 977.772278,607.052673 
	C976.628967,615.384216 973.578613,623.779236 969.806519,631.348694 
	C964.153870,642.691589 948.727356,645.647522 937.039368,643.517090 
	C929.109070,642.071655 923.153442,637.652344 920.623535,629.973511 
	C918.510681,623.560364 916.278625,616.798401 916.202515,610.166809 
	C915.780090,573.353210 916.000000,536.532227 916.000000,499.713776 
	C916.000000,497.934570 916.000000,496.155334 916.000000,494.284393 
	C895.434204,494.284393 875.379028,494.284393 855.000000,494.284393 
	C855.000000,496.362854 855.000000,498.168396 855.000000,499.973938 
	C855.000000,534.126770 854.817200,568.281128 855.091370,602.431763 
	C855.198547,615.782349 855.433228,629.244568 857.192993,642.444824 
	C860.459778,666.948975 875.843872,681.945312 897.787781,688.892151 
	C912.161255,693.442200 926.975830,694.121460 941.854126,691.002930 
	C957.376343,687.749451 971.442749,682.024841 981.072998,668.481262 
	C982.371155,666.655579 984.124390,665.153442 986.285767,662.838684 
	C987.219177,666.334595 987.836304,668.646057 988.923767,671.634460 
M1159.828491,790.061707 
	C1159.071289,790.367371 1158.338013,790.841675 1157.553223,790.953796 
	C1143.778320,792.920959 1130.884033,797.644470 1118.252441,803.274109 
	C1115.202637,804.633301 1114.468628,806.104370 1115.979492,809.319641 
	C1121.688110,821.468262 1127.120605,833.746704 1132.778809,846.246887 
	C1135.749878,845.096191 1138.616699,844.024597 1141.454346,842.880493 
	C1157.422241,836.442078 1173.628418,830.977600 1191.196045,832.042969 
	C1199.971069,832.575073 1209.331055,836.592102 1212.522949,846.239746 
	C1214.224609,851.383179 1214.410889,857.028137 1215.313843,862.650330 
	C1212.301392,863.173096 1209.930542,863.850952 1207.535034,863.953918 
	C1197.279297,864.394775 1187.018555,864.795532 1176.755493,864.969849 
	C1160.612549,865.244141 1144.868530,867.955566 1130.028320,874.168091 
	C1113.999634,880.878052 1101.938843,891.632324 1097.661011,909.575684 
	C1094.837402,921.418640 1095.079712,933.136047 1096.992310,944.976562 
	C1099.281006,959.145874 1105.888062,970.526306 1117.526978,979.302429 
	C1129.260864,988.150208 1142.872314,989.920410 1156.675049,990.791382 
	C1162.953857,991.187561 1169.365112,989.747498 1175.697021,988.981140 
	C1186.960327,987.617981 1197.074097,983.377258 1205.550049,975.833435 
	C1210.770996,971.186829 1215.468994,965.952576 1220.839478,960.540955 
	C1224.413696,968.704712 1227.809082,976.217041 1230.968628,983.827332 
	C1231.896240,986.061829 1232.916748,987.153564 1235.530640,987.065979 
	C1241.689331,986.859619 1247.859619,987.000000 1254.025146,987.000000 
	C1260.950562,987.000061 1267.875977,987.000000 1275.000000,987.000000 
	C1275.000000,984.506165 1275.000000,982.688660 1275.000000,980.871155 
	C1275.000000,944.044312 1275.065308,907.217346 1274.954224,870.390808 
	C1274.926270,861.133606 1274.911377,851.811768 1273.860229,842.637695 
	C1272.383423,829.750732 1267.400146,818.039490 1258.132080,808.737610 
	C1244.170410,794.724670 1226.358154,788.948303 1207.254028,788.250427 
	C1191.782837,787.685364 1176.230713,789.338562 1159.828491,790.061707 
M371.000000,890.488770 
	C370.335144,881.644348 370.255859,872.708435 368.891357,863.973328 
	C365.344879,841.270142 355.308838,822.005920 337.021942,807.525696 
	C321.014282,794.850281 302.505859,788.996033 282.366272,788.061462 
	C270.515503,787.511536 258.734406,788.193481 247.062347,790.926453 
	C226.590469,795.719727 209.483963,805.715210 197.087006,822.843750 
	C184.429886,840.331726 179.684433,860.596741 179.228012,881.692749 
	C178.966827,893.765320 179.971832,906.079834 182.200333,917.948669 
	C187.379868,945.534241 201.906448,967.006653 227.348679,979.981323 
	C243.584473,988.261108 260.977448,990.978455 279.239716,990.185181 
	C292.108948,989.626282 304.475067,987.875305 316.519501,983.220276 
	C336.364746,975.550232 350.923187,962.108459 360.231354,943.199890 
	C368.219208,926.973389 371.018768,909.472656 371.000000,890.488770 
M1756.536743,956.953735 
	C1757.706909,955.201050 1758.881958,953.451721 1760.046387,951.695251 
	C1771.638306,934.209656 1775.305298,914.324585 1775.705811,894.024658 
	C1775.955444,881.362061 1774.453857,868.400085 1771.767334,855.999390 
	C1766.078857,829.743042 1750.852539,810.048706 1726.653320,798.032654 
	C1707.353027,788.449158 1686.788574,786.472778 1665.448608,788.833191 
	C1650.813354,790.451904 1637.059204,794.016846 1624.546265,801.849670 
	C1609.372070,811.348145 1598.419556,824.340881 1591.922729,841.110718 
	C1583.781006,862.126587 1582.726807,883.802124 1584.904663,905.966675 
	C1586.358276,920.761108 1590.275146,934.590393 1597.791748,947.445618 
	C1605.677124,960.931091 1616.297485,971.557129 1630.035522,978.994202 
	C1651.606079,990.671326 1674.688843,992.090759 1698.455078,989.041504 
	C1721.803589,986.045959 1741.239624,976.029663 1756.536743,956.953735 
M1104.052124,640.555786 
	C1096.503418,637.763062 1088.954712,634.970276 1081.002563,632.028259 
	C1081.002563,647.778076 1080.913696,663.242126 1081.154663,678.700989 
	C1081.176270,680.086548 1083.072266,682.154419 1084.542725,682.694580 
	C1097.866089,687.589661 1111.606812,691.086365 1125.784912,691.872559 
	C1137.104980,692.500305 1148.489136,691.873291 1159.841553,692.034546 
	C1172.611206,692.216003 1184.903320,689.675964 1196.575195,684.879578 
	C1210.873657,679.003906 1221.552856,669.027588 1227.281250,654.318909 
	C1231.900269,642.458862 1232.789429,630.187500 1230.956421,617.706604 
	C1229.215210,605.851807 1224.193604,595.370117 1214.994995,587.720703 
	C1203.648071,578.284851 1189.878784,572.932678 1176.525513,566.945312 
	C1166.028198,562.238647 1155.763916,557.013794 1145.369751,552.074402 
	C1140.553467,549.785583 1139.167969,545.682617 1140.158936,541.001465 
	C1141.129150,536.419434 1145.423096,535.072021 1149.338257,534.083496 
	C1159.002686,531.643127 1168.684692,533.083008 1177.984619,535.645447 
	C1188.714722,538.602051 1199.172729,542.582642 1209.655151,546.377136 
	C1212.173462,547.288696 1213.199707,546.840637 1214.164551,544.506531 
	C1219.404541,531.830261 1224.745850,519.195862 1230.107666,506.415161 
	C1229.199097,505.837769 1228.563477,505.315277 1227.839111,504.990784 
	C1209.451172,496.752441 1190.271362,491.221191 1170.137695,490.120117 
	C1150.715454,489.058014 1131.406494,490.342468 1113.146606,498.060547 
	C1101.759888,502.873505 1092.281738,509.893707 1086.264404,521.196838 
	C1080.310303,532.380859 1080.139404,544.400574 1081.235352,556.295715 
	C1082.212280,566.897034 1086.231934,576.639221 1094.025635,584.657959 
	C1105.395386,596.355957 1119.905396,602.524963 1134.338135,609.029846 
	C1144.972046,613.822510 1155.557861,618.755981 1165.921143,624.099915 
	C1170.829712,626.631042 1174.044067,630.903931 1172.983643,637.044556 
	C1172.031738,642.557007 1167.813354,644.564270 1163.119751,646.034241 
	C1152.443115,649.377869 1141.675415,648.350464 1130.973511,646.433533 
	C1122.197754,644.861511 1113.511597,642.789917 1104.052124,640.555786 
M1332.000000,899.500000 
	C1332.666260,914.846252 1332.411377,930.302734 1334.229736,945.511230 
	C1336.557007,964.976257 1346.687866,979.310608 1366.010742,986.088379 
	C1377.441895,990.098083 1389.142700,990.142639 1401.063599,990.170349 
	C1417.194824,990.207764 1432.219849,986.311829 1446.794678,980.557617 
	C1446.794678,965.525085 1446.794678,950.896240 1446.794678,935.741638 
	C1444.954224,936.201904 1443.447998,936.685425 1441.904297,936.947205 
	C1431.812134,938.658203 1421.755371,941.276245 1411.602295,941.739380 
	C1400.800293,942.232178 1393.085571,935.362793 1393.034546,923.017334 
	C1392.922974,896.027893 1392.996460,869.037659 1393.009155,842.047791 
	C1393.009888,840.446289 1393.141479,838.844849 1393.232300,836.788452 
	C1410.351196,836.788452 1427.079712,836.788452 1443.622559,836.788452 
	C1443.622559,821.248230 1443.622559,806.189270 1443.622559,790.837402 
	C1426.639038,790.837402 1410.031616,790.837402 1392.949341,790.837402 
	C1392.949341,777.480286 1392.949341,764.416260 1392.949341,751.001770 
	C1380.178833,751.001770 1367.883545,750.914917 1355.593750,751.138611 
	C1354.388672,751.160522 1352.648804,752.861938 1352.120728,754.172119 
	C1347.461670,765.730530 1343.111084,777.413330 1338.426147,788.960815 
	C1337.650879,790.871521 1335.972534,792.714478 1334.237183,793.886169 
	C1326.032227,799.426392 1317.634888,804.680786 1309.386475,810.157959 
	C1308.348511,810.847229 1307.134399,812.234863 1307.106812,813.326782 
	C1306.910889,821.095520 1307.002319,828.871460 1307.002319,837.119629 
	C1315.589111,837.119629 1323.658203,837.119629 1332.000000,837.119629 
	C1332.000000,857.900330 1332.000000,878.200134 1332.000000,899.500000 
M1340.024658,633.153748 
	C1339.349731,629.496521 1338.113403,625.842896 1338.089844,622.181519 
	C1337.921265,596.026978 1338.000000,569.870911 1338.000000,543.715332 
	C1338.000000,542.269653 1338.000000,540.823975 1338.000000,538.907959 
	C1355.563110,538.907959 1372.624146,538.907959 1389.683594,538.907959 
	C1389.683594,523.704407 1389.683594,508.980652 1389.683594,493.783600 
	C1372.310181,493.783600 1355.249268,493.783600 1337.720703,493.783600 
	C1337.720703,479.912994 1337.720703,466.515717 1337.720703,453.144409 
	C1324.598389,453.144409 1311.955811,453.144409 1299.187378,453.144409 
	C1295.104980,463.298462 1291.104004,473.392883 1286.983765,483.438263 
	C1284.864136,488.605988 1283.713379,494.235138 1278.137939,497.478119 
	C1270.425659,501.963928 1263.017578,506.975647 1255.529419,511.839630 
	C1254.540649,512.481873 1253.148804,513.563843 1253.127808,514.469666 
	C1252.940186,522.560425 1253.018433,530.657410 1253.018433,539.218933 
	C1261.691895,539.218933 1269.760864,539.218933 1278.000000,539.218933 
	C1278.000000,567.342712 1277.834839,594.986633 1278.091797,622.626709 
	C1278.178833,631.976013 1278.571411,641.449402 1280.183960,650.627319 
	C1282.479370,663.693298 1288.714355,674.835388 1300.040039,682.574524 
	C1311.711426,690.549866 1325.160522,692.304260 1338.667969,692.811523 
	C1347.479614,693.142456 1356.490723,692.381897 1365.172485,690.796082 
	C1374.307129,689.127502 1383.156006,685.893738 1391.656250,683.478455 
	C1391.656250,667.592468 1391.656250,652.873657 1391.656250,637.604980 
	C1380.384766,641.521423 1369.427856,644.586609 1357.789185,644.035156 
	C1350.129761,643.672241 1344.014648,640.962646 1340.024658,633.153748 
M1483.000000,915.500000 
	C1483.000000,939.243347 1483.000000,962.986694 1483.000000,986.670044 
	C1503.337280,986.670044 1523.053589,986.670044 1542.690552,986.670044 
	C1542.690552,921.317810 1542.690552,856.296021 1542.690552,791.329834 
	C1522.662964,791.329834 1502.946655,791.329834 1483.000000,791.329834 
	C1483.000000,832.606140 1483.000000,873.553101 1483.000000,915.500000 
M1489.749756,720.042297 
	C1483.176392,724.771729 1480.718872,731.365234 1480.985718,739.232971 
	C1481.075806,741.890442 1481.151611,744.563904 1480.971558,747.212158 
	C1480.430054,755.172546 1486.641968,763.993530 1495.140991,767.251648 
	C1504.160889,770.709473 1513.365234,770.723755 1522.350098,769.711609 
	C1532.451294,768.573608 1541.426758,764.293213 1544.584229,752.968140 
	C1546.857056,744.816284 1546.393188,736.725647 1543.761963,728.911255 
	C1542.755859,725.923279 1540.333374,722.733276 1537.661255,721.097351 
	C1522.278442,711.679871 1506.434326,711.513794 1489.749756,720.042297 
z"/>
<path fill="#D44516" opacity="1.000000" stroke="none" 
	d="
M997.463196,1450.000000 
	C988.791626,1447.046509 984.719177,1440.219116 980.522888,1433.185303 
	C970.127808,1415.761353 959.428284,1398.515259 948.549744,1381.389038 
	C947.524170,1379.774536 944.440918,1379.151245 942.185974,1378.693359 
	C935.577454,1377.350952 929.651123,1376.634399 925.003235,1384.075073 
	C921.132263,1390.271851 915.098999,1395.130249 909.956848,1400.517822 
	C901.593628,1409.279907 893.309387,1418.124390 884.716064,1426.656372 
	C881.221680,1430.125732 877.434692,1433.883057 873.034302,1435.744019 
	C861.492065,1440.625366 849.762207,1433.477295 844.904602,1420.182007 
	C837.239380,1399.202026 829.151672,1378.375977 821.144531,1357.522461 
	C820.749512,1356.493652 819.526855,1355.647583 818.504639,1355.015503 
	C808.674194,1348.937378 800.907471,1353.293701 792.902222,1359.439941 
	C778.180481,1370.743042 763.236633,1381.787354 747.979797,1392.354004 
	C734.162903,1401.923218 718.913879,1396.905518 713.530579,1381.747192 
	C711.224426,1375.253418 711.134583,1367.977051 709.994995,1361.063354 
	C707.771179,1347.571655 705.507324,1334.086670 703.291321,1320.593750 
	C703.078491,1319.298340 703.240601,1317.932495 702.958862,1316.659058 
	C702.261841,1313.508423 702.393250,1309.299927 700.400574,1307.503174 
	C696.884705,1304.332886 692.067566,1302.576782 687.707703,1300.404175 
	C687.086792,1300.094727 685.914185,1300.632324 685.101501,1301.005737 
	C667.991028,1308.864624 650.914612,1316.798218 633.785461,1324.616211 
	C628.779541,1326.901001 623.729492,1329.160889 618.530701,1330.937988 
	C604.605103,1335.698120 590.592224,1324.390259 590.986206,1311.039062 
	C591.382446,1297.612793 591.634949,1284.182251 592.011597,1270.755249 
	C592.290222,1260.825439 592.568420,1250.893311 593.061707,1240.972900 
	C593.204773,1238.095215 592.555298,1236.138916 590.063354,1234.468384 
	C587.491028,1232.744141 585.522949,1230.039062 582.845276,1228.580688 
	C581.160461,1227.662842 578.539795,1227.758545 576.538147,1228.235474 
	C555.104736,1233.342285 533.833618,1239.212646 512.264771,1243.640503 
	C497.169525,1246.739258 485.847656,1240.355591 484.361664,1223.605591 
	C483.772736,1216.967529 486.830566,1209.970459 488.419373,1203.181641 
	C492.554504,1185.512573 496.625275,1167.824951 501.106262,1150.242676 
	C502.328217,1145.447876 498.173340,1144.150757 496.525208,1141.388306 
	C493.745087,1136.728394 489.941467,1132.563477 483.423859,1135.952759 
	C483.027588,1136.158813 482.437592,1135.989746 481.937836,1136.000000 
	C465.676575,1136.333008 449.413940,1136.613647 433.154877,1137.032104 
	C428.221008,1137.158936 423.297668,1137.937012 418.368286,1137.950073 
	C402.746094,1137.991211 392.406708,1122.309570 398.517578,1107.986938 
	C401.060028,1102.027954 403.567474,1096.039551 406.501312,1090.273438 
	C407.124237,1089.049194 409.529999,1088.105225 411.121277,1088.094849 
	C432.785553,1087.953857 454.451050,1088.000000 476.116211,1088.000000 
	C522.279663,1088.000000 568.443176,1088.000000 614.606628,1088.000000 
	C659.463684,1088.000000 704.320801,1088.038818 749.177551,1087.926392 
	C752.777893,1087.917480 755.164124,1088.623901 756.108093,1092.396606 
	C758.343567,1101.331055 761.013000,1110.169067 762.930542,1119.168701 
	C767.058777,1138.543945 770.813721,1157.998535 774.743103,1177.416260 
	C776.127380,1184.256958 777.398865,1191.129272 779.108215,1197.889526 
	C779.579834,1199.754395 781.079529,1202.098389 782.722290,1202.817017 
	C806.916199,1213.399414 831.275391,1223.594482 856.987183,1230.026733 
	C874.590759,1234.430542 892.131348,1239.196655 909.909241,1242.756226 
	C923.014282,1245.380127 936.457703,1246.312012 949.749390,1248.005493 
	C973.282349,1251.003784 996.945984,1251.651489 1020.596069,1250.848389 
	C1035.501465,1250.342163 1050.416748,1248.824829 1065.218872,1246.917847 
	C1081.843872,1244.776001 1098.461060,1242.237305 1114.868774,1238.842651 
	C1129.752319,1235.763428 1144.636108,1232.143433 1159.006592,1227.253540 
	C1180.746216,1219.856079 1202.047852,1211.169312 1223.500732,1202.939331 
	C1224.501221,1202.555542 1225.774048,1201.362305 1225.887817,1200.421021 
	C1227.048096,1190.828003 1227.926392,1181.201416 1229.018066,1171.599487 
	C1230.255493,1160.715088 1231.703857,1149.854614 1232.919678,1138.968018 
	C1233.739502,1131.629517 1234.493408,1124.274780 1234.954834,1116.907227 
	C1235.529541,1107.730713 1238.390747,1099.409180 1243.640015,1091.932251 
	C1245.609009,1089.127808 1248.223511,1087.884766 1252.046875,1087.889282 
	C1366.038818,1088.025513 1480.031006,1088.023682 1594.022949,1087.900269 
	C1597.960449,1087.895996 1599.986328,1089.020508 1601.359497,1092.655273 
	C1603.418091,1098.104248 1605.990967,1103.357544 1608.293457,1108.716309 
	C1614.217407,1122.503540 1603.592041,1138.633545 1587.399414,1138.020508 
	C1575.808472,1137.581543 1564.209473,1137.362671 1552.615967,1136.988525 
	C1543.852539,1136.705688 1535.092041,1136.331299 1526.330200,1136.003174 
	C1525.664429,1135.978271 1524.994995,1136.031372 1524.330811,1135.990723 
	C1521.273071,1135.803223 1517.200317,1134.266724 1515.369385,1135.667969 
	C1511.440308,1138.674683 1508.631592,1143.164551 1505.478149,1147.137817 
	C1505.161621,1147.536743 1505.569824,1148.569702 1505.737549,1149.285767 
	C1510.322388,1168.859131 1514.993042,1188.412842 1519.478760,1208.008789 
	C1521.255249,1215.769043 1523.857544,1223.584961 1520.736572,1231.606323 
	C1516.960327,1241.311646 1505.667725,1246.458618 1494.461060,1243.763062 
	C1472.569946,1238.496948 1450.682617,1233.213501 1428.749390,1228.128540 
	C1427.079224,1227.741333 1424.790771,1228.433350 1423.257324,1229.380615 
	C1420.222656,1231.255005 1416.428345,1233.105225 1414.958252,1235.989868 
	C1413.273071,1239.296875 1413.695068,1243.709717 1413.366577,1247.656006 
	C1413.275879,1248.745972 1413.947632,1249.880737 1413.973145,1251.001831 
	C1414.345093,1267.262207 1414.690186,1283.523315 1414.986450,1299.785278 
	C1415.080688,1304.958862 1415.650024,1310.229980 1414.897827,1315.292480 
	C1412.806030,1329.367554 1397.189087,1335.536377 1385.045532,1330.000854 
	C1364.661499,1320.709106 1344.224243,1311.524414 1324.016602,1301.861572 
	C1318.950439,1299.439209 1315.909180,1302.528931 1312.021606,1303.953125 
	C1306.657104,1305.918457 1304.696655,1309.762451 1303.892456,1315.248291 
	C1301.555542,1331.188477 1298.698853,1347.052368 1296.060791,1362.948730 
	C1295.022095,1369.208374 1294.324585,1375.541870 1292.944824,1381.724243 
	C1289.925903,1395.252197 1273.126221,1401.624146 1262.056885,1394.226440 
	C1242.583130,1381.212158 1223.848145,1367.087891 1204.901611,1353.294189 
	C1202.422241,1351.489136 1200.314087,1350.717773 1197.361450,1351.945190 
	C1194.838867,1352.993774 1191.923218,1353.158081 1189.494751,1354.351074 
	C1187.729614,1355.218262 1185.769775,1356.856323 1185.100708,1358.610107 
	C1176.850098,1380.234985 1169.098999,1402.053589 1160.636963,1423.593628 
	C1155.025024,1437.878540 1137.168945,1441.936157 1126.203369,1431.379883 
	C1113.607910,1419.254395 1102.319580,1405.774414 1090.400757,1392.941040 
	C1085.655029,1387.831055 1081.249512,1382.166504 1075.672241,1378.175781 
	C1073.192383,1376.401489 1068.193970,1378.286377 1064.340576,1378.260376 
	C1058.384644,1378.220215 1056.955322,1383.343384 1054.655640,1387.000122 
	C1043.595825,1404.586792 1032.991455,1422.460449 1021.879211,1440.013062 
	C1019.214905,1444.221436 1015.802917,1448.324585 1010.123291,1449.656250 
	C1005.975464,1450.000000 1001.950928,1450.000000 997.463196,1450.000000 
M1356.953613,1148.715820 
	C1351.880737,1143.915161 1347.437378,1138.093140 1341.617065,1134.504761 
	C1323.960571,1123.618530 1299.374756,1128.510010 1286.558716,1145.753662 
	C1273.473877,1163.359131 1275.393311,1187.719238 1291.270264,1202.615479 
	C1305.770386,1216.219971 1325.985840,1218.127563 1342.789429,1207.999268 
	C1356.637207,1199.652466 1363.766113,1186.782227 1363.618286,1171.037598 
	C1363.550537,1163.822998 1359.381714,1156.646973 1356.953613,1148.715820 
M675.850647,1127.000244 
	C674.102478,1127.337158 672.320801,1127.553467 670.611328,1128.029053 
	C652.495483,1133.070557 640.392761,1149.093384 639.050476,1167.183838 
	C638.269043,1177.714966 641.706421,1187.206909 648.169617,1195.359497 
	C656.918335,1206.394897 668.828796,1212.558716 682.722778,1211.739990 
	C700.640320,1210.684204 713.927917,1201.572632 720.915955,1184.389282 
	C727.290833,1168.713745 723.868408,1152.669312 712.714294,1140.340576 
	C703.178345,1129.800293 690.856384,1125.794922 675.850647,1127.000244 
z"/>
<path fill="#D44516" opacity="1.000000" stroke="none" 
	d="
M1009.536804,1.000000 
	C1017.968201,4.109866 1022.039429,11.024104 1026.233032,17.763832 
	C1036.870361,34.858952 1047.438354,51.997211 1058.021851,69.125710 
	C1058.530884,69.949425 1058.924194,70.844627 1059.496826,71.948608 
	C1064.862183,72.458969 1070.380005,72.983841 1075.602905,73.480652 
	C1077.479492,71.402176 1079.193359,69.422279 1080.993164,67.523636 
	C1093.533325,54.293900 1106.269043,41.243378 1118.553589,27.780903 
	C1123.313110,22.564976 1127.399658,17.056639 1134.680542,14.911976 
	C1145.675049,11.673453 1157.004272,17.457125 1160.938843,27.983870 
	C1169.041138,49.661331 1176.980225,71.399902 1185.141846,93.054771 
	C1185.649902,94.402977 1187.462646,95.294601 1188.747925,96.296669 
	C1189.234863,96.676292 1189.996704,96.681282 1190.548706,97.002510 
	C1201.420898,103.329575 1208.160645,95.212029 1215.666382,89.821655 
	C1231.133911,78.713547 1246.156250,66.909668 1262.189697,56.691174 
	C1273.887207,49.236061 1291.488525,55.853653 1294.064941,73.168159 
	C1296.387573,88.777687 1299.328247,104.294586 1301.920288,119.865005 
	C1303.044189,126.615143 1303.774048,133.438065 1305.127075,140.138214 
	C1305.506958,142.019455 1307.226196,143.836578 1308.737061,145.248871 
	C1317.278198,153.233170 1325.559448,148.523422 1333.894531,144.607254 
	C1346.971069,138.463318 1360.070923,132.366531 1373.224243,126.389351 
	C1378.371216,124.050514 1383.547119,121.589439 1388.955811,120.047142 
	C1406.506836,115.042557 1418.804688,131.049377 1415.500732,146.989883 
	C1415.302124,147.948639 1415.043945,148.917160 1415.018921,149.886444 
	C1414.658447,163.814468 1414.386475,177.744980 1413.968994,191.671188 
	C1413.836060,196.105255 1413.208618,200.523514 1413.042480,204.957825 
	C1412.860840,209.804062 1412.923096,213.816956 1417.721924,217.824112 
	C1423.278687,222.464371 1428.025269,223.503098 1434.649536,221.809372 
	C1454.586182,216.711884 1474.511108,211.451767 1494.663086,207.347137 
	C1513.623291,203.485275 1525.283813,216.454712 1521.368530,234.124252 
	C1516.495361,256.116974 1511.324097,278.049042 1505.828857,299.893433 
	C1504.904175,303.569550 1506.531860,305.806641 1508.326538,307.392151 
	C1511.870361,310.522827 1512.843018,316.891571 1519.756836,316.104736 
	C1526.958618,315.285095 1534.256470,315.262299 1541.516479,315.015961 
	C1553.109985,314.622589 1564.705200,314.194855 1576.302979,314.051971 
	C1582.916748,313.970490 1589.799561,313.343231 1596.097412,314.872253 
	C1607.763550,317.704681 1613.723022,332.510681 1607.286743,345.307800 
	C1605.538818,348.783203 1603.924316,352.349884 1602.573975,355.995209 
	C1600.666870,361.142670 1597.775757,363.212799 1591.728271,363.184845 
	C1527.397827,362.887054 1463.065430,362.982635 1398.733643,363.045380 
	C1395.077881,363.048920 1392.872559,361.999786 1390.130493,359.046722 
	C1380.881348,349.085785 1370.901367,339.783234 1360.934204,330.515625 
	C1353.107422,323.238129 1345.276855,315.866028 1336.757935,309.452545 
	C1319.728760,296.632080 1302.819092,283.487305 1284.757080,272.249176 
	C1265.611206,260.336487 1245.489502,249.863449 1225.241211,239.883224 
	C1199.038208,226.967834 1171.556641,217.163849 1143.198486,209.990082 
	C1130.160889,206.691986 1117.067505,203.610245 1103.966797,200.570740 
	C1102.803711,200.300888 1101.043823,200.663300 1100.166382,201.427261 
	C1095.557617,205.440933 1091.078979,209.611115 1086.674805,213.851288 
	C1075.547729,224.564362 1064.554077,235.416718 1053.374878,246.074677 
	C1043.678467,255.319000 1034.040405,264.650635 1023.909851,273.403320 
	C1018.201050,278.335693 1011.136658,280.496063 1003.342041,281.180939 
	C993.120178,282.079102 983.853333,279.958923 976.014404,273.829742 
	C969.791382,268.964020 964.631958,262.735046 959.028503,257.083374 
	C958.347656,256.396667 957.916565,255.464462 957.244263,254.766815 
	C947.567200,244.724121 937.851318,234.718719 928.180969,224.669571 
	C921.168213,217.382202 914.203430,210.048584 907.229431,202.724030 
	C905.502075,200.909897 904.167114,200.143814 901.005859,200.738281 
	C875.763672,205.485107 851.142212,212.384232 826.980347,220.979813 
	C793.388733,232.930084 760.962769,247.459335 730.886658,266.710114 
	C712.008545,278.793365 693.397766,291.354553 675.282959,304.546997 
	C664.558777,312.357025 654.931641,321.699249 645.004700,330.569092 
	C638.211304,336.639069 631.699829,343.029388 625.172058,349.389099 
	C623.064880,351.442017 621.338318,353.881042 619.381836,356.094116 
	C615.615112,360.354858 611.876892,363.262604 605.188721,363.223755 
	C540.859009,362.850159 476.526337,362.981384 412.194611,363.051239 
	C408.728516,363.054993 406.690002,362.659149 405.595612,358.560822 
	C404.317291,353.773743 401.568939,349.368958 399.375702,344.838318 
	C391.814178,329.218262 401.941345,312.890442 419.297180,313.044098 
	C430.727875,313.145294 442.155853,313.638641 453.583130,314.013397 
	C462.180328,314.295349 470.776489,314.626038 479.368683,315.029877 
	C481.471558,315.128723 483.565552,315.549103 485.648529,315.909027 
	C489.536987,316.580841 491.972961,315.121948 494.740082,312.071320 
	C499.765198,306.531372 501.587280,301.751373 499.360901,293.765411 
	C493.445374,272.546997 489.045441,250.902924 484.168335,229.399643 
	C482.059326,220.100952 492.552582,206.805298 502.260925,207.158646 
	C509.703491,207.429535 517.201843,208.655396 524.485962,210.296906 
	C542.028931,214.250305 559.445801,218.760468 576.952209,222.881607 
	C579.857971,223.565628 582.761414,223.610565 585.113831,220.572128 
	C586.863953,218.311630 589.722595,216.940613 591.887085,214.955002 
	C592.809265,214.109009 593.735962,212.715881 593.758484,211.553879 
	C593.808411,208.978363 593.097107,206.396622 593.031250,203.808899 
	C592.634766,188.215134 592.281067,172.619827 592.021362,157.023224 
	C591.893616,149.349762 591.128540,141.547546 592.208008,134.026962 
	C593.719116,123.499031 607.125122,116.096077 617.291199,119.885674 
	C627.448303,123.671944 637.312378,128.264603 647.221985,132.689484 
	C659.966309,138.380112 672.628479,144.254791 685.322632,150.057648 
	C685.621277,150.194122 685.856201,150.505447 686.160706,150.587891 
	C688.645630,151.260681 701.539246,143.432968 701.943970,140.875000 
	C704.006775,127.838348 705.968872,114.785835 708.007019,101.745247 
	C709.667236,91.122711 710.411682,80.234604 713.310852,69.957535 
	C717.404053,55.447754 732.568115,49.341843 745.619690,57.364475 
	C752.813416,61.786377 759.521057,67.004921 766.403076,71.926895 
	C778.182129,80.351204 790.071960,88.632965 801.587952,97.404442 
	C804.693604,99.769989 807.408325,99.530396 810.483582,98.768753 
	C813.460999,98.031342 816.390015,97.038208 819.249634,95.924606 
	C820.033447,95.619377 820.733154,94.570839 821.063843,93.707291 
	C828.070068,75.413254 834.941711,57.067345 842.016479,38.800068 
	C844.692261,31.890915 846.280579,24.508028 852.257690,19.106253 
	C860.859009,11.332945 876.396545,12.672908 883.045410,22.200392 
	C883.608643,23.007492 884.291504,23.739798 884.975220,24.452770 
	C893.244202,33.075352 901.604004,41.612621 909.773621,50.328190 
	C915.632690,56.578789 921.603821,62.782509 926.848328,69.532875 
	C931.167419,75.092155 936.516174,72.885452 941.565796,72.631233 
	C945.258789,72.445305 947.931396,70.789139 950.224182,66.936363 
	C961.767639,47.538906 973.755554,28.393278 986.126892,9.512720 
	C988.385925,6.065084 993.145203,4.255702 996.875122,1.345034 
	C1001.024536,1.000000 1005.049072,1.000000 1009.536804,1.000000 
M1000.557617,129.000000 
	C977.741394,129.115616 960.130432,148.256485 958.806580,168.742050 
	C957.120300,194.837769 981.018066,214.250351 1000.512634,214.032654 
	C1025.898804,213.749207 1043.550537,193.934479 1043.780396,170.900223 
	C1044.014282,147.455215 1023.522400,128.601501 1000.557617,129.000000 
z"/>
<path fill="#D44516" opacity="1.000000" stroke="none" 
	d="
M2001.000000,986.531372 
	C1981.196045,987.000000 1961.392212,987.000000 1941.000000,987.000000 
	C1941.000000,984.935791 1941.000000,983.166931 1941.000000,981.398010 
	C1941.000000,945.234863 1941.302368,909.067322 1940.767456,872.912048 
	C1940.647827,864.819946 1938.404663,856.484924 1935.683472,848.775574 
	C1932.360718,839.362000 1917.973633,834.116394 1907.187012,836.248352 
	C1886.785278,840.280579 1881.710571,852.376892 1879.206177,870.156250 
	C1874.250366,905.338013 1878.034180,940.830139 1877.013306,976.171753 
	C1876.913452,979.628174 1877.000000,983.089905 1877.000000,986.767334 
	C1856.631226,986.767334 1836.689209,986.767334 1816.373169,986.767334 
	C1816.373169,921.797180 1816.373169,856.740479 1816.373169,791.000000 
	C1819.784790,791.000000 1823.376953,791.000000 1826.969238,791.000000 
	C1837.468262,791.000061 1847.967529,791.051270 1858.465942,790.964172 
	C1861.090210,790.942444 1862.500610,791.457764 1863.310547,794.447510 
	C1865.366577,802.038086 1868.020874,809.466614 1870.714722,817.826050 
	C1873.059814,815.077393 1874.982056,812.946472 1876.770020,810.708313 
	C1886.856445,798.082031 1900.595703,791.775269 1915.990234,789.186035 
	C1930.510620,786.743713 1945.117310,787.098206 1959.337524,791.740906 
	C1980.975464,798.805542 1994.714111,813.006958 1999.054321,835.716125 
	C1999.194580,836.449646 1999.854980,837.083679 2000.636475,837.882080 
	C2001.000000,887.354248 2001.000000,936.708435 2001.000000,986.531372 
z"/>
<path fill="#D44516" opacity="1.000000" stroke="none" 
	d="
M1.000000,733.468628 
	C50.123314,733.000000 99.246628,733.000000 148.684738,733.000000 
	C148.684738,749.649658 148.684738,766.039307 148.684738,782.903198 
	C119.625244,782.903198 90.570351,782.903198 61.259506,782.903198 
	C61.259506,801.763062 61.259506,820.151550 61.259506,838.837219 
	C88.034592,838.837219 114.637497,838.837219 141.619720,838.837219 
	C141.619720,855.516235 141.619720,871.907471 141.619720,888.774170 
	C115.089752,888.774170 88.366974,888.774170 61.176292,888.774170 
	C61.176292,921.628418 61.176292,954.015625 61.176292,987.000000 
	C41.120258,987.000000 21.528788,987.000000 1.468657,987.000000 
	C1.000000,902.645752 1.000000,818.291565 1.000000,733.468628 
z"/>
<path fill="#D44516" opacity="1.000000" stroke="none" 
	d="
M708.973145,596.890747 
	C707.569946,595.668396 706.260925,594.169495 704.895020,594.115784 
	C698.441589,593.861389 691.972595,594.002319 685.034790,594.002319 
	C685.034790,625.767517 685.034790,657.161987 685.034790,688.776123 
	C664.280579,688.776123 644.005615,688.776123 623.364990,688.776123 
	C623.364990,604.449890 623.364990,520.062744 623.364990,435.000000 
	C624.966675,435.000000 626.723938,435.000000 628.481140,435.000000 
	C655.311218,435.000000 682.146240,434.689697 708.969543,435.114594 
	C725.475403,435.376007 741.854858,437.494720 757.569519,443.024231 
	C777.866516,450.166138 793.564270,462.594818 800.112854,483.717621 
	C806.384155,503.946411 806.888245,524.447693 796.913635,543.871277 
	C789.911194,557.507324 778.489807,567.146301 765.578918,575.079407 
	C763.780273,576.184570 762.015137,577.344299 759.582520,578.894226 
	C784.080750,615.331177 808.573608,651.760193 833.611572,689.000000 
	C831.526489,689.000000 830.285400,689.000000 829.044312,689.000000 
	C808.713440,689.000000 788.382385,688.959290 768.051880,689.048157 
	C765.312073,689.060120 763.728943,688.377441 762.197388,685.799683 
	C748.185730,662.217651 733.947083,638.770508 719.787903,615.276062 
	C716.181458,609.291992 712.622131,603.279541 708.973145,596.890747 
M685.000000,532.491638 
	C685.000000,536.914185 685.000000,541.336731 685.000000,546.470703 
	C694.876587,545.954102 704.223999,546.277344 713.246948,544.720276 
	C719.738647,543.600098 726.607727,541.076599 731.869568,537.217285 
	C740.952759,530.555176 742.981995,520.067810 741.812805,509.402985 
	C741.075439,502.676727 738.640442,496.291748 732.649536,491.906708 
	C718.071777,481.236755 701.437805,484.502167 685.000000,484.060883 
	C685.000000,500.261139 685.000000,515.878052 685.000000,532.491638 
z"/>
<path fill="#D44516" opacity="1.000000" stroke="none" 
	d="
M927.083984,789.997314 
	C951.003723,785.320190 977.059082,785.874695 998.982971,815.668945 
	C998.151794,807.630188 997.356934,799.864563 996.537659,792.101624 
	C996.417908,790.967407 996.024963,789.845642 996.023499,788.717834 
	C995.992798,765.064758 996.000366,741.411682 996.000366,717.379395 
	C1016.185425,717.379395 1036.242554,717.379395 1056.650635,717.379395 
	C1056.650635,806.897888 1056.650635,896.601318 1056.650635,987.000000 
	C1051.897217,987.000000 1046.974487,987.000000 1042.051880,987.000000 
	C1032.722168,987.000000 1023.390320,986.892517 1014.063843,987.068237 
	C1011.410156,987.118164 1010.014282,986.432617 1008.906433,983.896118 
	C1006.175232,977.642700 1002.827881,971.655029 1000.177063,965.371216 
	C998.438416,961.249451 997.200012,961.052063 994.696289,964.750977 
	C986.862549,976.323914 976.642639,984.914185 962.742920,988.013794 
	C938.735046,993.367432 916.655457,990.664612 897.964111,972.604614 
	C883.894104,959.010010 876.846802,942.102722 874.202271,923.394470 
	C872.181641,909.099670 870.793640,894.503967 871.282898,880.115540 
	C872.015747,858.564636 875.321655,837.222473 887.788208,818.664795 
	C897.287415,804.524353 909.623047,794.029114 927.083984,789.997314 
M932.991943,884.209778 
	C932.661316,886.634094 931.803345,889.123901 932.094910,891.470947 
	C933.135986,899.852112 934.016479,908.315796 935.966064,916.508301 
	C939.977966,933.366638 951.770630,943.117981 969.548889,942.080688 
	C981.901245,941.359802 993.955200,932.658203 996.916016,920.893127 
	C1001.645081,902.101868 1001.386597,883.081970 997.820740,864.198425 
	C996.156372,855.384766 993.012512,846.641174 984.320801,842.029358 
	C980.128113,839.804688 975.326172,838.612488 970.689209,837.364929 
	C961.574646,834.912903 948.278076,840.267822 942.962341,848.145691 
	C935.788086,858.778076 932.844055,870.579651 932.991943,884.209778 
z"/>
<path fill="#D44516" opacity="1.000000" stroke="none" 
	d="
M562.025024,987.000000 
	C561.197021,987.000000 560.863831,987.000000 560.530579,987.000000 
	C548.648987,987.000000 548.705872,986.986755 545.970154,975.245911 
	C545.127075,971.627441 544.061279,968.035339 542.757568,964.558594 
	C541.874573,962.203857 540.884888,960.275330 538.380737,963.969299 
	C527.425659,980.129822 510.972595,987.671021 492.490234,989.713013 
	C472.011871,991.975464 451.863922,990.160217 434.265045,977.120789 
	C422.830505,968.648621 415.389038,957.564880 413.236725,943.833618 
	C411.156799,930.564392 410.291595,917.001648 410.137573,903.553589 
	C409.731171,868.068665 410.000000,832.576050 410.000000,797.086487 
	C410.000000,795.271667 410.000000,793.456909 410.000000,791.323975 
	C430.300110,791.323975 450.357239,791.323975 471.000000,791.323975 
	C471.000000,793.070496 471.000000,794.839844 471.000000,796.609192 
	C471.000000,831.765503 470.772675,866.924316 471.152161,902.076538 
	C471.253082,911.426208 472.407196,920.817322 476.809753,929.590698 
	C481.001801,937.944519 487.994965,941.515320 496.464691,941.872009 
	C518.128662,942.784241 527.383301,932.514709 531.808838,913.495056 
	C533.832581,904.797363 534.761230,895.674927 534.861572,886.730286 
	C535.216797,855.080017 535.000000,823.423340 535.000000,791.384644 
	C555.176025,791.384644 575.234497,791.384644 595.647400,791.384644 
	C595.647400,856.234985 595.647400,921.282593 595.647400,987.000000 
	C584.698792,987.000000 573.609253,987.000000 562.025024,987.000000 
z"/>
<path fill="#D44516" opacity="1.000000" stroke="none" 
	d="
M661.004150,987.000000 
	C655.866028,987.000000 651.227051,987.000000 646.295654,987.000000 
	C646.295654,921.646851 646.295654,856.596008 646.295654,791.272339 
	C661.609619,791.272339 676.874695,791.272339 692.268066,791.272339 
	C695.145081,799.808411 698.083557,808.526672 701.366150,818.265991 
	C711.133240,803.393372 723.773254,794.924500 739.529419,790.799072 
	C751.632446,787.630188 763.752869,787.379639 776.137573,788.888428 
	C788.401306,790.382507 799.405151,794.582214 809.299316,801.830078 
	C820.086548,809.732361 826.175720,820.798889 828.820129,833.519958 
	C830.675537,842.445557 831.795044,851.684387 831.862915,860.793701 
	C832.174316,902.609985 832.000000,944.429932 832.000000,986.624207 
	C811.804749,986.624207 791.745422,986.624207 771.000000,986.624207 
	C771.000000,985.044006 771.000000,983.288208 771.000000,981.532410 
	C771.000000,944.373840 771.231262,907.212463 770.789185,870.059143 
	C770.708557,863.280334 768.813110,856.136108 766.128662,849.855896 
	C760.577271,836.868469 748.631714,834.533203 737.499878,836.343689 
	C719.059875,839.343018 713.534180,850.167175 709.983704,866.595703 
	C707.071350,880.071594 706.899170,893.716125 706.963867,907.415955 
	C707.088074,933.724487 707.000000,960.034119 707.000000,987.000000 
	C691.682800,987.000000 676.593140,987.000000 661.004150,987.000000 
z"/>
<path fill="#D44516" opacity="1.000000" stroke="none" 
	d="
M988.688599,671.296021 
	C987.836304,668.646057 987.219177,666.334595 986.285767,662.838684 
	C984.124390,665.153442 982.371155,666.655579 981.072998,668.481262 
	C971.442749,682.024841 957.376343,687.749451 941.854126,691.002930 
	C926.975830,694.121460 912.161255,693.442200 897.787781,688.892151 
	C875.843872,681.945312 860.459778,666.948975 857.192993,642.444824 
	C855.433228,629.244568 855.198547,615.782349 855.091370,602.431763 
	C854.817200,568.281128 855.000000,534.126770 855.000000,499.973938 
	C855.000000,498.168396 855.000000,496.362854 855.000000,494.284393 
	C875.379028,494.284393 895.434204,494.284393 916.000000,494.284393 
	C916.000000,496.155334 916.000000,497.934570 916.000000,499.713776 
	C916.000000,536.532227 915.780090,573.353210 916.202515,610.166809 
	C916.278625,616.798401 918.510681,623.560364 920.623535,629.973511 
	C923.153442,637.652344 929.109070,642.071655 937.039368,643.517090 
	C948.727356,645.647522 964.153870,642.691589 969.806519,631.348694 
	C973.578613,623.779236 976.628967,615.384216 977.772278,607.052673 
	C982.259277,574.355225 979.196533,541.401062 979.984619,508.563354 
	C980.096008,503.922272 980.000000,499.276215 980.000000,494.317352 
	C1000.311890,494.317352 1020.367493,494.317352 1040.712402,494.317352 
	C1040.712402,559.027161 1040.712402,623.736145 1040.712402,689.000000 
	C1028.733154,689.000000 1016.797607,689.000000 1004.862122,689.000000 
	C994.299194,689.000000 994.279846,689.006287 991.067322,679.117676 
	C990.266113,676.651428 989.633789,674.130371 988.688599,671.296021 
z"/>
<path fill="#D44516" opacity="1.000000" stroke="none" 
	d="
M1160.271484,790.034790 
	C1176.230713,789.338562 1191.782837,787.685364 1207.254028,788.250427 
	C1226.358154,788.948303 1244.170410,794.724670 1258.132080,808.737610 
	C1267.400146,818.039490 1272.383423,829.750732 1273.860229,842.637695 
	C1274.911377,851.811768 1274.926270,861.133606 1274.954224,870.390808 
	C1275.065308,907.217346 1275.000000,944.044312 1275.000000,980.871155 
	C1275.000000,982.688660 1275.000000,984.506165 1275.000000,987.000000 
	C1267.875977,987.000000 1260.950562,987.000061 1254.025146,987.000000 
	C1247.859619,987.000000 1241.689331,986.859619 1235.530640,987.065979 
	C1232.916748,987.153564 1231.896240,986.061829 1230.968628,983.827332 
	C1227.809082,976.217041 1224.413696,968.704712 1220.839478,960.540955 
	C1215.468994,965.952576 1210.770996,971.186829 1205.550049,975.833435 
	C1197.074097,983.377258 1186.960327,987.617981 1175.697021,988.981140 
	C1169.365112,989.747498 1162.953857,991.187561 1156.675049,990.791382 
	C1142.872314,989.920410 1129.260864,988.150208 1117.526978,979.302429 
	C1105.888062,970.526306 1099.281006,959.145874 1096.992310,944.976562 
	C1095.079712,933.136047 1094.837402,921.418640 1097.661011,909.575684 
	C1101.938843,891.632324 1113.999634,880.878052 1130.028320,874.168091 
	C1144.868530,867.955566 1160.612549,865.244141 1176.755493,864.969849 
	C1187.018555,864.795532 1197.279297,864.394775 1207.535034,863.953918 
	C1209.930542,863.850952 1212.301392,863.173096 1215.313843,862.650330 
	C1214.410889,857.028137 1214.224609,851.383179 1212.522949,846.239746 
	C1209.331055,836.592102 1199.971069,832.575073 1191.196045,832.042969 
	C1173.628418,830.977600 1157.422241,836.442078 1141.454346,842.880493 
	C1138.616699,844.024597 1135.749878,845.096191 1132.778809,846.246887 
	C1127.120605,833.746704 1121.688110,821.468262 1115.979492,809.319641 
	C1114.468628,806.104370 1115.202637,804.633301 1118.252441,803.274109 
	C1130.884033,797.644470 1143.778320,792.920959 1157.553223,790.953796 
	C1158.338013,790.841675 1159.071289,790.367371 1160.271484,790.034790 
M1215.000000,907.444214 
	C1215.000000,904.349609 1215.000000,901.254944 1215.000000,899.000000 
	C1210.986206,899.000000 1207.570557,899.055237 1204.157349,898.989746 
	C1193.630737,898.787659 1183.182617,899.493896 1173.208862,903.071350 
	C1158.707153,908.272705 1153.005127,926.527344 1161.043091,938.850464 
	C1164.493530,944.140381 1170.079712,945.453003 1176.199463,946.215393 
	C1186.355225,947.480469 1194.959351,944.525146 1202.896729,938.614380 
	C1213.105835,931.011963 1214.509399,919.886536 1215.000000,907.444214 
z"/>
<path fill="#D44516" opacity="1.000000" stroke="none" 
	d="
M371.000000,890.984253 
	C371.018768,909.472656 368.219208,926.973389 360.231354,943.199890 
	C350.923187,962.108459 336.364746,975.550232 316.519501,983.220276 
	C304.475067,987.875305 292.108948,989.626282 279.239716,990.185181 
	C260.977448,990.978455 243.584473,988.261108 227.348679,979.981323 
	C201.906448,967.006653 187.379868,945.534241 182.200333,917.948669 
	C179.971832,906.079834 178.966827,893.765320 179.228012,881.692749 
	C179.684433,860.596741 184.429886,840.331726 197.087006,822.843750 
	C209.483963,805.715210 226.590469,795.719727 247.062347,790.926453 
	C258.734406,788.193481 270.515503,787.511536 282.366272,788.061462 
	C302.505859,788.996033 321.014282,794.850281 337.021942,807.525696 
	C355.308838,822.005920 365.344879,841.270142 368.891357,863.973328 
	C370.255859,872.708435 370.335144,881.644348 371.000000,890.984253 
M248.040680,849.755493 
	C247.397659,851.066406 246.587723,852.322510 246.136612,853.696411 
	C239.472504,873.991821 239.269409,894.540405 243.662155,915.302795 
	C247.625671,934.036438 258.544067,945.140442 280.317413,942.953064 
	C287.460724,942.235474 293.458405,939.219055 298.251648,933.505493 
	C305.804626,924.502441 308.175385,913.571899 308.734924,902.627747 
	C309.463562,888.377258 310.314789,873.922363 306.043793,859.850159 
	C302.915649,849.543396 297.921082,840.655579 287.205872,837.094727 
	C272.696381,832.273071 257.619873,834.675964 248.040680,849.755493 
z"/>
<path fill="#D44516" opacity="1.000000" stroke="none" 
	d="
M1756.278320,957.210938 
	C1741.239624,976.029663 1721.803589,986.045959 1698.455078,989.041504 
	C1674.688843,992.090759 1651.606079,990.671326 1630.035522,978.994202 
	C1616.297485,971.557129 1605.677124,960.931091 1597.791748,947.445618 
	C1590.275146,934.590393 1586.358276,920.761108 1584.904663,905.966675 
	C1582.726807,883.802124 1583.781006,862.126587 1591.922729,841.110718 
	C1598.419556,824.340881 1609.372070,811.348145 1624.546265,801.849670 
	C1637.059204,794.016846 1650.813354,790.451904 1665.448608,788.833191 
	C1686.788574,786.472778 1707.353027,788.449158 1726.653320,798.032654 
	C1750.852539,810.048706 1766.078857,829.743042 1771.767334,855.999390 
	C1774.453857,868.400085 1775.955444,881.362061 1775.705811,894.024658 
	C1775.305298,914.324585 1771.638306,934.209656 1760.046387,951.695251 
	C1758.881958,953.451721 1757.706909,955.201050 1756.278320,957.210938 
M1650.449463,855.050354 
	C1646.187988,866.043030 1645.135254,877.646545 1645.193481,889.197937 
	C1645.238525,898.127319 1646.151978,907.265503 1648.296997,915.909424 
	C1650.326904,924.089600 1653.412720,932.131958 1660.979736,937.710022 
	C1669.013672,943.632202 1677.946899,943.793030 1686.866577,942.768066 
	C1694.733765,941.864014 1700.973267,937.300354 1705.274658,930.328430 
	C1711.749146,919.833923 1713.505005,908.113586 1713.882080,896.196472 
	C1714.153076,887.636963 1714.085815,878.925110 1712.770996,870.499512 
	C1711.617554,863.107178 1709.607666,855.421082 1706.044556,848.923950 
	C1699.303955,836.632629 1687.140503,833.648010 1674.288696,835.229065 
	C1662.969360,836.621521 1654.603882,843.010254 1650.449463,855.050354 
z"/>
<path fill="#D44516" opacity="1.000000" stroke="none" 
	d="
M1104.418945,640.747803 
	C1113.511597,642.789917 1122.197754,644.861511 1130.973511,646.433533 
	C1141.675415,648.350464 1152.443115,649.377869 1163.119751,646.034241 
	C1167.813354,644.564270 1172.031738,642.557007 1172.983643,637.044556 
	C1174.044067,630.903931 1170.829712,626.631042 1165.921143,624.099915 
	C1155.557861,618.755981 1144.972046,613.822510 1134.338135,609.029846 
	C1119.905396,602.524963 1105.395386,596.355957 1094.025635,584.657959 
	C1086.231934,576.639221 1082.212280,566.897034 1081.235352,556.295715 
	C1080.139404,544.400574 1080.310303,532.380859 1086.264404,521.196838 
	C1092.281738,509.893707 1101.759888,502.873505 1113.146606,498.060547 
	C1131.406494,490.342468 1150.715454,489.058014 1170.137695,490.120117 
	C1190.271362,491.221191 1209.451172,496.752441 1227.839111,504.990784 
	C1228.563477,505.315277 1229.199097,505.837769 1230.107666,506.415161 
	C1224.745850,519.195862 1219.404541,531.830261 1214.164551,544.506531 
	C1213.199707,546.840637 1212.173462,547.288696 1209.655151,546.377136 
	C1199.172729,542.582642 1188.714722,538.602051 1177.984619,535.645447 
	C1168.684692,533.083008 1159.002686,531.643127 1149.338257,534.083496 
	C1145.423096,535.072021 1141.129150,536.419434 1140.158936,541.001465 
	C1139.167969,545.682617 1140.553467,549.785583 1145.369751,552.074402 
	C1155.763916,557.013794 1166.028198,562.238647 1176.525513,566.945312 
	C1189.878784,572.932678 1203.648071,578.284851 1214.994995,587.720703 
	C1224.193604,595.370117 1229.215210,605.851807 1230.956421,617.706604 
	C1232.789429,630.187500 1231.900269,642.458862 1227.281250,654.318909 
	C1221.552856,669.027588 1210.873657,679.003906 1196.575195,684.879578 
	C1184.903320,689.675964 1172.611206,692.216003 1159.841553,692.034546 
	C1148.489136,691.873291 1137.104980,692.500305 1125.784912,691.872559 
	C1111.606812,691.086365 1097.866089,687.589661 1084.542725,682.694580 
	C1083.072266,682.154419 1081.176270,680.086548 1081.154663,678.700989 
	C1080.913696,663.242126 1081.002563,647.778076 1081.002563,632.028259 
	C1088.954712,634.970276 1096.503418,637.763062 1104.418945,640.747803 
z"/>
<path fill="#D44516" opacity="1.000000" stroke="none" 
	d="
M1332.000000,899.000000 
	C1332.000000,878.200134 1332.000000,857.900330 1332.000000,837.119629 
	C1323.658203,837.119629 1315.589111,837.119629 1307.002319,837.119629 
	C1307.002319,828.871460 1306.910889,821.095520 1307.106812,813.326782 
	C1307.134399,812.234863 1308.348511,810.847229 1309.386475,810.157959 
	C1317.634888,804.680786 1326.032227,799.426392 1334.237183,793.886169 
	C1335.972534,792.714478 1337.650879,790.871521 1338.426147,788.960815 
	C1343.111084,777.413330 1347.461670,765.730530 1352.120728,754.172119 
	C1352.648804,752.861938 1354.388672,751.160522 1355.593750,751.138611 
	C1367.883545,750.914917 1380.178833,751.001770 1392.949341,751.001770 
	C1392.949341,764.416260 1392.949341,777.480286 1392.949341,790.837402 
	C1410.031616,790.837402 1426.639038,790.837402 1443.622559,790.837402 
	C1443.622559,806.189270 1443.622559,821.248230 1443.622559,836.788452 
	C1427.079712,836.788452 1410.351196,836.788452 1393.232300,836.788452 
	C1393.141479,838.844849 1393.009888,840.446289 1393.009155,842.047791 
	C1392.996460,869.037659 1392.922974,896.027893 1393.034546,923.017334 
	C1393.085571,935.362793 1400.800293,942.232178 1411.602295,941.739380 
	C1421.755371,941.276245 1431.812134,938.658203 1441.904297,936.947205 
	C1443.447998,936.685425 1444.954224,936.201904 1446.794678,935.741638 
	C1446.794678,950.896240 1446.794678,965.525085 1446.794678,980.557617 
	C1432.219849,986.311829 1417.194824,990.207764 1401.063599,990.170349 
	C1389.142700,990.142639 1377.441895,990.098083 1366.010742,986.088379 
	C1346.687866,979.310608 1336.557007,964.976257 1334.229736,945.511230 
	C1332.411377,930.302734 1332.666260,914.846252 1332.000000,899.000000 
z"/>
<path fill="#D44516" opacity="1.000000" stroke="none" 
	d="
M1340.196533,633.511230 
	C1344.014648,640.962646 1350.129761,643.672241 1357.789185,644.035156 
	C1369.427856,644.586609 1380.384766,641.521423 1391.656250,637.604980 
	C1391.656250,652.873657 1391.656250,667.592468 1391.656250,683.478455 
	C1383.156006,685.893738 1374.307129,689.127502 1365.172485,690.796082 
	C1356.490723,692.381897 1347.479614,693.142456 1338.667969,692.811523 
	C1325.160522,692.304260 1311.711426,690.549866 1300.040039,682.574524 
	C1288.714355,674.835388 1282.479370,663.693298 1280.183960,650.627319 
	C1278.571411,641.449402 1278.178833,631.976013 1278.091797,622.626709 
	C1277.834839,594.986633 1278.000000,567.342712 1278.000000,539.218933 
	C1269.760864,539.218933 1261.691895,539.218933 1253.018433,539.218933 
	C1253.018433,530.657410 1252.940186,522.560425 1253.127808,514.469666 
	C1253.148804,513.563843 1254.540649,512.481873 1255.529419,511.839630 
	C1263.017578,506.975647 1270.425659,501.963928 1278.137939,497.478119 
	C1283.713379,494.235138 1284.864136,488.605988 1286.983765,483.438263 
	C1291.104004,473.392883 1295.104980,463.298462 1299.187378,453.144409 
	C1311.955811,453.144409 1324.598389,453.144409 1337.720703,453.144409 
	C1337.720703,466.515717 1337.720703,479.912994 1337.720703,493.783600 
	C1355.249268,493.783600 1372.310181,493.783600 1389.683594,493.783600 
	C1389.683594,508.980652 1389.683594,523.704407 1389.683594,538.907959 
	C1372.624146,538.907959 1355.563110,538.907959 1338.000000,538.907959 
	C1338.000000,540.823975 1338.000000,542.269653 1338.000000,543.715332 
	C1338.000000,569.870911 1337.921265,596.026978 1338.089844,622.181519 
	C1338.113403,625.842896 1339.349731,629.496521 1340.196533,633.511230 
z"/>
<path fill="#D44516" opacity="1.000000" stroke="none" 
	d="
M1483.000000,915.000000 
	C1483.000000,873.553101 1483.000000,832.606140 1483.000000,791.329834 
	C1502.946655,791.329834 1522.662964,791.329834 1542.690552,791.329834 
	C1542.690552,856.296021 1542.690552,921.317810 1542.690552,986.670044 
	C1523.053589,986.670044 1503.337280,986.670044 1483.000000,986.670044 
	C1483.000000,962.986694 1483.000000,939.243347 1483.000000,915.000000 
z"/>
<path fill="#D44516" opacity="1.000000" stroke="none" 
	d="
M1490.119995,719.981934 
	C1506.434326,711.513794 1522.278442,711.679871 1537.661255,721.097351 
	C1540.333374,722.733276 1542.755859,725.923279 1543.761963,728.911255 
	C1546.393188,736.725647 1546.857056,744.816284 1544.584229,752.968140 
	C1541.426758,764.293213 1532.451294,768.573608 1522.350098,769.711609 
	C1513.365234,770.723755 1504.160889,770.709473 1495.140991,767.251648 
	C1486.641968,763.993530 1480.430054,755.172546 1480.971558,747.212158 
	C1481.151611,744.563904 1481.075806,741.890442 1480.985718,739.232971 
	C1480.718872,731.365234 1483.176392,724.771729 1490.119995,719.981934 
z"/>
<path fill="#FFFFFF" opacity="1.000000" stroke="none" 
	d="
M1357.013184,1149.084595 
	C1359.381714,1156.646973 1363.550537,1163.822998 1363.618286,1171.037598 
	C1363.766113,1186.782227 1356.637207,1199.652466 1342.789429,1207.999268 
	C1325.985840,1218.127563 1305.770386,1216.219971 1291.270264,1202.615479 
	C1275.393311,1187.719238 1273.473877,1163.359131 1286.558716,1145.753662 
	C1299.374756,1128.510010 1323.960571,1123.618530 1341.617065,1134.504761 
	C1347.437378,1138.093140 1351.880737,1143.915161 1357.013184,1149.084595 
z"/>
<path fill="#FFFFFF" opacity="1.000000" stroke="none" 
	d="
M676.314331,1127.000122 
	C690.856384,1125.794922 703.178345,1129.800293 712.714294,1140.340576 
	C723.868408,1152.669312 727.290833,1168.713745 720.915955,1184.389282 
	C713.927917,1201.572632 700.640320,1210.684204 682.722778,1211.739990 
	C668.828796,1212.558716 656.918335,1206.394897 648.169617,1195.359497 
	C641.706421,1187.206909 638.269043,1177.714966 639.050476,1167.183838 
	C640.392761,1149.093384 652.495483,1133.070557 670.611328,1128.029053 
	C672.320801,1127.553467 674.102478,1127.337158 676.314331,1127.000122 
z"/>
<path fill="#FFFFFF" opacity="1.000000" stroke="none" 
	d="
M1001.028687,129.000000 
	C1023.522400,128.601501 1044.014282,147.455215 1043.780396,170.900223 
	C1043.550537,193.934479 1025.898804,213.749207 1000.512634,214.032654 
	C981.018066,214.250351 957.120300,194.837769 958.806580,168.742050 
	C960.130432,148.256485 977.741394,129.115616 1001.028687,129.000000 
z"/>
<path fill="#FFFFFF" opacity="1.000000" stroke="none" 
	d="
M685.000000,531.993286 
	C685.000000,515.878052 685.000000,500.261139 685.000000,484.060883 
	C701.437805,484.502167 718.071777,481.236755 732.649536,491.906708 
	C738.640442,496.291748 741.075439,502.676727 741.812805,509.402985 
	C742.981995,520.067810 740.952759,530.555176 731.869568,537.217285 
	C726.607727,541.076599 719.738647,543.600098 713.246948,544.720276 
	C704.223999,546.277344 694.876587,545.954102 685.000000,546.470703 
	C685.000000,541.336731 685.000000,536.914185 685.000000,531.993286 
z"/>
<path fill="#FFFFFF" opacity="1.000000" stroke="none" 
	d="
M932.995544,883.742554 
	C932.844055,870.579651 935.788086,858.778076 942.962341,848.145691 
	C948.278076,840.267822 961.574646,834.912903 970.689209,837.364929 
	C975.326172,838.612488 980.128113,839.804688 984.320801,842.029358 
	C993.012512,846.641174 996.156372,855.384766 997.820740,864.198425 
	C1001.386597,883.081970 1001.645081,902.101868 996.916016,920.893127 
	C993.955200,932.658203 981.901245,941.359802 969.548889,942.080688 
	C951.770630,943.117981 939.977966,933.366638 935.966064,916.508301 
	C934.016479,908.315796 933.135986,899.852112 932.094910,891.470947 
	C931.803345,889.123901 932.661316,886.634094 932.995544,883.742554 
z"/>
<path fill="#FFFFFF" opacity="1.000000" stroke="none" 
	d="
M1215.000000,907.919006 
	C1214.509399,919.886536 1213.105835,931.011963 1202.896729,938.614380 
	C1194.959351,944.525146 1186.355225,947.480469 1176.199463,946.215393 
	C1170.079712,945.453003 1164.493530,944.140381 1161.043091,938.850464 
	C1153.005127,926.527344 1158.707153,908.272705 1173.208862,903.071350 
	C1183.182617,899.493896 1193.630737,898.787659 1204.157349,898.989746 
	C1207.570557,899.055237 1210.986206,899.000000 1215.000000,899.000000 
	C1215.000000,901.254944 1215.000000,904.349609 1215.000000,907.919006 
z"/>
<path fill="#FFFFFF" opacity="1.000000" stroke="none" 
	d="
M248.225952,849.425171 
	C257.619873,834.675964 272.696381,832.273071 287.205872,837.094727 
	C297.921082,840.655579 302.915649,849.543396 306.043793,859.850159 
	C310.314789,873.922363 309.463562,888.377258 308.734924,902.627747 
	C308.175385,913.571899 305.804626,924.502441 298.251648,933.505493 
	C293.458405,939.219055 287.460724,942.235474 280.317413,942.953064 
	C258.544067,945.140442 247.625671,934.036438 243.662155,915.302795 
	C239.269409,894.540405 239.472504,873.991821 246.136612,853.696411 
	C246.587723,852.322510 247.397659,851.066406 248.225952,849.425171 
z"/>
<path fill="#FFFFFF" opacity="1.000000" stroke="none" 
	d="
M1650.684204,854.727661 
	C1654.603882,843.010254 1662.969360,836.621521 1674.288696,835.229065 
	C1687.140503,833.648010 1699.303955,836.632629 1706.044556,848.923950 
	C1709.607666,855.421082 1711.617554,863.107178 1712.770996,870.499512 
	C1714.085815,878.925110 1714.153076,887.636963 1713.882080,896.196472 
	C1713.505005,908.113586 1711.749146,919.833923 1705.274658,930.328430 
	C1700.973267,937.300354 1694.733765,941.864014 1686.866577,942.768066 
	C1677.946899,943.793030 1669.013672,943.632202 1660.979736,937.710022 
	C1653.412720,932.131958 1650.326904,924.089600 1648.296997,915.909424 
	C1646.151978,907.265503 1645.238525,898.127319 1645.193481,889.197937 
	C1645.135254,877.646545 1646.187988,866.043030 1650.684204,854.727661 
z"/>
</svg>