<svg version="1.1" id="Layer_1" xmlns="http://www.w3.org/2000/svg" xmlns:xlink="http://www.w3.org/1999/xlink" x="0px" y="0px"
	 width="100%" viewBox="0 0 2000 1449" enable-background="new 0 0 2000 1449" xml:space="preserve">
<path fill="#FFFFFF" opacity="1.000000" stroke="none" 
	d="
M997.000000,1450.000000 
	C665.093750,1450.000000 333.187439,1450.000000 1.000000,1450.000000 
	C1.000000,1295.970703 1.000000,1141.941284 1.468657,987.455933 
	C21.533936,987.000000 41.130558,987.000000 61.133469,987.000000 
	C61.133469,954.063965 61.133469,921.666870 61.133469,888.861145 
	C88.274147,888.861145 115.006348,888.861145 141.716599,888.861145 
	C141.716599,872.047119 141.716599,855.648071 141.716599,838.839111 
	C114.703552,838.839111 87.971329,838.839111 61.293686,838.839111 
	C61.293686,820.025574 61.293686,801.626831 61.293686,782.819336 
	C90.649979,782.819336 119.714767,782.819336 148.696091,782.819336 
	C148.696091,766.005676 148.696091,749.606201 148.696091,733.000000 
	C99.261658,733.000000 50.130829,733.000000 1.000000,733.000000 
	C1.000000,489.058167 1.000000,245.116318 1.000000,1.000000 
	C332.696014,1.000000 664.392090,1.000000 996.434326,1.354879 
	C993.195190,4.071451 988.373901,5.629799 986.229675,8.928322 
	C974.458679,27.036373 963.363220,45.582901 951.981567,63.945206 
	C950.293335,66.668877 948.831543,70.644829 946.362732,71.532715 
	C941.745605,73.193214 936.352539,73.880127 931.511536,73.239662 
	C929.054626,72.914612 927.099915,68.814545 924.910889,66.427757 
	C924.460754,65.937027 923.973572,65.480522 923.511658,65.000381 
	C915.235779,56.397247 906.938293,47.814716 898.694641,39.180809 
	C893.557434,33.800495 888.054382,28.690933 883.500732,22.847908 
	C873.275146,9.727194 853.544006,11.047580 847.160095,26.172110 
	C838.798767,45.981201 831.014832,66.095543 824.321899,86.517517 
	C821.593262,94.843361 816.481384,97.538872 809.310181,98.916458 
	C807.318176,99.299133 804.672119,99.425003 803.126404,98.427994 
	C797.011536,94.483849 791.211609,90.051056 785.300049,85.792381 
	C772.159058,76.325615 759.243347,66.524460 745.814636,57.485252 
	C734.170898,49.647495 719.400513,54.841541 715.203796,66.037895 
	C712.465271,73.344086 711.366028,81.327431 710.064087,89.096527 
	C707.193604,106.225052 704.667725,123.411247 701.979614,140.570526 
	C701.559265,143.253708 688.787231,151.330399 686.169067,150.603531 
	C685.867859,150.519928 685.646729,150.180023 685.349304,150.046066 
	C681.241638,148.196030 677.110657,146.397202 673.017151,144.516525 
	C656.346863,136.857635 639.689636,129.170197 623.023499,121.502129 
	C606.114380,113.722214 589.625244,125.118187 590.993042,142.867523 
	C591.372009,147.785248 591.843506,152.705017 591.967712,157.631516 
	C592.385864,174.215775 592.666748,190.803482 592.999573,207.389893 
	C593.002930,207.556458 592.938477,207.756958 593.008850,207.884995 
	C595.915771,213.175400 591.675110,215.556641 588.496826,217.821701 
	C585.097290,220.244431 582.651184,224.535904 576.998840,223.065536 
	C559.537781,218.523315 542.011230,214.205887 524.413269,210.230087 
	C517.156738,208.590698 509.676483,207.431839 502.256714,207.152954 
	C492.701508,206.793793 482.012726,220.078354 484.094147,229.251465 
	C489.338898,252.365601 494.678436,275.460876 500.338715,298.475494 
	C501.244751,302.159485 500.768646,304.211121 498.513336,307.322296 
	C493.991882,313.559479 489.752747,317.064575 481.064880,315.324738 
	C472.103546,313.530151 462.622803,314.304138 453.367584,314.008209 
	C441.948395,313.643097 430.527771,313.320679 419.107117,313.002991 
	C401.839172,312.522583 391.905792,330.063110 399.335175,344.805298 
	C401.580048,349.259796 404.254700,353.649139 405.537903,358.391541 
	C406.677124,362.601807 408.731445,363.077423 412.437042,363.071808 
	C477.761658,362.972595 543.086548,363.028442 608.411011,362.882050 
	C610.702698,362.876923 613.519165,361.690552 615.190308,360.105255 
	C623.317566,352.395538 630.773621,343.951263 639.145996,336.532959 
	C654.333801,323.075836 669.724304,309.815216 685.541199,297.108612 
	C704.980164,281.492188 726.290100,268.618652 748.029053,256.447479 
	C772.822144,242.566452 798.677734,230.973404 825.371094,221.401108 
	C849.785095,212.646179 874.765015,205.708267 900.295776,200.782791 
	C903.968445,200.074249 905.698547,200.975525 907.758118,203.234482 
	C911.984924,207.870636 916.197449,212.524170 920.556458,217.034592 
	C932.673340,229.572479 944.868225,242.034927 957.008240,254.550507 
	C957.786926,255.353287 958.261658,256.452240 959.045349,257.248474 
	C964.526123,262.816956 969.534546,269.019775 975.690979,273.711548 
	C983.628418,279.760742 992.925659,282.140778 1003.279236,281.187469 
	C1011.194397,280.458679 1018.313965,278.261505 1024.124023,273.205444 
	C1034.086914,264.535370 1043.638184,255.382950 1053.195190,246.258041 
	C1064.962158,235.023102 1076.532471,223.582397 1088.242432,212.287231 
	C1092.156128,208.512238 1096.196777,204.864883 1100.278076,201.271271 
	C1101.043701,200.597107 1102.396973,199.941879 1103.278687,200.145508 
	C1115.668213,203.006729 1128.068115,205.843918 1140.377075,209.028748 
	C1168.772339,216.375732 1196.355469,226.159439 1222.913086,238.549042 
	C1248.074829,250.287460 1272.809448,262.993164 1295.503540,279.137268 
	C1311.762817,290.703796 1327.614502,302.854889 1343.425171,315.034454 
	C1349.790771,319.937988 1355.726685,325.439423 1361.565796,330.976990 
	C1371.432739,340.334259 1381.302979,349.714417 1390.624512,359.600861 
	C1392.813232,361.922028 1394.441040,363.046539 1397.441040,363.036713 
	C1418.604736,362.967529 1439.768677,363.000000 1460.932617,363.000000 
	C1505.426758,363.000000 1549.921143,362.969543 1594.415039,363.061310 
	C1597.755981,363.068207 1599.836060,362.494049 1601.119873,358.944946 
	C1602.864258,354.122559 1605.468628,349.617584 1607.578369,344.919922 
	C1613.833374,330.992188 1606.958862,315.605042 1592.178223,313.780518 
	C1586.913330,313.130615 1581.474731,313.887085 1576.115479,313.999542 
	C1560.195679,314.333588 1544.274902,314.632904 1528.356812,315.035889 
	C1525.935059,315.097168 1523.507202,315.984192 1521.115112,315.858673 
	C1518.650513,315.729401 1515.645020,315.531891 1513.918701,314.103912 
	C1511.238159,311.886597 1509.646973,308.404602 1507.196899,305.837830 
	C1505.526733,304.088135 1505.315186,302.800049 1505.887329,300.406799 
	C1511.135010,278.455566 1516.064087,256.428436 1521.215576,234.453812 
	C1525.528076,216.057861 1512.779419,203.364105 1494.248413,207.424988 
	C1474.113892,211.837265 1454.197388,217.238297 1434.099609,221.830643 
	C1429.965820,222.775208 1425.383545,224.915451 1421.185059,220.758469 
	C1416.708130,216.325836 1411.340820,213.026382 1412.821289,205.041122 
	C1414.042603,198.452652 1413.703369,191.569748 1413.982056,184.814255 
	C1414.091919,182.152405 1413.887817,179.476517 1414.023315,176.817047 
	C1414.644043,164.640427 1415.996094,152.458389 1415.830811,140.295334 
	C1415.628662,125.423615 1402.307129,115.998672 1389.386230,119.987213 
	C1384.649048,121.449532 1379.965820,123.201187 1375.450562,125.246208 
	C1361.663818,131.490463 1347.917480,137.829941 1334.261108,144.353638 
	C1325.873535,148.360321 1317.650757,153.331787 1308.937866,145.370575 
	C1307.320557,143.892807 1305.552246,141.921646 1305.133423,139.911560 
	C1303.745239,133.248444 1303.020142,126.450455 1301.898071,119.728020 
	C1299.309448,104.219673 1296.229126,88.780869 1294.108032,73.210358 
	C1291.762573,55.992622 1272.911499,48.955891 1260.808838,57.636253 
	C1241.994873,71.130219 1223.199341,84.650398 1204.313721,98.043251 
	C1202.920044,99.031593 1200.734253,99.748734 1199.141357,99.438560 
	C1195.539795,98.737366 1192.028320,97.445335 1188.586304,96.118187 
	C1187.279663,95.614357 1185.658447,94.585884 1185.206909,93.404243 
	C1177.064331,72.101540 1168.384888,50.966133 1161.291748,29.312904 
	C1156.121948,13.531276 1136.226440,8.902740 1124.877441,20.649555 
	C1121.329224,24.322168 1118.038452,28.242281 1114.526367,31.951151 
	C1107.234863,39.651245 1099.812134,47.227596 1092.561768,54.965782 
	C1086.839966,61.072495 1081.295410,67.345169 1075.700806,73.512405 
	C1070.233154,72.981224 1064.728638,72.446472 1059.431274,71.931839 
	C1058.875977,70.802834 1058.517456,69.889374 1058.009521,69.068451 
	C1047.399414,51.923183 1036.775391,34.786438 1026.147095,17.652443 
	C1021.976746,10.929358 1017.878662,4.130057 1010.000000,1.000000 
	C1340.258911,1.000000 1670.517822,1.000000 2001.000000,1.000000 
	C2001.000000,279.696014 2001.000000,558.392090 2000.630615,837.435791 
	C1999.844604,837.105225 1999.182129,836.472473 1999.047363,835.742249 
	C1994.788696,812.668518 1980.552124,798.425110 1958.829590,791.507263 
	C1946.076782,787.445984 1932.865112,787.106201 1919.470337,788.874939 
	C1902.437256,791.124207 1887.786133,797.412720 1876.637573,810.850403 
	C1874.825317,813.034790 1872.946045,815.163635 1870.552124,817.954224 
	C1868.462402,810.843201 1866.624756,804.719666 1864.866455,798.573425 
	C1862.702148,791.008118 1862.730591,791.000000 1854.583008,791.000000 
	C1841.812500,791.000000 1829.041992,791.000000 1816.281616,791.000000 
	C1816.281616,856.608704 1816.281616,921.676758 1816.281616,986.705750 
	C1836.633911,986.705750 1856.703125,986.705750 1877.000000,986.705750 
	C1877.000000,982.768616 1876.909058,979.121033 1877.014160,975.479126 
	C1878.028809,940.317200 1874.182251,904.992493 1879.230469,870.007080 
	C1881.890381,851.574097 1886.813232,840.394958 1907.505737,836.144531 
	C1917.935425,834.002197 1932.052734,839.266968 1935.559937,848.498474 
	C1938.385742,855.936646 1940.647095,864.095947 1940.762817,871.970459 
	C1941.299316,908.461731 1941.000000,944.965210 1941.000000,981.464355 
	C1941.000000,983.231079 1941.000000,984.997803 1941.000000,987.000000 
	C1961.382202,987.000000 1981.191040,987.000000 2001.000000,987.000000 
	C2001.000000,1141.289551 2001.000000,1295.579224 2001.000000,1450.000000 
	C1670.970581,1450.000000 1340.941284,1450.000000 1010.564087,1449.646484 
	C1016.013672,1448.071167 1019.384033,1443.826050 1022.268921,1439.224487 
	C1034.522461,1419.679565 1046.645264,1400.052856 1058.889038,1380.501831 
	C1059.354126,1379.759277 1060.532959,1379.174438 1061.450195,1379.052979 
	C1066.241577,1378.418701 1071.055908,1377.957886 1075.189575,1377.509644 
	C1076.669800,1379.057861 1077.773193,1380.250122 1078.917236,1381.401855 
	C1082.675659,1385.184937 1086.564087,1388.845703 1090.194946,1392.746948 
	C1102.111694,1405.551636 1113.470215,1418.916870 1125.938477,1431.154663 
	C1136.810059,1441.825195 1154.917480,1438.100342 1160.596924,1423.672485 
	C1168.478760,1403.649292 1175.463867,1383.274414 1183.136841,1363.166138 
	C1184.433472,1359.768066 1184.500122,1355.006714 1189.669434,1354.049194 
	C1192.669434,1353.493652 1195.567993,1352.380615 1198.571289,1351.856079 
	C1200.141235,1351.581787 1202.149170,1351.514282 1203.416748,1352.267090 
	C1206.471680,1354.081177 1209.179932,1356.471069 1212.076172,1358.561890 
	C1228.753052,1370.601318 1245.020020,1383.278442 1262.282349,1394.411377 
	C1273.362427,1401.557251 1289.976929,1395.327026 1292.928589,1381.627197 
	C1294.701294,1373.398682 1295.710938,1365.006592 1297.094238,1356.693115 
	C1299.383179,1342.937622 1301.892944,1329.214722 1303.904541,1315.418945 
	C1304.715210,1309.860229 1306.534912,1305.795776 1312.245117,1303.900513 
	C1315.959839,1302.667603 1318.693481,1299.435425 1323.608032,1301.776733 
	C1343.955078,1311.468994 1364.524414,1320.697266 1385.056396,1329.997925 
	C1397.349487,1335.566528 1412.598389,1329.334717 1414.871948,1315.515747 
	C1415.697876,1310.495239 1415.078491,1305.223022 1414.985840,1300.067993 
	C1414.690796,1283.645630 1414.347046,1267.224243 1413.968994,1250.803711 
	C1413.943481,1249.695435 1413.165771,1248.566895 1413.270264,1247.500000 
	C1413.654907,1243.569336 1413.345093,1239.180664 1415.065186,1235.888428 
	C1416.565063,1233.017578 1420.333130,1231.211426 1423.330444,1229.297241 
	C1424.706543,1228.418457 1426.787476,1227.754395 1428.292969,1228.101685 
	C1450.263184,1233.172241 1472.110107,1238.807129 1494.158691,1243.497314 
	C1506.686401,1246.161987 1517.901978,1243.080322 1521.273071,1228.776611 
	C1522.784180,1222.364380 1520.903076,1214.859741 1519.436768,1208.094482 
	C1515.167969,1188.398682 1510.329590,1168.826294 1505.726807,1149.202637 
	C1505.562744,1148.503418 1505.177002,1147.493896 1505.488770,1147.101074 
	C1508.632568,1143.142212 1511.392944,1138.591553 1515.347046,1135.684326 
	C1517.334961,1134.222778 1521.555176,1135.802002 1524.766602,1135.995728 
	C1525.264771,1136.025879 1525.766846,1135.983643 1526.266113,1136.002441 
	C1535.021362,1136.332275 1543.775024,1136.706543 1552.531860,1136.989136 
	C1564.118652,1137.363159 1575.713745,1137.530640 1587.294556,1138.032959 
	C1603.342285,1138.729126 1614.411499,1122.545776 1608.203247,1108.599487 
	C1605.917603,1103.464478 1603.649780,1098.314453 1601.610840,1093.078857 
	C1600.130127,1089.276489 1597.906982,1087.880371 1593.584961,1087.885742 
	C1479.754272,1088.029663 1365.923340,1088.031006 1252.092651,1087.874268 
	C1248.008179,1087.868652 1245.357788,1089.319824 1243.376953,1092.265137 
	C1238.331909,1099.766357 1235.405884,1108.002075 1234.938110,1117.154907 
	C1234.562378,1124.509766 1233.749390,1131.848999 1232.929077,1139.172729 
	C1231.712769,1150.029907 1230.256714,1160.860107 1229.018677,1171.714966 
	C1227.926147,1181.293945 1227.036987,1190.895996 1225.914673,1200.471069 
	C1225.809937,1201.364868 1224.841797,1202.576904 1223.991699,1202.902344 
	C1203.447266,1210.765503 1183.031860,1219.013672 1162.247559,1226.191284 
	C1133.456787,1236.134155 1103.787720,1242.622803 1073.491577,1245.975952 
	C1056.580566,1247.847534 1039.658447,1250.023682 1022.683899,1250.792358 
	C1007.974243,1251.458374 993.152039,1250.823486 978.436890,1249.874023 
	C960.972168,1248.747437 943.478882,1247.299072 926.164551,1244.824341 
	C909.215942,1242.401855 892.277832,1239.293457 875.698975,1235.061035 
	C857.191162,1230.336182 838.951599,1224.419922 820.864502,1218.235107 
	C807.963501,1213.823608 795.507202,1208.111450 782.851746,1202.981445 
	C780.454651,1202.009521 779.282715,1200.719360 778.807678,1197.687378 
	C777.436157,1188.933472 775.065613,1180.341431 773.311218,1171.640747 
	C769.795044,1154.202515 766.585999,1136.701172 762.933594,1119.292236 
	C761.054077,1110.333984 758.481506,1101.521606 756.247681,1092.636841 
	C755.283203,1088.800781 752.896973,1087.891479 749.022766,1087.904419 
	C704.195679,1088.054199 659.367920,1088.000000 614.540344,1088.000000 
	C569.041321,1088.000000 523.542297,1088.000000 478.043304,1088.000000 
	C455.710449,1088.000000 433.377319,1087.955322 411.045380,1088.095215 
	C409.470642,1088.105103 407.088867,1089.064941 406.473419,1090.284790 
	C403.583618,1096.012329 401.158051,1101.975830 398.607819,1107.872803 
	C392.353851,1122.334106 402.672363,1138.025024 418.506866,1137.951782 
	C423.429901,1137.929077 428.345795,1137.158813 433.272705,1137.031982 
	C449.525391,1136.613770 465.781616,1136.333008 482.036499,1136.000488 
	C482.536316,1135.990112 483.129486,1136.165527 483.522339,1135.957764 
	C490.058868,1132.501221 493.822632,1136.780029 496.535400,1141.408813 
	C498.148712,1144.161743 502.359070,1145.340820 501.124146,1150.186401 
	C496.667389,1167.672974 492.698212,1185.284546 488.604279,1202.862549 
	C486.994446,1209.774536 483.760254,1216.883301 484.366791,1223.623169 
	C485.877502,1240.410278 497.062469,1246.632080 512.130676,1243.696289 
	C531.246643,1239.971680 550.056458,1234.672119 568.992371,1230.028076 
	C581.273254,1227.016357 581.329712,1226.928833 590.593811,1235.195190 
	C591.882629,1236.345337 592.905273,1238.567261 592.887512,1240.280884 
	C592.783203,1250.371704 592.292847,1260.457764 592.011047,1270.547485 
	C591.636353,1283.968018 591.439575,1297.394165 590.970398,1310.811157 
	C590.496460,1324.365479 604.625549,1335.725586 618.600708,1330.937256 
	C623.755981,1329.171143 628.765503,1326.931519 633.727966,1324.659912 
	C647.489807,1318.360229 661.218201,1311.985718 674.906982,1305.528687 
	C682.124207,1302.124268 689.010925,1298.212158 696.686584,1305.030762 
	C699.365356,1307.410400 702.287964,1308.619019 702.173523,1313.124878 
	C702.063965,1317.435669 703.307495,1321.791260 704.049377,1326.111328 
	C707.012024,1343.362305 710.258179,1360.569580 712.891052,1377.870361 
	C714.183228,1386.360718 718.466248,1392.125732 726.034363,1395.477539 
	C734.148254,1399.071167 741.669312,1396.767456 748.475098,1391.943726 
	C763.933105,1380.987549 779.666321,1370.356079 794.468567,1358.564453 
	C802.278259,1352.343140 809.333374,1349.842896 818.185730,1355.006470 
	C819.323669,1355.670044 820.746094,1356.529663 821.170227,1357.631958 
	C829.187134,1378.469238 837.298096,1399.275635 844.892639,1420.268188 
	C848.711548,1430.824341 857.257935,1438.093018 867.798767,1436.961548 
	C874.685425,1436.222412 879.803772,1432.699707 884.407898,1427.340088 
	C892.066956,1418.424316 900.604736,1410.265381 908.734741,1401.751587 
	C914.333252,1395.888916 920.101074,1390.164795 925.364807,1384.012207 
	C930.479736,1378.033203 934.317200,1376.667847 941.940125,1378.292725 
	C946.065918,1379.172119 948.328674,1380.982178 950.577026,1384.763550 
	C959.976868,1400.572144 970.324585,1415.816528 979.756226,1431.607422 
	C984.245056,1439.122925 988.117065,1446.789673 997.000000,1450.000000 
M709.028809,597.284668 
	C713.571045,604.908569 718.083130,612.550598 722.661255,620.152893 
	C735.801453,641.973022 748.996155,663.760498 762.083984,685.612000 
	C763.462402,687.913391 764.797058,689.115173 767.783569,689.090576 
	C788.614258,688.919189 809.446960,689.003723 830.279053,688.986267 
	C831.160522,688.985535 832.041870,688.788269 833.368652,688.629272 
	C808.548035,651.719604 784.065430,615.312500 759.567871,578.883240 
	C761.850037,577.437683 763.598633,576.281189 765.393127,575.201111 
	C778.361084,567.396240 789.782654,557.689392 796.811096,544.222534 
	C806.928955,524.835938 806.446350,504.146393 800.179016,483.836426 
	C793.652649,462.686829 777.940186,450.167389 757.584595,443.026123 
	C741.770630,437.478210 725.292664,435.354462 708.678589,435.107300 
	C681.852783,434.708191 655.016724,435.000000 628.184998,435.000000 
	C626.570862,435.000000 624.956726,435.000000 623.241943,435.000000 
	C623.241943,519.867432 623.241943,604.266235 623.241943,688.746216 
	C643.886475,688.746216 664.288147,688.746216 685.109131,688.746216 
	C685.109131,657.091675 685.109131,625.688110 685.109131,594.000427 
	C691.829590,594.000427 698.140320,593.841797 704.432495,594.114197 
	C705.964783,594.180542 707.435730,595.662964 709.028809,597.284668 
M926.651978,790.002625 
	C909.724304,794.034180 897.430542,804.424011 887.927368,818.490967 
	C875.264282,837.235535 871.995178,858.782654 871.278809,880.557129 
	C870.805969,894.928772 872.114075,909.519287 874.220947,923.775879 
	C876.990173,942.514282 884.159729,959.441406 898.362183,973.018677 
	C916.797974,990.642944 938.647827,993.182617 962.098999,988.287659 
	C976.379517,985.306946 987.058716,976.391418 995.033997,964.346619 
	C997.367126,960.823059 998.534424,961.591797 1000.003906,964.823608 
	C1003.389893,972.269897 1006.888977,979.664795 1010.208130,986.792603 
	C1026.036133,986.792603 1041.317017,986.792603 1056.787109,986.792603 
	C1056.787109,896.854492 1056.787109,807.123901 1056.787109,717.224365 
	C1036.505859,717.224365 1016.437927,717.224365 996.000000,717.224365 
	C996.000000,728.403503 996.000000,739.362427 996.000000,750.321289 
	C996.000000,761.487061 995.638184,772.667969 996.104553,783.814209 
	C996.546570,794.380737 997.856628,804.910950 998.848633,816.180664 
	C979.733276,788.058411 953.306885,784.533569 926.651978,790.002625 
M562.519653,987.000000 
	C573.614807,987.000000 584.709961,987.000000 595.681702,987.000000 
	C595.681702,921.318054 595.681702,856.249634 595.681702,791.330994 
	C575.291931,791.330994 555.221924,791.330994 535.000000,791.330994 
	C535.000000,823.149048 535.219482,854.638916 534.862183,886.122131 
	C534.758972,895.211304 533.827759,904.469482 531.825195,913.321960 
	C527.503662,932.425354 518.144409,942.798584 496.424896,941.878662 
	C487.983490,941.521057 481.038116,937.937012 476.856873,929.677368 
	C472.369415,920.812683 471.243286,911.295715 471.145111,901.817505 
	C470.780975,866.655273 471.000000,831.487061 471.000000,796.321045 
	C471.000000,794.574951 471.000000,792.828857 471.000000,791.198914 
	C450.322144,791.198914 430.370728,791.198914 410.000000,791.198914 
	C410.000000,793.177368 410.000000,794.964600 410.000000,796.751892 
	C410.000000,834.417847 409.780396,872.085815 410.137268,909.748413 
	C410.240814,920.675049 411.515350,931.656311 413.100952,942.488464 
	C415.745483,960.554932 426.049164,973.462524 441.957245,981.966187 
	C454.971100,988.922729 468.993988,991.356506 483.590546,989.924927 
	C491.482330,989.150879 499.452484,988.210999 507.114105,986.268494 
	C520.379578,982.905396 530.792847,974.882446 538.565125,963.747864 
	C541.068604,960.161316 541.867126,962.354736 542.602661,964.285278 
	C543.972839,967.881592 545.089355,971.603210 545.966492,975.353394 
	C548.687256,986.985291 548.624390,987.000000 560.530029,987.000000 
	C560.863342,987.000000 561.196716,987.000000 562.519653,987.000000 
M661.503357,987.000000 
	C676.599182,987.000000 691.695068,987.000000 707.000000,987.000000 
	C707.000000,960.418945 707.104126,934.438782 706.958557,908.460022 
	C706.879150,894.280762 707.010681,880.145508 710.010498,866.207642 
	C711.756836,858.093628 714.254089,850.314819 720.303162,844.193787 
	C725.072083,839.367981 731.140198,837.089355 737.590027,836.272461 
	C748.604370,834.877441 760.483643,836.725769 766.096680,849.828918 
	C768.772217,856.074707 770.707153,863.169983 770.787659,869.906677 
	C771.231750,907.067810 771.000000,944.236938 771.000000,981.403381 
	C771.000000,983.175964 771.000000,984.948547 771.000000,986.721436 
	C791.601746,986.721436 811.671082,986.721436 832.000000,986.721436 
	C832.000000,984.637878 832.000000,982.830322 832.000000,981.022827 
	C832.000000,942.523071 832.124939,904.022705 831.908691,865.524109 
	C831.857178,856.353271 831.373291,847.069275 829.851013,838.046143 
	C826.666443,819.170837 817.303284,804.403931 799.434448,795.788269 
	C783.434265,788.073486 766.743042,786.673889 749.378052,788.942444 
	C729.533875,791.534851 713.466553,800.208130 701.366699,818.215332 
	C698.138977,808.654541 695.215454,799.994812 692.271851,791.275696 
	C677.098450,791.275696 661.681396,791.275696 646.288330,791.275696 
	C646.288330,856.620728 646.288330,921.689575 646.288330,987.000000 
	C651.218018,987.000000 655.861389,987.000000 661.503357,987.000000 
M988.949097,671.625732 
	C990.351624,676.578857 991.524109,681.617615 993.315125,686.425964 
	C993.773926,687.657776 996.176086,688.865967 997.703613,688.889099 
	C1010.532166,689.083862 1023.364990,689.000000 1036.196533,689.000000 
	C1037.773315,689.000000 1039.350220,689.000000 1040.627441,689.000000 
	C1040.627441,623.531921 1040.627441,558.802185 1040.627441,494.205841 
	C1020.304626,494.205841 1000.354919,494.205841 980.000000,494.205841 
	C980.000000,496.026794 980.000000,497.648804 980.000000,499.270813 
	C980.000000,527.100220 980.385376,554.937561 979.816772,582.755371 
	C979.577942,594.439331 978.132263,606.254333 975.704712,617.684814 
	C974.001099,625.706543 970.607910,633.551880 962.973083,638.693665 
	C955.259949,643.888367 946.758667,644.921021 938.154297,643.786743 
	C930.384094,642.762451 923.613647,638.812927 921.058411,630.676697 
	C918.950134,623.963562 916.312683,617.012207 916.224060,610.136597 
	C915.749329,573.314514 916.000000,536.483154 916.000000,499.654968 
	C916.000000,497.877014 916.000000,496.099030 916.000000,494.254822 
	C895.442444,494.254822 875.375244,494.254822 855.000000,494.254822 
	C855.000000,496.307068 855.000000,498.108185 855.000000,499.909302 
	C855.000000,540.570251 854.967712,581.231262 855.020264,621.892151 
	C855.035522,633.667297 856.524292,645.168945 860.925720,656.275146 
	C867.744690,673.481628 880.887878,683.559998 897.827087,688.868652 
	C911.971436,693.301514 926.520264,694.112671 941.262451,691.072449 
	C957.103027,687.805786 971.336609,682.090271 981.168518,668.381104 
	C982.464478,666.574036 984.165833,665.057800 986.299683,662.730286 
	C987.239929,666.328918 987.845154,668.645264 988.949097,671.625732 
M1159.818115,790.040466 
	C1159.069702,790.356018 1158.346802,790.847168 1157.568848,790.960876 
	C1143.739014,792.980774 1130.715942,797.541809 1118.114136,803.430237 
	C1115.972778,804.430847 1114.149902,805.147034 1115.736694,808.511292 
	C1121.601318,820.944824 1127.049194,833.575012 1132.729248,846.300598 
	C1135.777832,845.098877 1138.466919,844.056396 1141.142822,842.981140 
	C1157.182739,836.536316 1173.443115,830.985474 1191.094727,832.037964 
	C1200.016724,832.569946 1209.384521,836.611755 1212.605225,846.412659 
	C1214.287354,851.531128 1214.410034,857.162048 1215.246094,862.619934 
	C1212.417358,863.158447 1210.219238,863.858215 1207.995361,863.952271 
	C1197.581177,864.392822 1187.161743,864.770386 1176.740356,864.975830 
	C1160.683594,865.292358 1145.018677,867.947449 1130.225098,874.123657 
	C1114.289185,880.776794 1102.241943,891.278076 1097.832520,909.117981 
	C1094.874023,921.088684 1095.097656,932.877930 1096.987549,944.842834 
	C1099.245239,959.135925 1105.898438,970.568787 1117.644897,979.375977 
	C1129.327148,988.134949 1142.870239,989.876831 1156.577271,990.803650 
	C1162.830933,991.226440 1169.226685,989.729614 1175.544189,988.985840 
	C1186.915039,987.646912 1197.063110,983.343994 1205.656616,975.766907 
	C1210.881348,971.160095 1215.770264,966.172302 1221.068848,961.108276 
	C1224.395996,968.646973 1227.626831,976.164856 1231.068726,983.584839 
	C1231.692017,984.928467 1233.163452,986.833679 1234.270630,986.852295 
	C1247.715088,987.078125 1261.164795,986.998840 1275.000000,986.998840 
	C1275.000000,984.787964 1275.000000,982.997375 1275.000000,981.206848 
	C1275.000000,945.049805 1275.070068,908.892456 1274.954224,872.735779 
	C1274.922485,862.821289 1274.875000,852.853027 1273.866455,843.008606 
	C1272.533447,829.997742 1267.509033,818.216248 1258.216064,808.825684 
	C1244.385986,794.850342 1226.677002,789.012329 1207.695679,788.262146 
	C1192.080688,787.645081 1176.374390,789.335632 1159.818115,790.040466 
M371.000000,890.488831 
	C371.359741,873.884033 369.428406,857.612183 362.933746,842.205017 
	C355.881897,825.476074 345.230103,811.568237 329.428833,802.104431 
	C317.086884,794.712463 303.853882,790.346802 289.391815,788.806519 
	C273.356384,787.098694 257.614716,787.776001 242.210693,792.122742 
	C223.239807,797.476013 207.497177,807.779663 196.109756,824.325745 
	C184.602127,841.046509 180.489639,860.014893 179.108749,879.699707 
	C178.083557,894.314392 179.241241,908.947083 183.071915,923.134399 
	C189.840164,948.201111 203.641617,968.087585 227.337723,979.991455 
	C243.706604,988.214294 261.124146,990.958435 279.453461,990.192749 
	C291.622894,989.684448 303.394989,988.123474 314.793091,983.965637 
	C335.453064,976.429016 350.791779,962.679810 360.366089,943.006165 
	C368.230743,926.845520 371.067444,909.402527 371.000000,890.488831 
M1756.549316,956.956665 
	C1759.030518,952.993835 1761.869507,949.208130 1763.934570,945.039185 
	C1776.892212,918.880554 1778.334961,891.042969 1773.717285,862.993713 
	C1770.326294,842.395630 1761.008667,824.354187 1744.815063,810.141296 
	C1728.587402,795.898499 1709.432861,789.509583 1688.534546,788.227112 
	C1678.120117,787.587952 1667.509399,788.896484 1657.076660,790.098450 
	C1641.326294,791.913086 1627.234497,798.259399 1615.155762,808.439575 
	C1593.973877,826.291809 1585.937256,850.440979 1584.157837,877.039001 
	C1583.510132,886.718872 1584.502686,896.528381 1585.036377,906.262878 
	C1585.826660,920.677673 1590.110718,934.123962 1597.250488,946.619995 
	C1607.849609,965.170593 1623.326904,978.015808 1643.511230,984.956604 
	C1661.393677,991.105896 1679.762085,991.471191 1698.367065,989.059631 
	C1721.755859,986.028198 1741.210815,976.039551 1756.549316,956.956665 
M1104.045898,640.558289 
	C1096.467041,637.752502 1088.888306,634.946716 1081.000000,632.026428 
	C1081.000000,647.626221 1080.904541,662.782288 1081.141479,677.933228 
	C1081.166260,679.521667 1082.818726,681.955444 1084.282349,682.514893 
	C1097.632324,687.617371 1111.479126,691.049561 1125.739502,691.869019 
	C1137.041992,692.518494 1148.412720,691.898499 1159.750977,692.028259 
	C1171.449463,692.162170 1182.709595,689.965698 1193.630981,685.971069 
	C1210.227295,679.900757 1222.136108,669.060669 1228.062378,652.045105 
	C1232.017334,640.689148 1232.697632,629.087524 1230.916748,617.360962 
	C1229.134155,605.623474 1224.099121,595.147461 1214.895752,587.619873 
	C1203.448975,578.257202 1189.708984,572.769775 1176.230347,566.906921 
	C1165.619995,562.291687 1155.253784,557.097900 1144.897705,551.923889 
	C1141.008911,549.980896 1139.510986,546.395142 1139.987305,542.008484 
	C1140.449097,537.755432 1143.429199,536.017578 1146.987427,534.992126 
	C1153.623047,533.079895 1160.219238,533.007385 1167.203857,533.773376 
	C1180.245361,535.203552 1192.334961,539.514648 1204.318970,544.178955 
	C1212.734009,547.454102 1212.603271,547.993835 1215.973999,540.080933 
	C1220.734497,528.905273 1225.382324,517.681702 1230.039429,506.572083 
	C1229.401123,505.964172 1229.101562,505.489044 1228.675171,505.300201 
	C1209.769043,496.926117 1190.131714,491.081207 1169.410522,490.103546 
	C1150.387451,489.206024 1131.510986,490.380768 1113.590332,497.975922 
	C1101.604614,503.055725 1091.855957,510.246582 1085.794678,522.384277 
	C1080.364014,533.259155 1080.333618,544.643250 1081.190918,555.985779 
	C1082.239868,569.864624 1088.801392,581.476440 1099.774536,590.177917 
	C1110.223633,598.463928 1122.350586,603.777893 1134.501221,609.071899 
	C1145.252686,613.756226 1155.914062,618.717163 1166.272095,624.203979 
	C1171.059082,626.739746 1174.234985,631.264343 1172.971436,637.374695 
	C1171.903564,642.538269 1167.855103,644.595703 1163.371338,645.987183 
	C1152.579956,649.336304 1141.688110,648.401001 1130.846924,646.375122 
	C1122.124023,644.745178 1113.464111,642.778259 1104.045898,640.558289 
M1331.999878,899.500000 
	C1332.666748,915.162537 1332.800049,930.872192 1334.179932,946.471680 
	C1335.169434,957.659851 1340.229248,967.809387 1348.323486,975.564026 
	C1358.529663,985.341858 1371.514893,989.425598 1385.515015,989.946350 
	C1393.493164,990.243042 1401.495850,990.161621 1409.478271,989.930359 
	C1413.363037,989.817932 1417.321045,989.341797 1421.080566,988.382629 
	C1429.758667,986.168518 1438.335938,983.558899 1446.785645,981.157593 
	C1446.785645,965.707581 1446.785645,950.923218 1446.785645,935.731323 
	C1445.249146,936.089905 1443.980713,936.301086 1442.765747,936.682739 
	C1432.647217,939.861511 1422.417480,942.481445 1411.695312,941.974915 
	C1400.570435,941.449341 1393.114868,935.190735 1393.048096,923.271667 
	C1392.895874,896.118530 1393.000000,868.963867 1393.000000,841.809875 
	C1393.000000,840.232727 1393.000000,838.655640 1393.000000,836.672363 
	C1410.465454,836.672363 1427.199951,836.672363 1443.800049,836.672363 
	C1443.800049,821.310547 1443.800049,806.363647 1443.800049,791.004883 
	C1426.872314,791.004883 1410.138184,791.004883 1392.993408,791.004883 
	C1392.993408,777.528442 1392.993408,764.457947 1392.993408,751.001282 
	C1380.130615,751.001282 1367.678711,750.915466 1355.232910,751.150024 
	C1354.135376,751.170715 1352.624390,753.099915 1352.072144,754.455017 
	C1347.346680,766.053162 1342.869873,777.752808 1338.120117,789.340698 
	C1337.400757,791.095642 1335.925537,792.830078 1334.342651,793.893250 
	C1326.044434,799.467041 1317.580200,804.793213 1309.231079,810.292603 
	C1308.302002,810.904480 1307.119263,812.055481 1307.099609,812.978638 
	C1306.930786,820.905945 1307.002686,828.838379 1307.002686,837.174561 
	C1315.642700,837.174561 1323.717163,837.174561 1332.000000,837.174561 
	C1332.000000,857.895020 1332.000000,878.197510 1331.999878,899.500000 
M1340.017090,633.158203 
	C1339.344727,629.520569 1338.112793,625.886536 1338.089478,622.244751 
	C1337.921997,596.095215 1338.000000,569.944092 1338.000000,543.793518 
	C1338.000000,542.218201 1338.000000,540.642822 1338.000000,538.663574 
	C1355.807251,538.663574 1372.872070,538.663574 1389.799561,538.663574 
	C1389.799561,523.639160 1389.799561,509.027496 1389.799561,494.006775 
	C1372.539673,494.006775 1355.473999,494.006775 1338.000488,494.006775 
	C1338.000488,480.201630 1338.000488,466.799683 1338.000488,453.202881 
	C1324.819458,453.202881 1312.050903,453.202881 1299.112549,453.202881 
	C1295.076538,463.345154 1291.151123,473.552368 1286.942627,483.641479 
	C1284.817261,488.736420 1283.642944,494.347748 1278.082642,497.551178 
	C1270.260864,502.057617 1262.751221,507.110229 1255.175415,512.033081 
	C1254.240234,512.640808 1253.119263,513.871765 1253.098999,514.835388 
	C1252.931885,522.774292 1253.004639,530.718323 1253.004639,539.069458 
	C1261.534668,539.069458 1269.608765,539.069458 1278.000000,539.069458 
	C1278.000000,541.113464 1278.000000,542.744141 1278.000000,544.374878 
	C1278.000000,570.525452 1277.828125,596.677795 1278.091675,622.825745 
	C1278.185669,632.157043 1278.528564,641.624512 1280.194702,650.768005 
	C1282.552246,663.705383 1288.726318,674.783630 1299.965942,682.528687 
	C1311.414062,690.417480 1324.615845,692.232727 1337.848145,692.819580 
	C1351.558228,693.427490 1365.200317,691.498230 1378.489380,687.795105 
	C1392.014404,684.026123 1392.000000,683.974548 1392.000000,669.953796 
	C1392.000000,659.352783 1392.000000,648.751709 1392.000000,637.893127 
	C1390.670776,638.122559 1389.839722,638.148743 1389.092529,638.412720 
	C1379.072632,641.954102 1368.882568,644.384094 1358.129761,644.039917 
	C1350.317749,643.789856 1344.094360,641.097717 1340.017090,633.158203 
M1483.000000,915.500000 
	C1483.000000,939.256775 1483.000000,963.013611 1483.000000,986.700562 
	C1503.318604,986.700562 1523.050903,986.700562 1542.707642,986.700562 
	C1542.707642,921.345032 1542.707642,856.289246 1542.707642,791.299316 
	C1522.681519,791.299316 1502.949219,791.299316 1483.000000,791.299316 
	C1483.000000,832.565552 1483.000000,873.532776 1483.000000,915.500000 
M1489.757080,720.028015 
	C1487.183105,723.332642 1483.214844,726.310669 1482.346924,730.014954 
	C1480.873901,736.302490 1480.561646,743.127258 1481.207153,749.581726 
	C1482.105103,758.560364 1487.391113,764.634705 1496.214355,767.755981 
	C1504.876099,770.820190 1513.856445,770.806030 1522.506104,769.713806 
	C1532.476318,768.454773 1541.461060,764.302551 1544.555542,753.014771 
	C1546.827271,744.728027 1546.415894,736.526978 1543.669189,728.581299 
	C1542.685303,725.735046 1540.422363,722.665466 1537.878662,721.132935 
	C1522.419312,711.818909 1506.522827,711.390320 1489.757080,720.028015 
z"/>
<path fill="#1D1D1B" opacity="1.000000" stroke="none" 
	d="
M997.463196,1450.000000 
	C988.117065,1446.789673 984.245056,1439.122925 979.756226,1431.607422 
	C970.324585,1415.816528 959.976868,1400.572144 950.577026,1384.763550 
	C948.328674,1380.982178 946.065918,1379.172119 941.940125,1378.292725 
	C934.317200,1376.667847 930.479736,1378.033203 925.364807,1384.012207 
	C920.101074,1390.164795 914.333252,1395.888916 908.734741,1401.751587 
	C900.604736,1410.265381 892.066956,1418.424316 884.407898,1427.340088 
	C879.803772,1432.699707 874.685425,1436.222412 867.798767,1436.961548 
	C857.257935,1438.093018 848.711548,1430.824341 844.892639,1420.268188 
	C837.298096,1399.275635 829.187134,1378.469238 821.170227,1357.631958 
	C820.746094,1356.529663 819.323669,1355.670044 818.185730,1355.006470 
	C809.333374,1349.842896 802.278259,1352.343140 794.468567,1358.564453 
	C779.666321,1370.356079 763.933105,1380.987549 748.475098,1391.943726 
	C741.669312,1396.767456 734.148254,1399.071167 726.034363,1395.477539 
	C718.466248,1392.125732 714.183228,1386.360718 712.891052,1377.870361 
	C710.258179,1360.569580 707.012024,1343.362305 704.049377,1326.111328 
	C703.307495,1321.791260 702.063965,1317.435669 702.173523,1313.124878 
	C702.287964,1308.619019 699.365356,1307.410400 696.686584,1305.030762 
	C689.010925,1298.212158 682.124207,1302.124268 674.906982,1305.528687 
	C661.218201,1311.985718 647.489807,1318.360229 633.727966,1324.659912 
	C628.765503,1326.931519 623.755981,1329.171143 618.600708,1330.937256 
	C604.625549,1335.725586 590.496460,1324.365479 590.970398,1310.811157 
	C591.439575,1297.394165 591.636353,1283.968018 592.011047,1270.547485 
	C592.292847,1260.457764 592.783203,1250.371704 592.887512,1240.280884 
	C592.905273,1238.567261 591.882629,1236.345337 590.593811,1235.195190 
	C581.329712,1226.928833 581.273254,1227.016357 568.992371,1230.028076 
	C550.056458,1234.672119 531.246643,1239.971680 512.130676,1243.696289 
	C497.062469,1246.632080 485.877502,1240.410278 484.366791,1223.623169 
	C483.760254,1216.883301 486.994446,1209.774536 488.604279,1202.862549 
	C492.698212,1185.284546 496.667389,1167.672974 501.124146,1150.186401 
	C502.359070,1145.340820 498.148712,1144.161743 496.535400,1141.408813 
	C493.822632,1136.780029 490.058868,1132.501221 483.522339,1135.957764 
	C483.129486,1136.165527 482.536316,1135.990112 482.036499,1136.000488 
	C465.781616,1136.333008 449.525391,1136.613770 433.272705,1137.031982 
	C428.345795,1137.158813 423.429901,1137.929077 418.506866,1137.951782 
	C402.672363,1138.025024 392.353851,1122.334106 398.607819,1107.872803 
	C401.158051,1101.975830 403.583618,1096.012329 406.473419,1090.284790 
	C407.088867,1089.064941 409.470642,1088.105103 411.045380,1088.095215 
	C433.377319,1087.955322 455.710449,1088.000000 478.043304,1088.000000 
	C523.542297,1088.000000 569.041321,1088.000000 614.540344,1088.000000 
	C659.367920,1088.000000 704.195679,1088.054199 749.022766,1087.904419 
	C752.896973,1087.891479 755.283203,1088.800781 756.247681,1092.636841 
	C758.481506,1101.521606 761.054077,1110.333984 762.933594,1119.292236 
	C766.585999,1136.701172 769.795044,1154.202515 773.311218,1171.640747 
	C775.065613,1180.341431 777.436157,1188.933472 778.807678,1197.687378 
	C779.282715,1200.719360 780.454651,1202.009521 782.851746,1202.981445 
	C795.507202,1208.111450 807.963501,1213.823608 820.864502,1218.235107 
	C838.951599,1224.419922 857.191162,1230.336182 875.698975,1235.061035 
	C892.277832,1239.293457 909.215942,1242.401855 926.164551,1244.824341 
	C943.478882,1247.299072 960.972168,1248.747437 978.436890,1249.874023 
	C993.152039,1250.823486 1007.974243,1251.458374 1022.683899,1250.792358 
	C1039.658447,1250.023682 1056.580566,1247.847534 1073.491577,1245.975952 
	C1103.787720,1242.622803 1133.456787,1236.134155 1162.247559,1226.191284 
	C1183.031860,1219.013672 1203.447266,1210.765503 1223.991699,1202.902344 
	C1224.841797,1202.576904 1225.809937,1201.364868 1225.914673,1200.471069 
	C1227.036987,1190.895996 1227.926147,1181.293945 1229.018677,1171.714966 
	C1230.256714,1160.860107 1231.712769,1150.029907 1232.929077,1139.172729 
	C1233.749390,1131.848999 1234.562378,1124.509766 1234.938110,1117.154907 
	C1235.405884,1108.002075 1238.331909,1099.766357 1243.376953,1092.265137 
	C1245.357788,1089.319824 1248.008179,1087.868652 1252.092651,1087.874268 
	C1365.923340,1088.031006 1479.754272,1088.029663 1593.584961,1087.885742 
	C1597.906982,1087.880371 1600.130127,1089.276489 1601.610840,1093.078857 
	C1603.649780,1098.314453 1605.917603,1103.464478 1608.203247,1108.599487 
	C1614.411499,1122.545776 1603.342285,1138.729126 1587.294556,1138.032959 
	C1575.713745,1137.530640 1564.118652,1137.363159 1552.531860,1136.989136 
	C1543.775024,1136.706543 1535.021362,1136.332275 1526.266113,1136.002441 
	C1525.766846,1135.983643 1525.264771,1136.025879 1524.766602,1135.995728 
	C1521.555176,1135.802002 1517.334961,1134.222778 1515.347046,1135.684326 
	C1511.392944,1138.591553 1508.632568,1143.142212 1505.488770,1147.101074 
	C1505.177002,1147.493896 1505.562744,1148.503418 1505.726807,1149.202637 
	C1510.329590,1168.826294 1515.167969,1188.398682 1519.436768,1208.094482 
	C1520.903076,1214.859741 1522.784180,1222.364380 1521.273071,1228.776611 
	C1517.901978,1243.080322 1506.686401,1246.161987 1494.158691,1243.497314 
	C1472.110107,1238.807129 1450.263184,1233.172241 1428.292969,1228.101685 
	C1426.787476,1227.754395 1424.706543,1228.418457 1423.330444,1229.297241 
	C1420.333130,1231.211426 1416.565063,1233.017578 1415.065186,1235.888428 
	C1413.345093,1239.180664 1413.654907,1243.569336 1413.270264,1247.500000 
	C1413.165771,1248.566895 1413.943481,1249.695435 1413.968994,1250.803711 
	C1414.347046,1267.224243 1414.690796,1283.645630 1414.985840,1300.067993 
	C1415.078491,1305.223022 1415.697876,1310.495239 1414.871948,1315.515747 
	C1412.598389,1329.334717 1397.349487,1335.566528 1385.056396,1329.997925 
	C1364.524414,1320.697266 1343.955078,1311.468994 1323.608032,1301.776733 
	C1318.693481,1299.435425 1315.959839,1302.667603 1312.245117,1303.900513 
	C1306.534912,1305.795776 1304.715210,1309.860229 1303.904541,1315.418945 
	C1301.892944,1329.214722 1299.383179,1342.937622 1297.094238,1356.693115 
	C1295.710938,1365.006592 1294.701294,1373.398682 1292.928589,1381.627197 
	C1289.976929,1395.327026 1273.362427,1401.557251 1262.282349,1394.411377 
	C1245.020020,1383.278442 1228.753052,1370.601318 1212.076172,1358.561890 
	C1209.179932,1356.471069 1206.471680,1354.081177 1203.416748,1352.267090 
	C1202.149170,1351.514282 1200.141235,1351.581787 1198.571289,1351.856079 
	C1195.567993,1352.380615 1192.669434,1353.493652 1189.669434,1354.049194 
	C1184.500122,1355.006714 1184.433472,1359.768066 1183.136841,1363.166138 
	C1175.463867,1383.274414 1168.478760,1403.649292 1160.596924,1423.672485 
	C1154.917480,1438.100342 1136.810059,1441.825195 1125.938477,1431.154663 
	C1113.470215,1418.916870 1102.111694,1405.551636 1090.194946,1392.746948 
	C1086.564087,1388.845703 1082.675659,1385.184937 1078.917236,1381.401855 
	C1077.773193,1380.250122 1076.669800,1379.057861 1075.189575,1377.509644 
	C1071.055908,1377.957886 1066.241577,1378.418701 1061.450195,1379.052979 
	C1060.532959,1379.174438 1059.354126,1379.759277 1058.889038,1380.501831 
	C1046.645264,1400.052856 1034.522461,1419.679565 1022.268921,1439.224487 
	C1019.384033,1443.826050 1016.013672,1448.071167 1010.108154,1449.646484 
	C1005.975464,1450.000000 1001.950928,1450.000000 997.463196,1450.000000 
M1356.969360,1148.718018 
	C1349.707153,1137.953979 1339.727783,1130.792603 1326.907837,1129.167114 
	C1310.188599,1127.047363 1296.057251,1132.604004 1285.937012,1146.607666 
	C1273.234375,1164.184814 1275.528809,1187.895630 1291.427490,1202.756836 
	C1305.629639,1216.032349 1325.685669,1218.063110 1342.268433,1208.276245 
	C1356.497925,1199.878174 1363.740723,1186.906494 1363.617798,1170.877686 
	C1363.562988,1163.724121 1359.367188,1156.602417 1356.969360,1148.718018 
M675.841553,1126.999878 
	C674.104553,1127.335083 672.335205,1127.553101 670.635681,1128.023560 
	C652.534485,1133.033325 640.340027,1149.125000 639.045288,1167.305786 
	C638.299683,1177.777222 641.736938,1187.207642 648.129333,1195.310425 
	C656.802673,1206.304443 668.639832,1212.488647 682.476013,1211.748413 
	C700.509033,1210.783569 713.869202,1201.661621 720.904846,1184.414307 
	C727.255493,1168.846436 723.979370,1152.951660 712.921143,1140.567993 
	C703.379822,1129.882935 690.979309,1125.776978 675.841553,1126.999878 
z"/>
<path fill="#1D1D1B" opacity="1.000000" stroke="none" 
	d="
M1009.536804,1.000000 
	C1017.878662,4.130057 1021.976746,10.929358 1026.147095,17.652443 
	C1036.775391,34.786438 1047.399414,51.923183 1058.009521,69.068451 
	C1058.517456,69.889374 1058.875977,70.802834 1059.431274,71.931839 
	C1064.728638,72.446472 1070.233154,72.981224 1075.700806,73.512405 
	C1081.295410,67.345169 1086.839966,61.072495 1092.561768,54.965782 
	C1099.812134,47.227596 1107.234863,39.651245 1114.526367,31.951151 
	C1118.038452,28.242281 1121.329224,24.322168 1124.877441,20.649555 
	C1136.226440,8.902740 1156.121948,13.531276 1161.291748,29.312904 
	C1168.384888,50.966133 1177.064331,72.101540 1185.206909,93.404243 
	C1185.658447,94.585884 1187.279663,95.614357 1188.586304,96.118187 
	C1192.028320,97.445335 1195.539795,98.737366 1199.141357,99.438560 
	C1200.734253,99.748734 1202.920044,99.031593 1204.313721,98.043251 
	C1223.199341,84.650398 1241.994873,71.130219 1260.808838,57.636253 
	C1272.911499,48.955891 1291.762573,55.992622 1294.108032,73.210358 
	C1296.229126,88.780869 1299.309448,104.219673 1301.898071,119.728020 
	C1303.020142,126.450455 1303.745239,133.248444 1305.133423,139.911560 
	C1305.552246,141.921646 1307.320557,143.892807 1308.937866,145.370575 
	C1317.650757,153.331787 1325.873535,148.360321 1334.261108,144.353638 
	C1347.917480,137.829941 1361.663818,131.490463 1375.450562,125.246208 
	C1379.965820,123.201187 1384.649048,121.449532 1389.386230,119.987213 
	C1402.307129,115.998672 1415.628662,125.423615 1415.830811,140.295334 
	C1415.996094,152.458389 1414.644043,164.640427 1414.023315,176.817047 
	C1413.887817,179.476517 1414.091919,182.152405 1413.982056,184.814255 
	C1413.703369,191.569748 1414.042603,198.452652 1412.821289,205.041122 
	C1411.340820,213.026382 1416.708130,216.325836 1421.185059,220.758469 
	C1425.383545,224.915451 1429.965820,222.775208 1434.099609,221.830643 
	C1454.197388,217.238297 1474.113892,211.837265 1494.248413,207.424988 
	C1512.779419,203.364105 1525.528076,216.057861 1521.215576,234.453812 
	C1516.064087,256.428436 1511.135010,278.455566 1505.887329,300.406799 
	C1505.315186,302.800049 1505.526733,304.088135 1507.196899,305.837830 
	C1509.646973,308.404602 1511.238159,311.886597 1513.918701,314.103912 
	C1515.645020,315.531891 1518.650513,315.729401 1521.115112,315.858673 
	C1523.507202,315.984192 1525.935059,315.097168 1528.356812,315.035889 
	C1544.274902,314.632904 1560.195679,314.333588 1576.115479,313.999542 
	C1581.474731,313.887085 1586.913330,313.130615 1592.178223,313.780518 
	C1606.958862,315.605042 1613.833374,330.992188 1607.578369,344.919922 
	C1605.468628,349.617584 1602.864258,354.122559 1601.119873,358.944946 
	C1599.836060,362.494049 1597.755981,363.068207 1594.415039,363.061310 
	C1549.921143,362.969543 1505.426758,363.000000 1460.932617,363.000000 
	C1439.768677,363.000000 1418.604736,362.967529 1397.441040,363.036713 
	C1394.441040,363.046539 1392.813232,361.922028 1390.624512,359.600861 
	C1381.302979,349.714417 1371.432739,340.334259 1361.565796,330.976990 
	C1355.726685,325.439423 1349.790771,319.937988 1343.425171,315.034454 
	C1327.614502,302.854889 1311.762817,290.703796 1295.503540,279.137268 
	C1272.809448,262.993164 1248.074829,250.287460 1222.913086,238.549042 
	C1196.355469,226.159439 1168.772339,216.375732 1140.377075,209.028748 
	C1128.068115,205.843918 1115.668213,203.006729 1103.278687,200.145508 
	C1102.396973,199.941879 1101.043701,200.597107 1100.278076,201.271271 
	C1096.196777,204.864883 1092.156128,208.512238 1088.242432,212.287231 
	C1076.532471,223.582397 1064.962158,235.023102 1053.195190,246.258041 
	C1043.638184,255.382950 1034.086914,264.535370 1024.124023,273.205444 
	C1018.313965,278.261505 1011.194397,280.458679 1003.279236,281.187469 
	C992.925659,282.140778 983.628418,279.760742 975.690979,273.711548 
	C969.534546,269.019775 964.526123,262.816956 959.045349,257.248474 
	C958.261658,256.452240 957.786926,255.353287 957.008240,254.550507 
	C944.868225,242.034927 932.673340,229.572479 920.556458,217.034592 
	C916.197449,212.524170 911.984924,207.870636 907.758118,203.234482 
	C905.698547,200.975525 903.968445,200.074249 900.295776,200.782791 
	C874.765015,205.708267 849.785095,212.646179 825.371094,221.401108 
	C798.677734,230.973404 772.822144,242.566452 748.029053,256.447479 
	C726.290100,268.618652 704.980164,281.492188 685.541199,297.108612 
	C669.724304,309.815216 654.333801,323.075836 639.145996,336.532959 
	C630.773621,343.951263 623.317566,352.395538 615.190308,360.105255 
	C613.519165,361.690552 610.702698,362.876923 608.411011,362.882050 
	C543.086548,363.028442 477.761658,362.972595 412.437042,363.071808 
	C408.731445,363.077423 406.677124,362.601807 405.537903,358.391541 
	C404.254700,353.649139 401.580048,349.259796 399.335175,344.805298 
	C391.905792,330.063110 401.839172,312.522583 419.107117,313.002991 
	C430.527771,313.320679 441.948395,313.643097 453.367584,314.008209 
	C462.622803,314.304138 472.103546,313.530151 481.064880,315.324738 
	C489.752747,317.064575 493.991882,313.559479 498.513336,307.322296 
	C500.768646,304.211121 501.244751,302.159485 500.338715,298.475494 
	C494.678436,275.460876 489.338898,252.365601 484.094147,229.251465 
	C482.012726,220.078354 492.701508,206.793793 502.256714,207.152954 
	C509.676483,207.431839 517.156738,208.590698 524.413269,210.230087 
	C542.011230,214.205887 559.537781,218.523315 576.998840,223.065536 
	C582.651184,224.535904 585.097290,220.244431 588.496826,217.821701 
	C591.675110,215.556641 595.915771,213.175400 593.008850,207.884995 
	C592.938477,207.756958 593.002930,207.556458 592.999573,207.389893 
	C592.666748,190.803482 592.385864,174.215775 591.967712,157.631516 
	C591.843506,152.705017 591.372009,147.785248 590.993042,142.867523 
	C589.625244,125.118187 606.114380,113.722214 623.023499,121.502129 
	C639.689636,129.170197 656.346863,136.857635 673.017151,144.516525 
	C677.110657,146.397202 681.241638,148.196030 685.349304,150.046066 
	C685.646729,150.180023 685.867859,150.519928 686.169067,150.603531 
	C688.787231,151.330399 701.559265,143.253708 701.979614,140.570526 
	C704.667725,123.411247 707.193604,106.225052 710.064087,89.096527 
	C711.366028,81.327431 712.465271,73.344086 715.203796,66.037895 
	C719.400513,54.841541 734.170898,49.647495 745.814636,57.485252 
	C759.243347,66.524460 772.159058,76.325615 785.300049,85.792381 
	C791.211609,90.051056 797.011536,94.483849 803.126404,98.427994 
	C804.672119,99.425003 807.318176,99.299133 809.310181,98.916458 
	C816.481384,97.538872 821.593262,94.843361 824.321899,86.517517 
	C831.014832,66.095543 838.798767,45.981201 847.160095,26.172110 
	C853.544006,11.047580 873.275146,9.727194 883.500732,22.847908 
	C888.054382,28.690933 893.557434,33.800495 898.694641,39.180809 
	C906.938293,47.814716 915.235779,56.397247 923.511658,65.000381 
	C923.973572,65.480522 924.460754,65.937027 924.910889,66.427757 
	C927.099915,68.814545 929.054626,72.914612 931.511536,73.239662 
	C936.352539,73.880127 941.745605,73.193214 946.362732,71.532715 
	C948.831543,70.644829 950.293335,66.668877 951.981567,63.945206 
	C963.363220,45.582901 974.458679,27.036373 986.229675,8.928322 
	C988.373901,5.629799 993.195190,4.071451 996.890259,1.354879 
	C1001.024536,1.000000 1005.049072,1.000000 1009.536804,1.000000 
M1000.556458,129.000000 
	C977.688965,129.145721 960.240173,148.199280 958.822449,168.483841 
	C956.972900,194.948288 981.130798,214.267654 1000.533813,214.032700 
	C1025.813599,213.726578 1043.387207,194.133209 1043.780273,171.147522 
	C1044.180176,147.776993 1023.790894,128.627319 1000.556458,129.000000 
z"/>
<path fill="#1D1D1B" opacity="1.000000" stroke="none" 
	d="
M2001.000000,986.531372 
	C1981.191040,987.000000 1961.382202,987.000000 1941.000000,987.000000 
	C1941.000000,984.997803 1941.000000,983.231079 1941.000000,981.464355 
	C1941.000000,944.965210 1941.299316,908.461731 1940.762817,871.970459 
	C1940.647095,864.095947 1938.385742,855.936646 1935.559937,848.498474 
	C1932.052734,839.266968 1917.935425,834.002197 1907.505737,836.144531 
	C1886.813232,840.394958 1881.890381,851.574097 1879.230469,870.007080 
	C1874.182251,904.992493 1878.028809,940.317200 1877.014160,975.479126 
	C1876.909058,979.121033 1877.000000,982.768616 1877.000000,986.705750 
	C1856.703125,986.705750 1836.633911,986.705750 1816.281616,986.705750 
	C1816.281616,921.676758 1816.281616,856.608704 1816.281616,791.000000 
	C1829.041992,791.000000 1841.812500,791.000000 1854.583008,791.000000 
	C1862.730591,791.000000 1862.702148,791.008118 1864.866455,798.573425 
	C1866.624756,804.719666 1868.462402,810.843201 1870.552124,817.954224 
	C1872.946045,815.163635 1874.825317,813.034790 1876.637573,810.850403 
	C1887.786133,797.412720 1902.437256,791.124207 1919.470337,788.874939 
	C1932.865112,787.106201 1946.076782,787.445984 1958.829590,791.507263 
	C1980.552124,798.425110 1994.788696,812.668518 1999.047363,835.742249 
	C1999.182129,836.472473 1999.844604,837.105225 2000.630615,837.891724 
	C2001.000000,887.354248 2001.000000,936.708435 2001.000000,986.531372 
z"/>
<path fill="#1D1D1B" opacity="1.000000" stroke="none" 
	d="
M1.000000,733.468628 
	C50.130829,733.000000 99.261658,733.000000 148.696091,733.000000 
	C148.696091,749.606201 148.696091,766.005676 148.696091,782.819336 
	C119.714767,782.819336 90.649979,782.819336 61.293686,782.819336 
	C61.293686,801.626831 61.293686,820.025574 61.293686,838.839111 
	C87.971329,838.839111 114.703552,838.839111 141.716599,838.839111 
	C141.716599,855.648071 141.716599,872.047119 141.716599,888.861145 
	C115.006348,888.861145 88.274147,888.861145 61.133469,888.861145 
	C61.133469,921.666870 61.133469,954.063965 61.133469,987.000000 
	C41.130558,987.000000 21.533936,987.000000 1.468657,987.000000 
	C1.000000,902.645752 1.000000,818.291565 1.000000,733.468628 
z"/>
<path fill="#1D1D1B" opacity="1.000000" stroke="none" 
	d="
M708.981812,596.889404 
	C707.435730,595.662964 705.964783,594.180542 704.432495,594.114197 
	C698.140320,593.841797 691.829590,594.000427 685.109131,594.000427 
	C685.109131,625.688110 685.109131,657.091675 685.109131,688.746216 
	C664.288147,688.746216 643.886475,688.746216 623.241943,688.746216 
	C623.241943,604.266235 623.241943,519.867432 623.241943,435.000000 
	C624.956726,435.000000 626.570862,435.000000 628.184998,435.000000 
	C655.016724,435.000000 681.852783,434.708191 708.678589,435.107300 
	C725.292664,435.354462 741.770630,437.478210 757.584595,443.026123 
	C777.940186,450.167389 793.652649,462.686829 800.179016,483.836426 
	C806.446350,504.146393 806.928955,524.835938 796.811096,544.222534 
	C789.782654,557.689392 778.361084,567.396240 765.393127,575.201111 
	C763.598633,576.281189 761.850037,577.437683 759.567871,578.883240 
	C784.065430,615.312500 808.548035,651.719604 833.368652,688.629272 
	C832.041870,688.788269 831.160522,688.985535 830.279053,688.986267 
	C809.446960,689.003723 788.614258,688.919189 767.783569,689.090576 
	C764.797058,689.115173 763.462402,687.913391 762.083984,685.612000 
	C748.996155,663.760498 735.801453,641.973022 722.661255,620.152893 
	C718.083130,612.550598 713.571045,604.908569 708.981812,596.889404 
M685.000000,532.491943 
	C685.000000,536.924133 685.000000,541.356323 685.000000,546.468628 
	C694.829468,545.956665 704.188965,546.314819 713.202148,544.718323 
	C719.795715,543.550415 726.737366,540.906860 732.094482,536.974060 
	C740.983521,530.448425 742.891418,520.114624 741.844788,509.669373 
	C741.153809,502.772949 738.654236,496.344788 732.550964,491.867310 
	C717.995300,481.188934 701.372620,484.582245 685.000000,484.015594 
	C685.000000,500.224121 685.000000,515.859680 685.000000,532.491943 
z"/>
<path fill="#1D1D1B" opacity="1.000000" stroke="none" 
	d="
M927.083618,789.998779 
	C953.306885,784.533569 979.733276,788.058411 998.848633,816.180664 
	C997.856628,804.910950 996.546570,794.380737 996.104553,783.814209 
	C995.638184,772.667969 996.000000,761.487061 996.000000,750.321289 
	C996.000000,739.362427 996.000000,728.403503 996.000000,717.224365 
	C1016.437927,717.224365 1036.505859,717.224365 1056.787109,717.224365 
	C1056.787109,807.123901 1056.787109,896.854492 1056.787109,986.792603 
	C1041.317017,986.792603 1026.036133,986.792603 1010.208130,986.792603 
	C1006.888977,979.664795 1003.389893,972.269897 1000.003906,964.823608 
	C998.534424,961.591797 997.367126,960.823059 995.033997,964.346619 
	C987.058716,976.391418 976.379517,985.306946 962.098999,988.287659 
	C938.647827,993.182617 916.797974,990.642944 898.362183,973.018677 
	C884.159729,959.441406 876.990173,942.514282 874.220947,923.775879 
	C872.114075,909.519287 870.805969,894.928772 871.278809,880.557129 
	C871.995178,858.782654 875.264282,837.235535 887.927368,818.490967 
	C897.430542,804.424011 909.724304,794.034180 927.083618,789.998779 
M932.996460,884.217163 
	C932.664307,886.633362 931.807068,889.114136 932.094543,891.454224 
	C933.120667,899.806946 933.966492,908.248352 935.921387,916.406738 
	C940.029541,933.551697 951.878906,943.134338 969.665161,942.075928 
	C981.788147,941.354492 993.976746,932.646851 996.906189,921.046753 
	C1001.677490,902.153137 1001.419373,882.999146 997.813782,864.005554 
	C996.155090,855.268250 992.920044,846.605469 984.313293,842.024719 
	C980.157898,839.813171 975.385803,838.664368 970.794556,837.388062 
	C961.953979,834.930664 948.062500,840.264038 943.019714,847.892883 
	C935.929810,858.618591 932.765442,870.472778 932.996460,884.217163 
z"/>
<path fill="#1D1D1B" opacity="1.000000" stroke="none" 
	d="
M562.024841,987.000000 
	C561.196716,987.000000 560.863342,987.000000 560.530029,987.000000 
	C548.624390,987.000000 548.687256,986.985291 545.966492,975.353394 
	C545.089355,971.603210 543.972839,967.881592 542.602661,964.285278 
	C541.867126,962.354736 541.068604,960.161316 538.565125,963.747864 
	C530.792847,974.882446 520.379578,982.905396 507.114105,986.268494 
	C499.452484,988.210999 491.482330,989.150879 483.590546,989.924927 
	C468.993988,991.356506 454.971100,988.922729 441.957245,981.966187 
	C426.049164,973.462524 415.745483,960.554932 413.100952,942.488464 
	C411.515350,931.656311 410.240814,920.675049 410.137268,909.748413 
	C409.780396,872.085815 410.000000,834.417847 410.000000,796.751892 
	C410.000000,794.964600 410.000000,793.177368 410.000000,791.198914 
	C430.370728,791.198914 450.322144,791.198914 471.000000,791.198914 
	C471.000000,792.828857 471.000000,794.574951 471.000000,796.321045 
	C471.000000,831.487061 470.780975,866.655273 471.145111,901.817505 
	C471.243286,911.295715 472.369415,920.812683 476.856873,929.677368 
	C481.038116,937.937012 487.983490,941.521057 496.424896,941.878662 
	C518.144409,942.798584 527.503662,932.425354 531.825195,913.321960 
	C533.827759,904.469482 534.758972,895.211304 534.862183,886.122131 
	C535.219482,854.638916 535.000000,823.149048 535.000000,791.330994 
	C555.221924,791.330994 575.291931,791.330994 595.681702,791.330994 
	C595.681702,856.249634 595.681702,921.318054 595.681702,987.000000 
	C584.709961,987.000000 573.614807,987.000000 562.024841,987.000000 
z"/>
<path fill="#1D1D1B" opacity="1.000000" stroke="none" 
	d="
M661.004089,987.000000 
	C655.861389,987.000000 651.218018,987.000000 646.288330,987.000000 
	C646.288330,921.689575 646.288330,856.620728 646.288330,791.275696 
	C661.681396,791.275696 677.098450,791.275696 692.271851,791.275696 
	C695.215454,799.994812 698.138977,808.654541 701.366699,818.215332 
	C713.466553,800.208130 729.533875,791.534851 749.378052,788.942444 
	C766.743042,786.673889 783.434265,788.073486 799.434448,795.788269 
	C817.303284,804.403931 826.666443,819.170837 829.851013,838.046143 
	C831.373291,847.069275 831.857178,856.353271 831.908691,865.524109 
	C832.124939,904.022705 832.000000,942.523071 832.000000,981.022827 
	C832.000000,982.830322 832.000000,984.637878 832.000000,986.721436 
	C811.671082,986.721436 791.601746,986.721436 771.000000,986.721436 
	C771.000000,984.948547 771.000000,983.175964 771.000000,981.403381 
	C771.000000,944.236938 771.231750,907.067810 770.787659,869.906677 
	C770.707153,863.169983 768.772217,856.074707 766.096680,849.828918 
	C760.483643,836.725769 748.604370,834.877441 737.590027,836.272461 
	C731.140198,837.089355 725.072083,839.367981 720.303162,844.193787 
	C714.254089,850.314819 711.756836,858.093628 710.010498,866.207642 
	C707.010681,880.145508 706.879150,894.280762 706.958557,908.460022 
	C707.104126,934.438782 707.000000,960.418945 707.000000,987.000000 
	C691.695068,987.000000 676.599182,987.000000 661.004089,987.000000 
z"/>
<path fill="#1D1D1B" opacity="1.000000" stroke="none" 
	d="
M988.699707,671.293701 
	C987.845154,668.645264 987.239929,666.328918 986.299683,662.730286 
	C984.165833,665.057800 982.464478,666.574036 981.168518,668.381104 
	C971.336609,682.090271 957.103027,687.805786 941.262451,691.072449 
	C926.520264,694.112671 911.971436,693.301514 897.827087,688.868652 
	C880.887878,683.559998 867.744690,673.481628 860.925720,656.275146 
	C856.524292,645.168945 855.035522,633.667297 855.020264,621.892151 
	C854.967712,581.231262 855.000000,540.570251 855.000000,499.909302 
	C855.000000,498.108185 855.000000,496.307068 855.000000,494.254822 
	C875.375244,494.254822 895.442444,494.254822 916.000000,494.254822 
	C916.000000,496.099030 916.000000,497.877014 916.000000,499.654968 
	C916.000000,536.483154 915.749329,573.314514 916.224060,610.136597 
	C916.312683,617.012207 918.950134,623.963562 921.058411,630.676697 
	C923.613647,638.812927 930.384094,642.762451 938.154297,643.786743 
	C946.758667,644.921021 955.259949,643.888367 962.973083,638.693665 
	C970.607910,633.551880 974.001099,625.706543 975.704712,617.684814 
	C978.132263,606.254333 979.577942,594.439331 979.816772,582.755371 
	C980.385376,554.937561 980.000000,527.100220 980.000000,499.270813 
	C980.000000,497.648804 980.000000,496.026794 980.000000,494.205841 
	C1000.354919,494.205841 1020.304626,494.205841 1040.627441,494.205841 
	C1040.627441,558.802185 1040.627441,623.531921 1040.627441,689.000000 
	C1039.350220,689.000000 1037.773315,689.000000 1036.196533,689.000000 
	C1023.364990,689.000000 1010.532166,689.083862 997.703613,688.889099 
	C996.176086,688.865967 993.773926,687.657776 993.315125,686.425964 
	C991.524109,681.617615 990.351624,676.578857 988.699707,671.293701 
z"/>
<path fill="#1D1D1B" opacity="1.000000" stroke="none" 
	d="
M1160.263428,790.021973 
	C1176.374390,789.335632 1192.080688,787.645081 1207.695679,788.262146 
	C1226.677002,789.012329 1244.385986,794.850342 1258.216064,808.825684 
	C1267.509033,818.216248 1272.533447,829.997742 1273.866455,843.008606 
	C1274.875000,852.853027 1274.922485,862.821289 1274.954224,872.735779 
	C1275.070068,908.892456 1275.000000,945.049805 1275.000000,981.206848 
	C1275.000000,982.997375 1275.000000,984.787964 1275.000000,986.998840 
	C1261.164795,986.998840 1247.715088,987.078125 1234.270630,986.852295 
	C1233.163452,986.833679 1231.692017,984.928467 1231.068726,983.584839 
	C1227.626831,976.164856 1224.395996,968.646973 1221.068848,961.108276 
	C1215.770264,966.172302 1210.881348,971.160095 1205.656616,975.766907 
	C1197.063110,983.343994 1186.915039,987.646912 1175.544189,988.985840 
	C1169.226685,989.729614 1162.830933,991.226440 1156.577271,990.803650 
	C1142.870239,989.876831 1129.327148,988.134949 1117.644897,979.375977 
	C1105.898438,970.568787 1099.245239,959.135925 1096.987549,944.842834 
	C1095.097656,932.877930 1094.874023,921.088684 1097.832520,909.117981 
	C1102.241943,891.278076 1114.289185,880.776794 1130.225098,874.123657 
	C1145.018677,867.947449 1160.683594,865.292358 1176.740356,864.975830 
	C1187.161743,864.770386 1197.581177,864.392822 1207.995361,863.952271 
	C1210.219238,863.858215 1212.417358,863.158447 1215.246094,862.619934 
	C1214.410034,857.162048 1214.287354,851.531128 1212.605225,846.412659 
	C1209.384521,836.611755 1200.016724,832.569946 1191.094727,832.037964 
	C1173.443115,830.985474 1157.182739,836.536316 1141.142822,842.981140 
	C1138.466919,844.056396 1135.777832,845.098877 1132.729248,846.300598 
	C1127.049194,833.575012 1121.601318,820.944824 1115.736694,808.511292 
	C1114.149902,805.147034 1115.972778,804.430847 1118.114136,803.430237 
	C1130.715942,797.541809 1143.739014,792.980774 1157.568848,790.960876 
	C1158.346802,790.847168 1159.069702,790.356018 1160.263428,790.021973 
M1215.000000,907.443481 
	C1215.000000,904.336304 1215.000000,901.229187 1215.000000,899.000000 
	C1209.086060,899.000000 1203.632935,898.521973 1198.297729,899.111267 
	C1190.132202,900.013184 1181.893921,901.059448 1173.968506,903.125916 
	C1164.031860,905.716797 1156.318848,916.769653 1157.116821,926.679077 
	C1157.742554,934.449768 1160.092529,941.794983 1168.461548,944.717834 
	C1175.258545,947.091675 1182.376953,947.955750 1189.290039,945.172302 
	C1193.995117,943.277893 1198.808716,941.273499 1202.937866,938.403259 
	C1213.368774,931.152283 1214.454834,919.806274 1215.000000,907.443481 
z"/>
<path fill="#1D1D1B" opacity="1.000000" stroke="none" 
	d="
M371.000000,890.984375 
	C371.067444,909.402527 368.230743,926.845520 360.366089,943.006165 
	C350.791779,962.679810 335.453064,976.429016 314.793091,983.965637 
	C303.394989,988.123474 291.622894,989.684448 279.453461,990.192749 
	C261.124146,990.958435 243.706604,988.214294 227.337723,979.991455 
	C203.641617,968.087585 189.840164,948.201111 183.071915,923.134399 
	C179.241241,908.947083 178.083557,894.314392 179.108749,879.699707 
	C180.489639,860.014893 184.602127,841.046509 196.109756,824.325745 
	C207.497177,807.779663 223.239807,797.476013 242.210693,792.122742 
	C257.614716,787.776001 273.356384,787.098694 289.391815,788.806519 
	C303.853882,790.346802 317.086884,794.712463 329.428833,802.104431 
	C345.230103,811.568237 355.881897,825.476074 362.933746,842.205017 
	C369.428406,857.612183 371.359741,873.884033 371.000000,890.984375 
M248.026978,849.759399 
	C245.685226,858.591370 241.984772,867.322388 241.319305,876.278931 
	C240.314178,889.807007 240.189743,903.508484 243.916824,916.959656 
	C250.252457,939.825256 263.280548,944.935913 282.728912,942.725586 
	C288.500397,942.069641 293.964142,938.810486 298.154388,933.714783 
	C305.685699,924.556152 308.177032,913.616943 308.737305,902.576172 
	C309.458679,888.360535 310.304321,873.946594 306.055328,859.898560 
	C302.953613,849.643494 298.007629,840.690186 287.451569,837.150635 
	C272.773804,832.229065 257.814484,834.515320 248.026978,849.759399 
z"/>
<path fill="#1D1D1B" opacity="1.000000" stroke="none" 
	d="
M1756.285645,957.210754 
	C1741.210815,976.039551 1721.755859,986.028198 1698.367065,989.059631 
	C1679.762085,991.471191 1661.393677,991.105896 1643.511230,984.956604 
	C1623.326904,978.015808 1607.849609,965.170593 1597.250488,946.619995 
	C1590.110718,934.123962 1585.826660,920.677673 1585.036377,906.262878 
	C1584.502686,896.528381 1583.510132,886.718872 1584.157837,877.039001 
	C1585.937256,850.440979 1593.973877,826.291809 1615.155762,808.439575 
	C1627.234497,798.259399 1641.326294,791.913086 1657.076660,790.098450 
	C1667.509399,788.896484 1678.120117,787.587952 1688.534546,788.227112 
	C1709.432861,789.509583 1728.587402,795.898499 1744.815063,810.141296 
	C1761.008667,824.354187 1770.326294,842.395630 1773.717285,862.993713 
	C1778.334961,891.042969 1776.892212,918.880554 1763.934570,945.039185 
	C1761.869507,949.208130 1759.030518,952.993835 1756.285645,957.210754 
M1650.445923,855.045410 
	C1646.206055,865.840942 1645.204468,877.266235 1645.203735,888.612061 
	C1645.203125,897.692139 1646.120850,906.992126 1648.282349,915.788757 
	C1650.319336,924.079102 1653.425537,932.272522 1661.155151,937.844543 
	C1669.191528,943.637634 1678.116821,943.781616 1687.016968,942.764404 
	C1694.686646,941.887878 1700.794189,937.401794 1705.049316,930.689758 
	C1711.621948,920.322510 1713.462036,908.651855 1713.875000,896.790649 
	C1714.178955,888.063049 1714.067749,879.185181 1712.775513,870.579407 
	C1711.669312,863.212219 1709.735596,855.526794 1706.194702,849.063049 
	C1699.512451,836.865234 1687.427124,833.565918 1674.613281,835.227600 
	C1661.966919,836.867493 1654.838379,843.053467 1650.445923,855.045410 
z"/>
<path fill="#1D1D1B" opacity="1.000000" stroke="none" 
	d="
M1104.411133,640.759521 
	C1113.464111,642.778259 1122.124023,644.745178 1130.846924,646.375122 
	C1141.688110,648.401001 1152.579956,649.336304 1163.371338,645.987183 
	C1167.855103,644.595703 1171.903564,642.538269 1172.971436,637.374695 
	C1174.234985,631.264343 1171.059082,626.739746 1166.272095,624.203979 
	C1155.914062,618.717163 1145.252686,613.756226 1134.501221,609.071899 
	C1122.350586,603.777893 1110.223633,598.463928 1099.774536,590.177917 
	C1088.801392,581.476440 1082.239868,569.864624 1081.190918,555.985779 
	C1080.333618,544.643250 1080.364014,533.259155 1085.794678,522.384277 
	C1091.855957,510.246582 1101.604614,503.055725 1113.590332,497.975922 
	C1131.510986,490.380768 1150.387451,489.206024 1169.410522,490.103546 
	C1190.131714,491.081207 1209.769043,496.926117 1228.675171,505.300201 
	C1229.101562,505.489044 1229.401123,505.964172 1230.039429,506.572083 
	C1225.382324,517.681702 1220.734497,528.905273 1215.973999,540.080933 
	C1212.603271,547.993835 1212.734009,547.454102 1204.318970,544.178955 
	C1192.334961,539.514648 1180.245361,535.203552 1167.203857,533.773376 
	C1160.219238,533.007385 1153.623047,533.079895 1146.987427,534.992126 
	C1143.429199,536.017578 1140.449097,537.755432 1139.987305,542.008484 
	C1139.510986,546.395142 1141.008911,549.980896 1144.897705,551.923889 
	C1155.253784,557.097900 1165.619995,562.291687 1176.230347,566.906921 
	C1189.708984,572.769775 1203.448975,578.257202 1214.895752,587.619873 
	C1224.099121,595.147461 1229.134155,605.623474 1230.916748,617.360962 
	C1232.697632,629.087524 1232.017334,640.689148 1228.062378,652.045105 
	C1222.136108,669.060669 1210.227295,679.900757 1193.630981,685.971069 
	C1182.709595,689.965698 1171.449463,692.162170 1159.750977,692.028259 
	C1148.412720,691.898499 1137.041992,692.518494 1125.739502,691.869019 
	C1111.479126,691.049561 1097.632324,687.617371 1084.282349,682.514893 
	C1082.818726,681.955444 1081.166260,679.521667 1081.141479,677.933228 
	C1080.904541,662.782288 1081.000000,647.626221 1081.000000,632.026428 
	C1088.888306,634.946716 1096.467041,637.752502 1104.411133,640.759521 
z"/>
<path fill="#1D1D1B" opacity="1.000000" stroke="none" 
	d="
M1332.000000,899.000000 
	C1332.000000,878.197510 1332.000000,857.895020 1332.000000,837.174561 
	C1323.717163,837.174561 1315.642700,837.174561 1307.002686,837.174561 
	C1307.002686,828.838379 1306.930786,820.905945 1307.099609,812.978638 
	C1307.119263,812.055481 1308.302002,810.904480 1309.231079,810.292603 
	C1317.580200,804.793213 1326.044434,799.467041 1334.342651,793.893250 
	C1335.925537,792.830078 1337.400757,791.095642 1338.120117,789.340698 
	C1342.869873,777.752808 1347.346680,766.053162 1352.072144,754.455017 
	C1352.624390,753.099915 1354.135376,751.170715 1355.232910,751.150024 
	C1367.678711,750.915466 1380.130615,751.001282 1392.993408,751.001282 
	C1392.993408,764.457947 1392.993408,777.528442 1392.993408,791.004883 
	C1410.138184,791.004883 1426.872314,791.004883 1443.800049,791.004883 
	C1443.800049,806.363647 1443.800049,821.310547 1443.800049,836.672363 
	C1427.199951,836.672363 1410.465454,836.672363 1393.000000,836.672363 
	C1393.000000,838.655640 1393.000000,840.232727 1393.000000,841.809875 
	C1393.000000,868.963867 1392.895874,896.118530 1393.048096,923.271667 
	C1393.114868,935.190735 1400.570435,941.449341 1411.695312,941.974915 
	C1422.417480,942.481445 1432.647217,939.861511 1442.765747,936.682739 
	C1443.980713,936.301086 1445.249146,936.089905 1446.785645,935.731323 
	C1446.785645,950.923218 1446.785645,965.707581 1446.785645,981.157593 
	C1438.335938,983.558899 1429.758667,986.168518 1421.080566,988.382629 
	C1417.321045,989.341797 1413.363037,989.817932 1409.478271,989.930359 
	C1401.495850,990.161621 1393.493164,990.243042 1385.515015,989.946350 
	C1371.514893,989.425598 1358.529663,985.341858 1348.323486,975.564026 
	C1340.229248,967.809387 1335.169434,957.659851 1334.179932,946.471680 
	C1332.800049,930.872192 1332.666748,915.162537 1332.000000,899.000000 
z"/>
<path fill="#1D1D1B" opacity="1.000000" stroke="none" 
	d="
M1340.188721,633.518860 
	C1344.094360,641.097717 1350.317749,643.789856 1358.129761,644.039917 
	C1368.882568,644.384094 1379.072632,641.954102 1389.092529,638.412720 
	C1389.839722,638.148743 1390.670776,638.122559 1392.000000,637.893127 
	C1392.000000,648.751709 1392.000000,659.352783 1392.000000,669.953796 
	C1392.000000,683.974548 1392.014404,684.026123 1378.489380,687.795105 
	C1365.200317,691.498230 1351.558228,693.427490 1337.848145,692.819580 
	C1324.615845,692.232727 1311.414062,690.417480 1299.965942,682.528687 
	C1288.726318,674.783630 1282.552246,663.705383 1280.194702,650.768005 
	C1278.528564,641.624512 1278.185669,632.157043 1278.091675,622.825745 
	C1277.828125,596.677795 1278.000000,570.525452 1278.000000,544.374878 
	C1278.000000,542.744141 1278.000000,541.113464 1278.000000,539.069458 
	C1269.608765,539.069458 1261.534668,539.069458 1253.004639,539.069458 
	C1253.004639,530.718323 1252.931885,522.774292 1253.098999,514.835388 
	C1253.119263,513.871765 1254.240234,512.640808 1255.175415,512.033081 
	C1262.751221,507.110229 1270.260864,502.057617 1278.082642,497.551178 
	C1283.642944,494.347748 1284.817261,488.736420 1286.942627,483.641479 
	C1291.151123,473.552368 1295.076538,463.345154 1299.112549,453.202881 
	C1312.050903,453.202881 1324.819458,453.202881 1338.000488,453.202881 
	C1338.000488,466.799683 1338.000488,480.201630 1338.000488,494.006775 
	C1355.473999,494.006775 1372.539673,494.006775 1389.799561,494.006775 
	C1389.799561,509.027496 1389.799561,523.639160 1389.799561,538.663574 
	C1372.872070,538.663574 1355.807251,538.663574 1338.000000,538.663574 
	C1338.000000,540.642822 1338.000000,542.218201 1338.000000,543.793518 
	C1338.000000,569.944092 1337.921997,596.095215 1338.089478,622.244751 
	C1338.112793,625.886536 1339.344727,629.520569 1340.188721,633.518860 
z"/>
<path fill="#1D1D1B" opacity="1.000000" stroke="none" 
	d="
M1483.000000,915.000000 
	C1483.000000,873.532776 1483.000000,832.565552 1483.000000,791.299316 
	C1502.949219,791.299316 1522.681519,791.299316 1542.707642,791.299316 
	C1542.707642,856.289246 1542.707642,921.345032 1542.707642,986.700562 
	C1523.050903,986.700562 1503.318604,986.700562 1483.000000,986.700562 
	C1483.000000,963.013611 1483.000000,939.256775 1483.000000,915.000000 
z"/>
<path fill="#1D1D1B" opacity="1.000000" stroke="none" 
	d="
M1490.132324,719.986084 
	C1506.522827,711.390320 1522.419312,711.818909 1537.878662,721.132935 
	C1540.422363,722.665466 1542.685303,725.735046 1543.669189,728.581299 
	C1546.415894,736.526978 1546.827271,744.728027 1544.555542,753.014771 
	C1541.461060,764.302551 1532.476318,768.454773 1522.506104,769.713806 
	C1513.856445,770.806030 1504.876099,770.820190 1496.214355,767.755981 
	C1487.391113,764.634705 1482.105103,758.560364 1481.207153,749.581726 
	C1480.561646,743.127258 1480.873901,736.302490 1482.346924,730.014954 
	C1483.214844,726.310669 1487.183105,723.332642 1490.132324,719.986084 
z"/>
<path fill="#FFFFFF" opacity="1.000000" stroke="none" 
	d="
M1357.010010,1149.092163 
	C1359.367188,1156.602417 1363.562988,1163.724121 1363.617798,1170.877686 
	C1363.740723,1186.906494 1356.497925,1199.878174 1342.268433,1208.276245 
	C1325.685669,1218.063110 1305.629639,1216.032349 1291.427490,1202.756836 
	C1275.528809,1187.895630 1273.234375,1164.184814 1285.937012,1146.607666 
	C1296.057251,1132.604004 1310.188599,1127.047363 1326.907837,1129.167114 
	C1339.727783,1130.792603 1349.707153,1137.953979 1357.010010,1149.092163 
z"/>
<path fill="#FFFFFF" opacity="1.000000" stroke="none" 
	d="
M676.306458,1127.000000 
	C690.979309,1125.776978 703.379822,1129.882935 712.921143,1140.567993 
	C723.979370,1152.951660 727.255493,1168.846436 720.904846,1184.414307 
	C713.869202,1201.661621 700.509033,1210.783569 682.476013,1211.748413 
	C668.639832,1212.488647 656.802673,1206.304443 648.129333,1195.310425 
	C641.736938,1187.207642 638.299683,1177.777222 639.045288,1167.305786 
	C640.340027,1149.125000 652.534485,1133.033325 670.635681,1128.023560 
	C672.335205,1127.553101 674.104553,1127.335083 676.306458,1127.000000 
z"/>
<path fill="#FFFFFF" opacity="1.000000" stroke="none" 
	d="
M1001.028076,129.000000 
	C1023.790894,128.627319 1044.180176,147.776993 1043.780273,171.147522 
	C1043.387207,194.133209 1025.813599,213.726578 1000.533813,214.032700 
	C981.130798,214.267654 956.972900,194.948288 958.822449,168.483841 
	C960.240173,148.199280 977.688965,129.145721 1001.028076,129.000000 
z"/>
<path fill="#FFFFFF" opacity="1.000000" stroke="none" 
	d="
M685.000000,531.993530 
	C685.000000,515.859680 685.000000,500.224121 685.000000,484.015594 
	C701.372620,484.582245 717.995300,481.188934 732.550964,491.867310 
	C738.654236,496.344788 741.153809,502.772949 741.844788,509.669373 
	C742.891418,520.114624 740.983521,530.448425 732.094482,536.974060 
	C726.737366,540.906860 719.795715,543.550415 713.202148,544.718323 
	C704.188965,546.314819 694.829468,545.956665 685.000000,546.468628 
	C685.000000,541.356323 685.000000,536.924133 685.000000,531.993530 
z"/>
<path fill="#FFFFFF" opacity="1.000000" stroke="none" 
	d="
M932.998169,883.749023 
	C932.765442,870.472778 935.929810,858.618591 943.019714,847.892883 
	C948.062500,840.264038 961.953979,834.930664 970.794556,837.388062 
	C975.385803,838.664368 980.157898,839.813171 984.313293,842.024719 
	C992.920044,846.605469 996.155090,855.268250 997.813782,864.005554 
	C1001.419373,882.999146 1001.677490,902.153137 996.906189,921.046753 
	C993.976746,932.646851 981.788147,941.354492 969.665161,942.075928 
	C951.878906,943.134338 940.029541,933.551697 935.921387,916.406738 
	C933.966492,908.248352 933.120667,899.806946 932.094543,891.454224 
	C931.807068,889.114136 932.664307,886.633362 932.998169,883.749023 
z"/>
<path fill="#FFFFFF" opacity="1.000000" stroke="none" 
	d="
M1215.000000,907.919067 
	C1214.454834,919.806274 1213.368774,931.152283 1202.937866,938.403259 
	C1198.808716,941.273499 1193.995117,943.277893 1189.290039,945.172302 
	C1182.376953,947.955750 1175.258545,947.091675 1168.461548,944.717834 
	C1160.092529,941.794983 1157.742554,934.449768 1157.116821,926.679077 
	C1156.318848,916.769653 1164.031860,905.716797 1173.968506,903.125916 
	C1181.893921,901.059448 1190.132202,900.013184 1198.297729,899.111267 
	C1203.632935,898.521973 1209.086060,899.000000 1215.000000,899.000000 
	C1215.000000,901.229187 1215.000000,904.336304 1215.000000,907.919067 
z"/>
<path fill="#FFFFFF" opacity="1.000000" stroke="none" 
	d="
M248.210449,849.425171 
	C257.814484,834.515320 272.773804,832.229065 287.451569,837.150635 
	C298.007629,840.690186 302.953613,849.643494 306.055328,859.898560 
	C310.304321,873.946594 309.458679,888.360535 308.737305,902.576172 
	C308.177032,913.616943 305.685699,924.556152 298.154388,933.714783 
	C293.964142,938.810486 288.500397,942.069641 282.728912,942.725586 
	C263.280548,944.935913 250.252457,939.825256 243.916824,916.959656 
	C240.189743,903.508484 240.314178,889.807007 241.319305,876.278931 
	C241.984772,867.322388 245.685226,858.591370 248.210449,849.425171 
z"/>
<path fill="#FFFFFF" opacity="1.000000" stroke="none" 
	d="
M1650.695557,854.730225 
	C1654.838379,843.053467 1661.966919,836.867493 1674.613281,835.227600 
	C1687.427124,833.565918 1699.512451,836.865234 1706.194702,849.063049 
	C1709.735596,855.526794 1711.669312,863.212219 1712.775513,870.579407 
	C1714.067749,879.185181 1714.178955,888.063049 1713.875000,896.790649 
	C1713.462036,908.651855 1711.621948,920.322510 1705.049316,930.689758 
	C1700.794189,937.401794 1694.686646,941.887878 1687.016968,942.764404 
	C1678.116821,943.781616 1669.191528,943.637634 1661.155151,937.844543 
	C1653.425537,932.272522 1650.319336,924.079102 1648.282349,915.788757 
	C1646.120850,906.992126 1645.203125,897.692139 1645.203735,888.612061 
	C1645.204468,877.266235 1646.206055,865.840942 1650.695557,854.730225 
z"/>
</svg>