<svg version="1.1" id="Layer_1" xmlns="http://www.w3.org/2000/svg" xmlns:xlink="http://www.w3.org/1999/xlink" x="0px" y="0px"
	 width="100%" viewBox="0 0 1999 709" enable-background="new 0 0 1999 709" xml:space="preserve">
<path fill="#FFFFFF" opacity="1.000000" stroke="none" 
	d="
M2000.000000,508.000000 
	C2000.000000,575.318420 2000.000000,642.636902 2000.000000,710.000000 
	C1453.635742,710.000000 907.271484,710.000000 360.562195,709.666504 
	C361.797363,707.970520 363.804291,706.882202 364.885834,705.199219 
	C370.275940,696.811768 375.512512,688.321472 380.622467,679.759521 
	C383.828400,674.387817 385.951508,673.567627 392.085815,676.420166 
	C399.782562,684.627625 407.278137,692.600708 414.942230,700.408386 
	C421.231659,706.815552 430.052399,704.557190 433.067444,696.094910 
	C436.434814,686.643799 439.950531,677.241455 443.616150,667.902100 
	C445.990509,661.852600 451.069366,660.817383 456.243134,664.672913 
	C464.462891,670.798096 472.747620,676.850464 481.219971,682.617615 
	C487.569397,686.939575 496.591797,683.282593 497.907349,675.885742 
	C499.817871,665.143433 501.376190,654.336853 502.972931,643.541138 
	C503.547028,639.659607 508.655579,636.455505 512.235168,638.051270 
	C521.866333,642.344604 531.473145,646.692444 541.081970,651.035522 
	C547.353088,653.870117 556.747620,650.778564 556.840149,645.327454 
	C557.028442,634.245361 556.767944,623.118347 555.916260,612.069763 
	C555.403870,605.422668 560.169739,600.640625 566.788391,602.318726 
	C577.148804,604.945374 587.516296,607.563049 597.947754,609.883301 
	C603.922058,611.212158 611.256165,603.501587 609.837341,597.570923 
	C607.352600,587.184692 604.866394,576.792419 602.029175,566.499573 
	C600.534363,561.076599 605.893494,555.352417 610.966248,555.805054 
	C621.997803,556.789246 633.126831,556.724915 644.219055,556.923218 
	C645.509216,556.946228 647.056335,556.202576 648.076782,555.334961 
	C652.432617,551.631775 653.365356,546.075134 650.927185,540.710754 
	C646.565247,531.113647 642.259644,521.490601 637.992004,511.851227 
	C636.625244,508.764099 639.634827,503.519226 642.932739,503.002228 
	C653.548340,501.337982 664.166809,499.691223 674.776733,497.991425 
	C685.260071,496.311890 686.128540,486.909698 682.296448,480.985657 
	C676.822815,472.523865 670.769409,464.426910 664.757141,456.327362 
	C660.809326,451.008972 661.976624,445.784119 668.208313,443.387054 
	C677.422974,439.842560 686.670166,436.373901 695.975525,433.076355 
	C704.718750,429.978027 706.832703,421.241699 700.130005,414.682526 
	C692.664856,407.377289 684.995361,400.281158 677.512939,392.993225 
	C672.938477,388.537720 673.750671,384.264191 679.292419,380.921021 
	C687.916016,375.718689 696.477905,370.408539 704.957031,364.974060 
	C712.124146,360.380463 712.269958,350.610016 705.182800,346.077026 
	C696.569153,340.567688 687.803406,335.293030 679.038879,330.024231 
	C673.971558,326.977997 673.134949,322.260010 677.340210,318.167694 
	C684.945312,310.766998 692.740784,303.561554 700.322449,296.137451 
	C706.753967,289.839600 704.581604,280.945526 696.212585,277.941040 
	C686.468018,274.442749 676.765015,270.812592 667.154663,266.963440 
	C662.002075,264.899719 660.996399,259.585602 664.247437,255.201660 
	C670.452271,246.834778 676.838684,238.567673 682.466187,229.819443 
	C686.386719,223.724792 684.477722,214.632202 675.009399,213.036331 
	C664.249390,211.222778 653.443237,209.684631 642.665894,207.972076 
	C639.384766,207.450714 636.626282,202.033401 638.031799,198.880981 
	C642.325378,189.250732 646.656494,179.637054 651.012146,170.034668 
	C653.852234,163.773148 650.871033,154.289673 645.444580,154.175034 
	C634.365234,153.940964 623.208069,154.040100 612.198486,155.149277 
	C605.841431,155.789734 600.708618,150.214859 601.974792,145.232819 
	C604.608337,134.870483 607.006714,124.447807 609.443665,114.036339 
	C611.106445,106.932556 604.874451,99.733459 596.828979,101.624390 
	C586.570923,104.035347 576.340393,106.565331 566.069214,108.918465 
	C560.383301,110.221123 555.703247,105.863777 555.959534,100.145699 
	C556.448730,89.229492 556.750793,78.302399 556.908081,67.376625 
	C556.930786,65.798134 556.077759,63.891834 555.016602,62.669819 
	C551.273682,58.359432 545.906372,57.698669 540.346741,60.248127 
	C530.914978,64.573181 521.431213,68.785637 511.946899,72.995018 
	C509.096008,74.260338 503.556396,71.633247 503.060425,68.656418 
	C501.293945,58.054600 499.442688,47.458076 498.072662,36.801804 
	C496.956787,28.122490 488.274628,23.621428 481.010254,28.581045 
	C472.680206,34.268211 464.487366,40.165684 456.388123,46.178204 
	C450.960144,50.207680 445.586029,48.855686 443.176270,42.435905 
	C439.764557,33.346756 436.073822,24.341627 433.150665,15.095611 
	C430.222595,5.834210 419.677582,5.031648 414.632843,10.723181 
	C407.489471,18.782454 399.846802,26.404274 392.306061,34.103855 
	C389.071320,37.406719 384.008179,36.852219 381.618164,33.051586 
	C378.420135,27.966089 375.561157,22.657957 372.196960,17.688890 
	C368.336578,11.986945 364.082825,6.551334 360.000000,1.000008 
	C906.558289,1.000000 1453.116577,1.000000 2000.000000,1.000000 
	C2000.000000,139.030746 2000.000000,277.061737 1999.642944,415.434326 
	C1998.934570,415.421387 1998.348999,415.114349 1998.266113,414.705444 
	C1995.671875,401.893829 1987.013794,394.310883 1975.263428,391.191559 
	C1955.250366,385.878662 1936.617554,387.875580 1922.633911,406.535217 
	C1921.293701,401.982147 1920.246094,397.972046 1918.884521,394.071625 
	C1918.474487,392.897156 1917.213501,391.173401 1916.305664,391.150421 
	C1907.572021,390.929108 1898.830444,391.017822 1890.226196,391.017822 
	C1890.226196,430.377686 1890.226196,468.968567 1890.226196,507.743958 
	C1902.175171,507.743958 1913.896973,507.743958 1925.869263,507.743958 
	C1925.920288,506.703522 1925.982300,505.904968 1925.995361,505.105591 
	C1926.333374,484.358093 1926.430664,463.602722 1927.120850,442.867035 
	C1927.381348,435.040405 1929.292358,427.473755 1935.664917,421.766266 
	C1943.343506,414.889252 1956.722534,416.976685 1960.924438,426.336884 
	C1962.668701,430.222382 1963.807983,434.723663 1963.866455,438.963684 
	C1964.158569,460.112122 1964.000000,481.266785 1964.000000,502.419250 
	C1964.000000,504.185364 1964.000000,505.951447 1964.000000,508.000000 
	C1976.400146,508.000000 1988.200073,508.000000 2000.000000,508.000000 
M843.363892,330.000000 
	C844.806458,329.923065 846.249084,329.846130 848.141357,329.745209 
	C848.141357,311.047699 848.141357,292.654144 848.141357,274.001648 
	C851.917358,274.001648 855.251770,273.770599 858.525208,274.116394 
	C859.818420,274.253021 861.427917,275.399567 862.127319,276.551422 
	C872.232117,293.191681 882.154602,309.942810 892.298279,326.559021 
	C893.229797,328.084900 895.354370,329.816315 896.958496,329.849945 
	C909.752991,330.118256 922.555603,329.999634 936.307373,329.999634 
	C921.485291,307.949158 907.042053,286.462158 892.589478,264.961334 
	C909.106262,254.742126 915.871704,245.685516 918.222839,231.883255 
	C921.808716,210.832169 912.215027,190.674820 891.012390,183.854477 
	C881.241211,180.711349 871.329041,179.186798 861.195618,179.057388 
	C844.594910,178.845352 827.989563,179.000000 811.259338,179.000000 
	C811.259338,229.543915 811.259338,279.584381 811.259338,330.000000 
	C821.806091,330.000000 832.096863,330.000000 843.363892,330.000000 
M1439.000000,394.500000 
	C1439.000000,378.413696 1439.000000,362.327423 1439.000000,346.353973 
	C1426.294067,346.353973 1414.235596,346.353973 1401.530518,346.353973 
	C1402.142700,365.421661 1402.742920,384.115601 1403.345459,402.885040 
	C1397.138916,396.842255 1390.985352,391.410156 1381.891479,389.794189 
	C1358.620361,385.658936 1340.598145,395.767242 1333.066406,417.752777 
	C1328.521973,431.018555 1327.345337,444.689178 1328.785889,458.811096 
	C1329.840454,469.150513 1331.224854,479.248901 1336.182129,488.384460 
	C1347.294312,508.862061 1369.448975,514.789673 1388.945801,505.777466 
	C1394.623291,503.153076 1399.096069,497.922302 1404.312134,493.732910 
	C1406.009277,497.135498 1407.948120,501.242126 1410.114502,505.225006 
	C1410.718628,506.335571 1411.976074,507.848938 1412.965454,507.872986 
	C1421.554932,508.081970 1430.151855,507.993469 1439.000000,507.993469 
	C1439.000000,470.082947 1439.000000,432.791473 1439.000000,394.500000 
M1537.074829,494.463867 
	C1539.215576,498.970917 1541.356445,503.477966 1543.393066,507.765808 
	C1552.036743,507.765808 1560.308350,507.765808 1569.492188,507.765808 
	C1568.984863,478.172272 1569.221558,448.781952 1567.614746,419.492767 
	C1566.971436,407.765808 1559.266357,398.844513 1547.749512,393.863007 
	C1530.097046,386.227661 1512.106079,388.088684 1494.148438,391.574310 
	C1486.821045,392.996552 1479.818970,396.094238 1472.314697,398.545380 
	C1476.530029,407.813293 1480.195923,415.872955 1483.447144,423.021057 
	C1493.743042,420.424225 1503.242188,417.954498 1512.779541,415.642639 
	C1523.406128,413.066742 1535.049194,420.175476 1531.336426,434.000000 
	C1527.290161,434.000000 1523.126343,433.699005 1519.021118,434.061340 
	C1509.907471,434.865753 1500.605347,435.083099 1491.767822,437.176697 
	C1465.222534,443.465088 1458.761108,459.002441 1462.969116,483.948914 
	C1465.956543,501.659393 1481.082642,509.604553 1497.784912,509.827057 
	C1511.112549,510.004547 1523.890381,507.318542 1532.866821,495.760040 
	C1533.706909,494.678284 1535.561768,494.384552 1537.074829,494.463867 
M1238.090820,395.413849 
	C1234.692383,398.607361 1231.293823,401.800873 1227.483276,405.381683 
	C1225.718018,400.408234 1224.073853,395.775513 1222.515503,391.385010 
	C1213.240112,391.385010 1204.173950,391.385010 1195.234863,391.385010 
	C1195.234863,430.372620 1195.234863,468.974854 1195.234863,507.730286 
	C1207.196411,507.730286 1218.921753,507.730286 1231.000000,507.730286 
	C1231.000000,489.335480 1230.833984,471.205719 1231.093750,453.082062 
	C1231.180176,447.064209 1231.785522,440.924133 1233.184937,435.087189 
	C1234.981689,427.592529 1237.886841,420.720337 1246.849121,418.493561 
	C1255.825562,416.263184 1263.729858,419.181488 1266.607300,427.349121 
	C1267.990845,431.276825 1268.822632,435.594574 1268.895264,439.753357 
	C1269.160400,454.911102 1269.000000,470.076294 1269.000000,485.238678 
	C1269.000000,492.688568 1269.000000,500.138428 1269.000000,507.728821 
	C1281.199585,507.728821 1292.924805,507.728821 1305.000000,507.728821 
	C1305.000000,505.661987 1305.000000,503.862335 1305.000000,502.062683 
	C1305.000000,478.236084 1305.052124,454.409271 1304.954590,430.583069 
	C1304.935791,425.995758 1304.843994,421.299744 1303.882080,416.849243 
	C1302.171143,408.933258 1299.006226,401.662811 1291.774780,396.952179 
	C1274.469116,385.679016 1256.751953,386.557190 1238.090820,395.413849 
M1055.341064,478.830292 
	C1059.453491,499.845154 1073.576660,507.185760 1088.678345,509.002136 
	C1105.856812,511.068207 1120.970337,507.500122 1132.396973,492.290649 
	C1134.214478,497.918213 1135.819702,502.888550 1137.354492,507.640778 
	C1146.705566,507.640778 1155.771606,507.640778 1164.635254,507.640778 
	C1164.635254,468.574310 1164.635254,429.867920 1164.635254,391.216309 
	C1152.665771,391.216309 1141.062256,391.216309 1129.000000,391.216309 
	C1129.000000,398.870819 1129.204224,406.325012 1128.957886,413.764252 
	C1128.427490,429.771606 1128.138672,445.811310 1126.788940,461.756378 
	C1126.157471,469.215576 1123.030029,476.018066 1114.771240,479.192566 
	C1106.031494,482.552002 1096.336182,479.181305 1093.327026,470.499298 
	C1091.963867,466.566376 1091.145508,462.244781 1091.100586,458.088440 
	C1090.879272,437.607208 1091.000000,417.122253 1091.000000,396.638611 
	C1091.000000,394.867096 1091.000000,393.095612 1091.000000,391.308807 
	C1078.714844,391.308807 1066.993164,391.308807 1055.042358,391.308807 
	C1055.042358,420.403046 1055.042358,449.189270 1055.341064,478.830292 
M1023.000000,235.500122 
	C1022.666809,249.423157 1022.789856,263.378906 1021.794800,277.254486 
	C1021.343079,283.554260 1019.590210,290.150269 1016.781921,295.792908 
	C1013.282837,302.823547 1005.840576,303.422363 998.748657,302.943817 
	C993.593811,302.596008 989.607727,299.861969 988.079651,294.889038 
	C986.616394,290.126984 985.214600,285.119354 985.136047,280.198090 
	C984.811646,259.876648 985.000000,239.546982 985.000000,219.220352 
	C985.000000,217.607193 985.000000,215.994034 985.000000,214.286804 
	C972.767761,214.286804 961.042725,214.286804 949.000000,214.286804 
	C949.000000,216.373993 949.000000,218.177582 949.000000,219.981171 
	C949.000000,243.640045 948.949280,267.299133 949.045410,290.957611 
	C949.063354,295.378113 949.193542,299.896271 950.096130,304.196381 
	C952.646790,316.348175 959.559937,324.960480 971.546875,329.208130 
	C979.633972,332.073883 987.751831,333.249542 996.386292,332.106476 
	C1006.404114,330.780273 1015.444702,327.874329 1022.370056,320.120422 
	C1023.608643,318.733765 1024.740479,317.251892 1026.545532,315.054504 
	C1027.885254,319.476868 1028.766846,323.056488 1030.099609,326.459320 
	C1030.639282,327.836945 1032.130859,329.803619 1033.245239,329.841125 
	C1041.684448,330.125000 1050.137451,329.996277 1058.739014,329.996277 
	C1058.739014,291.142029 1058.739014,252.756851 1058.739014,214.295212 
	C1046.750488,214.295212 1035.025391,214.295212 1023.000000,214.295212 
	C1023.000000,221.224533 1023.000000,227.862366 1023.000000,235.500122 
M954.088318,391.410858 
	C935.807739,397.102509 924.276306,409.132202 919.596252,427.783447 
	C916.306030,440.895721 916.076050,453.958069 918.949768,467.184814 
	C921.808777,480.343994 928.359131,491.059174 939.198792,499.006836 
	C955.088989,510.657532 972.988525,511.915833 991.383179,507.701080 
	C1008.249023,503.836639 1020.589417,493.823578 1026.887695,477.341614 
	C1032.382935,462.960876 1032.448853,448.111816 1030.021484,433.103149 
	C1025.734863,406.600342 1004.679932,389.316772 978.339905,389.114868 
	C970.513977,389.054840 962.677612,390.368896 954.088318,391.410858 
M1831.183960,392.051758 
	C1817.850708,388.173309 1804.386230,387.514740 1790.918457,391.040649 
	C1772.449097,395.875946 1760.176147,407.221771 1754.924316,425.890198 
	C1751.013916,439.790527 1750.936768,453.695709 1753.986328,467.718964 
	C1758.031128,486.319336 1768.750854,499.412262 1786.670410,505.887238 
	C1796.352173,509.385651 1806.404785,510.376984 1816.961060,509.215881 
	C1833.272583,507.421722 1846.463379,501.221741 1856.102173,487.652863 
	C1867.094482,472.178497 1867.581543,454.398163 1865.604858,437.002136 
	C1863.245361,416.237701 1852.513794,400.185822 1831.183960,392.051758 
M878.498779,449.000000 
	C884.261353,449.000000 890.023987,449.000000 895.633423,449.000000 
	C895.633423,438.607208 895.633423,428.877960 895.633423,418.854919 
	C879.325012,418.854919 863.381226,418.854919 847.262268,418.854919 
	C847.262268,407.821289 847.262268,397.094849 847.262268,385.886932 
	C864.582642,385.886932 881.646973,385.886932 898.665283,385.886932 
	C898.665283,375.672546 898.665283,365.944458 898.665283,356.368530 
	C869.270447,356.368530 840.211670,356.368530 811.222351,356.368530 
	C811.222351,407.008667 811.222351,457.279938 811.222351,507.741150 
	C823.171814,507.741150 834.898071,507.741150 847.105835,507.741150 
	C847.105835,488.091156 847.105835,468.693817 847.105835,449.000000 
	C857.556763,449.000000 867.528076,449.000000 878.498779,449.000000 
M1084.002930,256.234070 
	C1087.143677,268.924957 1097.411499,274.586151 1107.797119,279.869995 
	C1115.859375,283.971771 1124.448853,287.059509 1132.395142,291.354279 
	C1134.920410,292.719116 1137.868652,296.827118 1137.458984,299.112518 
	C1137.042114,301.437775 1132.992310,303.832336 1130.065063,304.849060 
	C1121.965454,307.662445 1113.848267,304.970062 1105.953613,303.321594 
	C1098.271973,301.717621 1090.846069,298.888245 1083.000000,296.503326 
	C1083.000000,304.601166 1083.317383,312.910034 1082.870117,321.177490 
	C1082.635742,325.513031 1084.849731,326.976990 1088.147583,327.944672 
	C1105.859131,333.141663 1123.898438,334.178436 1141.989746,330.887024 
	C1156.140991,328.312439 1167.269043,321.292572 1171.220337,306.323883 
	C1174.344482,294.488800 1174.147827,283.196167 1165.708496,273.095123 
	C1159.709229,265.914520 1151.417969,262.727142 1143.366699,258.987976 
	C1136.029663,255.580536 1128.589111,252.367172 1121.446411,248.591278 
	C1119.788940,247.715073 1118.251221,244.855469 1118.346069,242.994614 
	C1118.417969,241.587143 1120.967651,239.725937 1122.774902,239.088882 
	C1130.072876,236.516281 1137.347412,238.141113 1144.430420,240.238235 
	C1150.134399,241.927094 1155.680908,244.148026 1161.610352,246.243546 
	C1165.138428,237.941681 1168.550659,229.912827 1172.114502,221.527008 
	C1162.915283,217.302933 1153.645386,214.000397 1143.471680,212.847519 
	C1129.915771,211.311356 1116.613037,211.219498 1103.669678,216.012344 
	C1084.318359,223.178131 1080.487671,237.475220 1084.002930,256.234070 
M1592.907227,399.584137 
	C1591.272339,401.125671 1588.502075,402.488861 1588.226440,404.243866 
	C1587.543823,408.589478 1588.002319,413.114319 1588.002319,418.033569 
	C1592.829956,418.033569 1597.238281,418.033569 1601.999512,418.033569 
	C1601.999512,419.471924 1601.985596,420.433868 1602.001831,421.395294 
	C1602.332397,440.970490 1602.494751,460.550873 1603.088989,480.118103 
	C1603.309937,487.393829 1605.878296,493.999664 1610.997192,499.564758 
	C1619.512451,508.822449 1630.920654,509.966522 1642.110718,509.704803 
	C1650.736206,509.503052 1659.314819,506.714233 1667.872192,504.879333 
	C1669.033569,504.630280 1670.819946,503.260773 1670.843994,502.370239 
	C1671.071533,493.961090 1670.979492,485.543274 1670.979492,476.670044 
	C1666.655518,477.626617 1663.043945,478.538788 1659.388428,479.213806 
	C1646.563721,481.582031 1637.556641,480.150024 1638.950684,464.215912 
	C1639.283203,460.415253 1639.000000,456.560730 1639.000000,452.730988 
	C1639.000000,441.291382 1639.000000,429.851807 1639.000000,417.942688 
	C1649.193726,417.942688 1658.923340,417.942688 1668.704102,417.942688 
	C1668.704102,408.741943 1668.704102,400.019623 1668.704102,390.826721 
	C1658.686646,390.826721 1648.956665,390.826721 1639.000000,390.826721 
	C1639.000000,386.542480 1639.000000,382.731842 1639.000000,378.921234 
	C1639.000000,375.003540 1639.000000,371.085815 1639.000000,367.000000 
	C1633.140259,367.000000 1627.989502,367.000000 1622.838745,367.000000 
	C1614.688354,367.000000 1614.798462,367.041138 1611.959351,374.638000 
	C1608.601562,383.622314 1606.127319,393.289032 1595.953125,397.554657 
	C1595.063965,397.927399 1594.275757,398.540833 1592.907227,399.584137 
M1216.759644,190.000000 
	C1213.669800,189.629074 1212.137573,190.455688 1210.773193,193.889267 
	C1206.687012,204.171585 1204.910889,216.235687 1192.503662,221.072098 
	C1190.431152,221.879974 1188.633179,223.433060 1186.781494,224.745010 
	C1186.085693,225.238022 1185.113647,226.009659 1185.093018,226.679718 
	C1184.946899,231.423843 1185.015259,236.174561 1185.015259,241.195099 
	C1190.398560,241.195099 1195.010986,241.195099 1200.000000,241.195099 
	C1200.000000,251.293030 1199.872070,261.087708 1200.032715,270.877655 
	C1200.228394,282.797760 1199.874634,294.804657 1201.226440,306.605835 
	C1202.548584,318.146515 1209.052246,326.536621 1220.857056,330.080139 
	C1229.284668,332.609985 1237.776855,333.438019 1246.413086,331.957611 
	C1253.674072,330.713013 1260.871704,329.099060 1267.661865,327.736023 
	C1267.661865,317.599518 1267.661865,308.865265 1267.661865,300.565125 
	C1260.600098,301.400269 1253.845093,302.284149 1247.070435,302.973022 
	C1241.798828,303.509003 1238.717285,300.452698 1237.106445,295.910004 
	C1236.308838,293.660828 1236.059448,291.118469 1236.045776,288.706024 
	C1235.956665,272.931274 1236.000000,257.155792 1236.000000,240.902985 
	C1246.565796,240.902985 1256.633545,240.902985 1266.674072,240.902985 
	C1266.674072,231.689072 1266.674072,222.961548 1266.674072,213.759369 
	C1256.286255,213.759369 1246.217896,213.759369 1235.864014,213.759369 
	C1235.864014,205.667313 1235.864014,198.054352 1235.864014,190.000000 
	C1229.614502,190.000000 1223.660400,190.000000 1216.759644,190.000000 
M1692.000000,406.503418 
	C1692.000000,440.226013 1692.000000,473.948608 1692.000000,507.698425 
	C1704.281128,507.698425 1715.997314,507.698425 1727.718750,507.698425 
	C1727.718750,468.707642 1727.718750,430.019135 1727.718750,391.301605 
	C1715.718872,391.301605 1704.002563,391.301605 1692.000000,391.301605 
	C1692.000000,396.233978 1692.000000,400.869446 1692.000000,406.503418 
M1692.841553,351.713074 
	C1692.234375,357.013580 1690.656616,362.449768 1691.371948,367.565338 
	C1691.824829,370.804016 1695.113159,374.839905 1698.171509,376.236053 
	C1702.571899,378.244812 1708.060547,379.343140 1712.836304,378.767639 
	C1725.025757,377.298798 1732.068237,372.747284 1728.935425,356.542236 
	C1728.461426,354.090271 1727.623413,350.961182 1725.843872,349.635925 
	C1717.313477,343.283447 1700.480835,342.725800 1692.841553,351.713074 
z"/>
<path fill="#D44516" opacity="1.000000" stroke="none" 
	d="
M359.549988,1.000008 
	C364.082825,6.551334 368.336578,11.986945 372.196960,17.688890 
	C375.561157,22.657957 378.420135,27.966089 381.618164,33.051586 
	C384.008179,36.852219 389.071320,37.406719 392.306061,34.103855 
	C399.846802,26.404274 407.489471,18.782454 414.632843,10.723181 
	C419.677582,5.031648 430.222595,5.834210 433.150665,15.095611 
	C436.073822,24.341627 439.764557,33.346756 443.176270,42.435905 
	C445.586029,48.855686 450.960144,50.207680 456.388123,46.178204 
	C464.487366,40.165684 472.680206,34.268211 481.010254,28.581045 
	C488.274628,23.621428 496.956787,28.122490 498.072662,36.801804 
	C499.442688,47.458076 501.293945,58.054600 503.060425,68.656418 
	C503.556396,71.633247 509.096008,74.260338 511.946899,72.995018 
	C521.431213,68.785637 530.914978,64.573181 540.346741,60.248127 
	C545.906372,57.698669 551.273682,58.359432 555.016602,62.669819 
	C556.077759,63.891834 556.930786,65.798134 556.908081,67.376625 
	C556.750793,78.302399 556.448730,89.229492 555.959534,100.145699 
	C555.703247,105.863777 560.383301,110.221123 566.069214,108.918465 
	C576.340393,106.565331 586.570923,104.035347 596.828979,101.624390 
	C604.874451,99.733459 611.106445,106.932556 609.443665,114.036339 
	C607.006714,124.447807 604.608337,134.870483 601.974792,145.232819 
	C600.708618,150.214859 605.841431,155.789734 612.198486,155.149277 
	C623.208069,154.040100 634.365234,153.940964 645.444580,154.175034 
	C650.871033,154.289673 653.852234,163.773148 651.012146,170.034668 
	C646.656494,179.637054 642.325378,189.250732 638.031799,198.880981 
	C636.626282,202.033401 639.384766,207.450714 642.665894,207.972076 
	C653.443237,209.684631 664.249390,211.222778 675.009399,213.036331 
	C684.477722,214.632202 686.386719,223.724792 682.466187,229.819443 
	C676.838684,238.567673 670.452271,246.834778 664.247437,255.201660 
	C660.996399,259.585602 662.002075,264.899719 667.154663,266.963440 
	C676.765015,270.812592 686.468018,274.442749 696.212585,277.941040 
	C704.581604,280.945526 706.753967,289.839600 700.322449,296.137451 
	C692.740784,303.561554 684.945312,310.766998 677.340210,318.167694 
	C673.134949,322.260010 673.971558,326.977997 679.038879,330.024231 
	C687.803406,335.293030 696.569153,340.567688 705.182800,346.077026 
	C712.269958,350.610016 712.124146,360.380463 704.957031,364.974060 
	C696.477905,370.408539 687.916016,375.718689 679.292419,380.921021 
	C673.750671,384.264191 672.938477,388.537720 677.512939,392.993225 
	C684.995361,400.281158 692.664856,407.377289 700.130005,414.682526 
	C706.832703,421.241699 704.718750,429.978027 695.975525,433.076355 
	C686.670166,436.373901 677.422974,439.842560 668.208313,443.387054 
	C661.976624,445.784119 660.809326,451.008972 664.757141,456.327362 
	C670.769409,464.426910 676.822815,472.523865 682.296448,480.985657 
	C686.128540,486.909698 685.260071,496.311890 674.776733,497.991425 
	C664.166809,499.691223 653.548340,501.337982 642.932739,503.002228 
	C639.634827,503.519226 636.625244,508.764099 637.992004,511.851227 
	C642.259644,521.490601 646.565247,531.113647 650.927185,540.710754 
	C653.365356,546.075134 652.432617,551.631775 648.076782,555.334961 
	C647.056335,556.202576 645.509216,556.946228 644.219055,556.923218 
	C633.126831,556.724915 621.997803,556.789246 610.966248,555.805054 
	C605.893494,555.352417 600.534363,561.076599 602.029175,566.499573 
	C604.866394,576.792419 607.352600,587.184692 609.837341,597.570923 
	C611.256165,603.501587 603.922058,611.212158 597.947754,609.883301 
	C587.516296,607.563049 577.148804,604.945374 566.788391,602.318726 
	C560.169739,600.640625 555.403870,605.422668 555.916260,612.069763 
	C556.767944,623.118347 557.028442,634.245361 556.840149,645.327454 
	C556.747620,650.778564 547.353088,653.870117 541.081970,651.035522 
	C531.473145,646.692444 521.866333,642.344604 512.235168,638.051270 
	C508.655579,636.455505 503.547028,639.659607 502.972931,643.541138 
	C501.376190,654.336853 499.817871,665.143433 497.907349,675.885742 
	C496.591797,683.282593 487.569397,686.939575 481.219971,682.617615 
	C472.747620,676.850464 464.462891,670.798096 456.243134,664.672913 
	C451.069366,660.817383 445.990509,661.852600 443.616150,667.902100 
	C439.950531,677.241455 436.434814,686.643799 433.067444,696.094910 
	C430.052399,704.557190 421.231659,706.815552 414.942230,700.408386 
	C407.278137,692.600708 399.782562,684.627625 392.091797,676.015625 
	C390.892639,673.879211 389.894897,671.345215 388.722107,671.261475 
	C386.388580,671.094727 382.787933,671.494507 381.763214,673.029968 
	C376.113678,681.494995 371.265930,690.491089 365.744080,699.047424 
	C363.749847,702.137634 362.427979,706.232117 357.092560,706.146362 
	C351.588806,706.057861 347.853760,704.679138 345.032898,699.460449 
	C340.544006,691.155884 335.220703,683.296509 330.135803,675.321899 
	C326.514038,669.642029 321.393585,669.043030 316.737274,673.809143 
	C310.374390,680.321960 304.263855,687.081848 297.882446,693.575928 
	C288.150360,703.479858 282.812469,702.130554 278.102295,689.160828 
	C274.989624,680.589844 271.695618,672.039551 267.757019,663.828125 
	C264.579041,657.202576 258.945007,656.573608 253.799088,661.379639 
	C253.097214,662.035156 252.208557,662.488159 251.419647,663.053528 
	C244.570831,667.960632 237.169998,672.279724 231.074905,677.991821 
	C227.057205,681.757019 223.308304,679.887207 219.776962,679.358582 
	C218.201813,679.122742 216.613022,674.879517 216.120895,672.250916 
	C214.419403,663.162842 213.352005,653.956116 211.651031,644.867920 
	C211.343842,643.226685 211.291672,639.695740 207.431793,640.759644 
	C207.321243,640.684387 207.168015,640.465210 207.382980,640.124146 
	C207.221329,635.247864 203.040466,632.742798 200.302917,633.499451 
	C193.888367,635.272583 187.777191,638.488037 181.896667,641.755737 
	C175.424713,645.352051 168.926987,648.191833 161.349167,648.045898 
	C158.664551,647.994202 157.895508,646.858765 157.983704,644.409607 
	C158.346848,634.327637 158.695206,624.244263 158.918900,614.158569 
	C159.005463,610.254944 159.403824,605.979553 153.948730,605.036316 
	C153.989105,605.012329 153.940048,605.092468 153.952209,604.695801 
	C152.675461,599.977905 147.717545,597.406921 142.904678,598.534607 
	C132.911865,600.876099 122.937401,603.302673 112.911293,605.492371 
	C107.633247,606.645020 104.798431,603.812012 105.914528,598.700806 
	C107.962868,589.320374 110.151512,579.970642 112.266220,570.604614 
	C113.584724,564.764954 110.517647,558.258240 105.948158,557.035828 
	C105.988251,557.011353 105.939995,557.091980 105.951797,556.689209 
	C105.854553,551.521912 102.505928,551.911743 99.260101,552.017395 
	C88.520035,552.367126 77.774429,552.580078 67.040100,553.053101 
	C63.549683,553.206970 62.193951,551.514954 63.092587,548.643860 
	C64.936745,542.751770 67.128677,536.950684 69.501221,531.246826 
	C71.946861,525.367065 74.913887,519.704834 77.380150,513.832886 
	C78.561035,511.021301 73.696060,504.252777 70.426659,503.756622 
	C70.318916,503.679871 70.169060,503.461853 70.389786,503.097565 
	C70.771263,499.907227 69.206314,499.290344 66.646690,498.912781 
	C57.016350,497.492188 47.416492,495.844696 37.836475,494.109589 
	C30.098248,492.708038 28.630440,489.358734 33.084240,482.920105 
	C38.548733,475.020386 44.348862,467.353516 49.898869,459.511658 
	C51.099766,457.814850 53.053635,455.425842 52.606579,453.999451 
	C50.648811,447.753021 48.873299,441.290710 41.268700,438.840546 
	C32.121185,435.893250 23.221712,432.183563 14.160312,428.957123 
	C11.404642,427.975952 10.271400,426.304840 11.320271,423.686401 
	C12.157767,421.595673 13.223125,419.385376 14.787602,417.833130 
	C21.623840,411.050110 28.739777,404.550110 35.636990,397.827148 
	C42.102814,391.524780 41.486542,383.858795 33.867153,378.818665 
	C25.552814,373.318817 16.868797,368.376343 8.581198,362.838806 
	C6.858658,361.687866 5.438679,359.096497 5.140155,356.990265 
	C4.300541,351.066254 9.523118,349.347412 13.291486,346.938171 
	C21.114992,341.936340 29.055466,337.108917 37.070087,332.418671 
	C40.351742,330.498169 40.489418,327.610657 39.842796,324.700409 
	C39.275204,322.145905 38.927086,318.807129 34.580040,318.914490 
	C26.374640,311.219513 18.403860,303.725433 10.597792,296.063568 
	C4.193624,289.777679 6.444130,280.940796 14.890102,277.934113 
	C24.339592,274.570221 33.740135,271.057831 43.079514,267.399536 
	C49.108776,265.037781 50.173347,259.910400 46.347984,254.776672 
	C40.224709,246.559128 34.167328,238.281097 28.409897,229.805954 
	C23.790287,223.005753 28.094606,214.102676 36.054092,212.969589 
	C46.853939,211.432159 57.625359,209.690842 68.397446,207.965027 
	C71.677277,207.439545 74.374054,201.988083 72.958672,198.820892 
	C68.725281,189.347839 64.377823,179.925415 60.191177,170.431946 
	C57.983131,165.425079 57.849670,158.024307 63.282681,155.263000 
	C64.659271,154.563370 66.319260,154.029755 67.836113,154.060318 
	C78.758408,154.280579 89.679207,154.616135 100.596649,155.018982 
	C106.260338,155.227951 110.310226,150.132980 108.882179,144.485916 
	C106.264488,134.134506 103.621117,123.788399 101.146950,113.402328 
	C99.738167,107.488503 107.125404,99.784531 113.078766,101.116333 
	C123.504143,103.448563 133.956360,105.775024 144.191788,108.799500 
	C150.402588,110.634743 156.999344,104.704613 154.830750,98.453392 
	C154.254440,96.792107 154.091537,94.934532 154.029297,93.156914 
	C153.757233,85.384674 153.458237,77.608398 153.474884,69.834251 
	C153.479492,67.686394 154.241852,65.401176 155.171387,63.420620 
	C157.846222,57.721348 165.581787,58.069145 170.277176,60.118866 
	C179.935379,64.335068 189.510437,68.741325 199.146988,73.007790 
	C202.233185,74.374161 207.480530,71.368126 207.997543,68.072395 
	C209.662338,57.460011 211.299271,46.843098 213.011139,36.238300 
	C214.692017,25.825659 223.921387,24.807348 229.994736,28.697031 
	C238.476929,34.129471 246.554398,40.210823 254.652252,46.220394 
	C259.957489,50.157516 265.212738,49.005821 267.595856,42.822891 
	C271.145660,33.612961 274.617798,24.369768 277.919586,15.068528 
	C281.031097,6.303289 289.744629,4.152236 296.283020,10.832304 
	C303.703217,18.413284 310.920380,26.192764 318.322052,33.792233 
	C321.958344,37.525707 327.128387,36.968361 329.715485,32.663715 
	C332.887756,27.385376 335.683350,21.861845 339.117645,16.764950 
	C342.789581,11.315349 347.015747,6.239169 351.000000,0.999995 
	C353.700012,1.000000 356.400024,1.000000 359.549988,1.000008 
M230.652985,126.055763 
	C206.008255,140.274231 183.601028,157.303452 163.830429,179.000000 
	C166.376862,179.000000 168.148224,179.000000 169.919601,179.000000 
	C257.396698,179.000000 344.873901,178.950485 432.350769,179.093811 
	C439.360535,179.105301 446.529602,179.739136 453.347534,181.296738 
	C477.329468,186.775604 498.466980,197.318985 514.995789,216.315826 
	C525.028198,227.846222 531.851257,240.835541 533.816650,255.763489 
	C536.794495,278.380829 530.014587,298.408600 513.772644,314.492371 
	C504.106689,324.064148 493.300720,332.484741 482.999329,341.429810 
	C485.872070,343.744659 489.477905,346.561493 492.987671,349.493439 
	C510.045624,363.743286 518.255432,382.669708 522.115479,404.030670 
	C522.864075,408.173157 524.128906,412.821167 526.729553,415.911377 
	C533.061218,423.434845 541.937805,425.227264 551.573547,425.084900 
	C570.360962,424.807251 582.970154,412.333069 582.998901,393.680115 
	C583.006348,388.848053 582.917542,384.014221 583.020996,379.184357 
	C583.155396,372.912933 584.118347,372.004059 590.128845,372.000977 
	C598.047791,371.996948 605.966797,372.000000 613.761963,372.000000 
	C614.203247,364.333527 614.841492,357.415131 614.921814,350.490234 
	C614.982666,345.234009 613.849854,339.943207 614.134949,334.716125 
	C614.424438,329.409912 611.761047,327.009644 607.501282,325.162018 
	C593.675781,319.165466 579.847168,313.171356 566.132141,306.929352 
	C563.465515,305.715698 560.901489,303.739136 558.982788,301.516541 
	C552.072083,293.511444 553.251587,284.955017 557.407349,276.000519 
	C564.915649,259.822052 572.097290,243.490967 579.269043,227.159348 
	C579.813721,225.919022 579.708374,223.886520 579.047485,222.699966 
	C569.955505,206.376907 558.960510,191.283142 546.054932,177.912048 
	C535.111450,166.573776 523.029114,156.208801 510.687225,146.370956 
	C480.147827,122.027657 444.770111,107.887810 407.040558,99.156906 
	C405.558533,98.813957 403.266602,99.447922 402.139740,100.483681 
	C390.931305,110.785919 379.373474,120.784172 368.963989,131.855240 
	C360.771088,140.568817 345.768005,140.305466 338.197571,131.735336 
	C334.040466,127.029251 329.680054,122.502502 325.401306,117.904182 
	C320.782074,112.939911 316.178223,107.960846 311.513275,103.039772 
	C309.385132,100.794739 307.543762,98.156624 303.624542,99.053879 
	C278.360657,104.837784 254.127945,113.356575 230.652985,126.055763 
M165.544724,529.032898 
	C167.850601,530.323242 170.433365,533.052246 172.417419,532.670410 
	C185.292267,530.192566 197.941605,526.483337 210.851715,524.265381 
	C223.008957,522.176880 232.937820,525.855957 236.017349,539.852722 
	C238.770065,552.364136 241.106689,564.972717 244.130859,577.415955 
	C245.427704,582.751953 245.382050,588.203735 252.816849,591.315735 
	C279.789978,602.605530 307.728333,609.754272 336.705719,611.719116 
	C356.256805,613.044739 375.975739,612.577942 395.529724,609.137085 
	C417.516113,605.268311 438.838501,599.567688 459.283966,590.499023 
	C462.211456,589.200439 462.471863,587.265076 462.963135,585.088318 
	C466.317596,570.225220 469.696869,555.365723 472.820099,540.453064 
	C475.667786,526.856262 487.044189,523.090454 498.204132,525.580078 
	C511.181854,528.475220 524.182983,531.277222 537.229553,533.835938 
	C538.790771,534.142212 541.157227,533.137512 542.367249,531.945435 
	C547.073486,527.309021 551.570557,522.445618 555.930237,517.477722 
	C558.405579,514.656921 560.463379,511.469849 563.041992,508.000000 
	C526.696350,508.000000 491.208130,507.990356 455.719879,508.009460 
	C449.776001,508.012665 444.593201,505.965302 439.926331,502.430725 
	C428.076141,493.455719 419.797577,481.808624 416.133148,467.493774 
	C411.592438,449.755798 408.264130,431.710724 403.928406,413.916168 
	C399.120880,394.185455 383.559082,379.605469 361.561188,379.937592 
	C341.904907,380.234344 322.240601,380.000000 302.579834,380.000000 
	C300.813324,380.000000 299.046783,380.000000 297.335663,380.000000 
	C297.335663,395.998840 297.335663,411.390686 297.335663,427.255554 
	C319.395538,427.255554 341.122986,427.255554 363.000000,427.255554 
	C363.000000,452.385071 362.858185,477.037872 363.117249,501.686462 
	C363.170380,506.740784 361.806732,508.125885 356.717987,508.113129 
	C289.072052,507.943726 221.425522,508.000000 153.779160,508.000000 
	C152.030380,508.000000 150.281601,508.000000 147.472321,508.000000 
	C153.795975,515.397278 159.409698,521.964172 165.544724,529.032898 
M138.967010,307.535217 
	C126.247772,313.241730 113.505646,318.898590 100.845619,324.733612 
	C99.614281,325.301117 98.212204,326.878632 98.043900,328.141205 
	C97.158195,334.785858 95.820358,341.522430 96.162140,348.148560 
	C97.016235,364.707062 98.248993,381.276001 100.214249,397.735168 
	C101.274704,406.616516 104.151718,415.280945 106.136154,423.732239 
	C130.793274,423.732239 154.718704,423.732239 178.719177,423.732239 
	C178.719177,368.753845 178.719177,314.043213 178.719177,259.166321 
	C167.161758,259.166321 155.883804,259.166321 144.229828,259.166321 
	C146.080505,263.279755 148.049362,267.184601 149.615036,271.244904 
	C152.038177,277.528961 156.111389,283.375183 154.714066,290.724762 
	C153.066574,299.390076 147.413498,304.203644 138.967010,307.535217 
M391.237488,262.003143 
	C388.156830,261.668762 385.076965,261.053101 381.995361,261.044189 
	C355.505676,260.967285 329.015656,261.000000 302.525757,261.000000 
	C300.764557,261.000000 299.003357,261.000000 297.353149,261.000000 
	C297.353149,277.369537 297.353149,293.094177 297.353149,308.999268 
	C325.183716,308.999268 352.665436,309.261353 380.136902,308.844086 
	C388.692017,308.714142 397.336151,307.049683 404.943787,302.518921 
	C414.621124,296.755585 419.357178,286.472870 412.116638,275.272766 
	C407.295319,267.814911 399.529266,265.282013 391.237488,262.003143 
M178.033310,568.083496 
	C178.022217,569.415222 178.002167,570.746948 178.001373,572.078674 
	C177.992294,587.208557 190.889282,596.103455 205.394821,591.257507 
	C214.238983,588.302856 217.419174,581.279297 218.889038,573.205566 
	C220.002411,567.089966 214.274490,557.892212 208.195511,554.665710 
	C195.829254,548.102173 183.276001,553.383545 178.033310,568.083496 
M500.559998,555.890503 
	C493.173248,560.007263 488.258392,569.396240 490.785248,578.740906 
	C492.891205,586.529053 502.510254,594.633850 511.640076,593.986145 
	C521.458069,593.289734 530.431824,584.433289 531.020386,575.183655 
	C531.952148,560.539429 517.020264,547.185913 500.559998,555.890503 
M334.000488,86.240959 
	C334.344177,87.816628 334.533234,89.445831 335.057037,90.959137 
	C338.081635,99.696678 348.131195,106.358513 356.462067,104.948303 
	C367.922211,103.008385 374.404053,95.110428 374.948853,84.772301 
	C375.493652,74.434410 365.775513,64.331223 355.547791,63.976749 
	C343.919281,63.573734 333.641937,72.812256 334.000488,86.240959 
M625.216003,269.716187 
	C620.943420,257.245270 608.729065,254.290543 600.965759,256.566406 
	C589.628418,259.889984 584.041565,268.809570 586.053223,280.725616 
	C587.958496,292.011139 602.312622,301.194458 613.941528,294.875519 
	C624.095947,289.357758 627.298706,284.323242 625.216003,269.716187 
M110.797119,256.308838 
	C107.902557,255.872559 105.013512,255.112869 102.112343,255.063324 
	C94.730324,254.937317 86.633087,260.467957 84.034081,267.215149 
	C80.191544,277.190613 82.534142,283.103699 89.027763,290.364624 
	C94.121872,296.060669 103.693710,297.416077 110.687500,294.029236 
	C117.341843,290.806732 122.180977,285.781433 122.932938,278.106781 
	C123.866974,268.573700 120.345818,261.159607 110.797119,256.308838 
z"/>
<path fill="#FFFFFF" opacity="1.000000" stroke="none" 
	d="
M351.000000,710.000000 
	C234.406357,710.000000 117.812729,710.000000 1.000000,710.000000 
	C1.000000,593.979187 1.000000,477.958252 1.330178,361.556091 
	C11.684552,367.770325 21.631964,374.486847 31.763910,380.912415 
	C37.179852,384.347107 38.039742,388.560028 33.472076,393.007507 
	C25.762182,400.514526 17.844429,407.809479 10.190319,415.371948 
	C4.333947,421.158173 6.693797,430.255951 14.464699,433.015503 
	C23.904354,436.367706 33.321541,439.788422 42.690205,443.333435 
	C49.008991,445.724396 50.267239,450.968262 46.344589,456.228180 
	C40.226093,464.432526 34.190151,472.709229 28.432756,481.168640 
	C23.824997,487.938965 27.933306,496.713135 35.994217,497.998291 
	C47.386604,499.814667 58.777519,501.640198 70.169060,503.461853 
	C70.169060,503.461853 70.318916,503.679871 70.599716,504.030975 
	C71.902451,507.281097 74.760933,509.221710 72.481476,513.447876 
	C67.740623,522.237488 63.981586,531.574097 60.102177,540.804932 
	C57.309090,547.450928 58.275646,557.150879 68.478180,557.109924 
	C78.751884,557.068726 89.021317,556.342590 99.296906,556.092285 
	C101.501839,556.038635 103.725143,556.738953 105.939995,557.091980 
	C105.939995,557.091980 105.988251,557.011353 106.100479,557.371338 
	C109.283226,561.082642 109.252625,564.724609 108.097221,568.992859 
	C105.568306,578.335022 103.585617,587.824402 101.344398,597.245300 
	C99.787086,603.791321 107.043015,611.318542 113.544907,609.775208 
	C122.803200,607.577637 132.094254,605.484131 141.260071,602.944702 
	C146.014496,601.627380 150.192673,601.513062 153.940048,605.092468 
	C153.940048,605.092468 153.989105,605.012329 154.130402,605.404541 
	C154.181122,609.635193 154.035858,613.473206 154.011658,617.312073 
	C153.964432,624.803833 154.523422,632.344788 153.851028,639.776672 
	C152.844315,650.903687 160.846893,654.295105 169.248566,651.121582 
	C177.275360,648.089539 185.053253,644.345886 192.772552,640.571411 
	C197.697067,638.163513 202.325546,635.936707 207.168015,640.465210 
	C207.168015,640.465210 207.321243,640.684387 207.626907,641.092346 
	C209.667084,653.100647 211.064621,664.765198 213.258224,676.278076 
	C214.648666,683.575562 223.486954,686.852844 229.693451,682.648010 
	C238.172684,676.903442 246.456406,670.860413 254.677353,664.748169 
	C259.990082,660.798218 265.215149,661.975159 267.613953,668.209839 
	C271.157196,677.418884 274.625305,686.660095 277.922180,695.959656 
	C281.024506,704.710388 289.742767,706.839417 296.298859,700.146973 
	C303.719910,692.571594 310.933350,684.793091 318.334320,677.197632 
	C321.968353,673.468140 327.135681,674.035583 329.723267,678.345154 
	C332.892303,683.623108 335.685822,689.145630 339.118835,694.240906 
	C342.789612,699.689026 347.016083,704.762817 351.000000,710.000000 
z"/>
<path fill="#FFFFFF" opacity="1.000000" stroke="none" 
	d="
M350.531342,0.999995 
	C347.015747,6.239169 342.789581,11.315349 339.117645,16.764950 
	C335.683350,21.861845 332.887756,27.385376 329.715485,32.663715 
	C327.128387,36.968361 321.958344,37.525707 318.322052,33.792233 
	C310.920380,26.192764 303.703217,18.413284 296.283020,10.832304 
	C289.744629,4.152236 281.031097,6.303289 277.919586,15.068528 
	C274.617798,24.369768 271.145660,33.612961 267.595856,42.822891 
	C265.212738,49.005821 259.957489,50.157516 254.652252,46.220394 
	C246.554398,40.210823 238.476929,34.129471 229.994736,28.697031 
	C223.921387,24.807348 214.692017,25.825659 213.011139,36.238300 
	C211.299271,46.843098 209.662338,57.460011 207.997543,68.072395 
	C207.480530,71.368126 202.233185,74.374161 199.146988,73.007790 
	C189.510437,68.741325 179.935379,64.335068 170.277176,60.118866 
	C165.581787,58.069145 157.846222,57.721348 155.171387,63.420620 
	C154.241852,65.401176 153.479492,67.686394 153.474884,69.834251 
	C153.458237,77.608398 153.757233,85.384674 154.029297,93.156914 
	C154.091537,94.934532 154.254440,96.792107 154.830750,98.453392 
	C156.999344,104.704613 150.402588,110.634743 144.191788,108.799500 
	C133.956360,105.775024 123.504143,103.448563 113.078766,101.116333 
	C107.125404,99.784531 99.738167,107.488503 101.146950,113.402328 
	C103.621117,123.788399 106.264488,134.134506 108.882179,144.485916 
	C110.310226,150.132980 106.260338,155.227951 100.596649,155.018982 
	C89.679207,154.616135 78.758408,154.280579 67.836113,154.060318 
	C66.319260,154.029755 64.659271,154.563370 63.282681,155.263000 
	C57.849670,158.024307 57.983131,165.425079 60.191177,170.431946 
	C64.377823,179.925415 68.725281,189.347839 72.958672,198.820892 
	C74.374054,201.988083 71.677277,207.439545 68.397446,207.965027 
	C57.625359,209.690842 46.853939,211.432159 36.054092,212.969589 
	C28.094606,214.102676 23.790287,223.005753 28.409897,229.805954 
	C34.167328,238.281097 40.224709,246.559128 46.347984,254.776672 
	C50.173347,259.910400 49.108776,265.037781 43.079514,267.399536 
	C33.740135,271.057831 24.339592,274.570221 14.890102,277.934113 
	C6.444130,280.940796 4.193624,289.777679 10.597792,296.063568 
	C18.403860,303.725433 26.374640,311.219513 34.762550,319.280762 
	C37.260078,324.739136 35.900200,327.821625 31.030746,330.676056 
	C20.770340,336.690613 10.982030,343.510559 0.999995,350.000000 
	C1.000000,233.739487 1.000000,117.478973 1.000000,1.000000 
	C117.354134,1.000000 233.708405,1.000000 350.531342,0.999995 
z"/>
<path fill="#D44516" opacity="1.000000" stroke="none" 
	d="
M2000.000000,507.531342 
	C1988.200073,508.000000 1976.400146,508.000000 1964.000000,508.000000 
	C1964.000000,505.951447 1964.000000,504.185364 1964.000000,502.419250 
	C1964.000000,481.266785 1964.158569,460.112122 1963.866455,438.963684 
	C1963.807983,434.723663 1962.668701,430.222382 1960.924438,426.336884 
	C1956.722534,416.976685 1943.343506,414.889252 1935.664917,421.766266 
	C1929.292358,427.473755 1927.381348,435.040405 1927.120850,442.867035 
	C1926.430664,463.602722 1926.333374,484.358093 1925.995361,505.105591 
	C1925.982300,505.904968 1925.920288,506.703522 1925.869263,507.743958 
	C1913.896973,507.743958 1902.175171,507.743958 1890.226196,507.743958 
	C1890.226196,468.968567 1890.226196,430.377686 1890.226196,391.017822 
	C1898.830444,391.017822 1907.572021,390.929108 1916.305664,391.150421 
	C1917.213501,391.173401 1918.474487,392.897156 1918.884521,394.071625 
	C1920.246094,397.972046 1921.293701,401.982147 1922.633911,406.535217 
	C1936.617554,387.875580 1955.250366,385.878662 1975.263428,391.191559 
	C1987.013794,394.310883 1995.671875,401.893829 1998.266113,414.705444 
	C1998.348999,415.114349 1998.934570,415.421387 1999.642944,415.887939 
	C2000.000000,446.354218 2000.000000,476.708466 2000.000000,507.531342 
z"/>
<path fill="#D44516" opacity="1.000000" stroke="none" 
	d="
M0.999995,350.458069 
	C10.982030,343.510559 20.770340,336.690613 31.030746,330.676056 
	C35.900200,327.821625 37.260078,324.739136 35.068413,319.409058 
	C38.927086,318.807129 39.275204,322.145905 39.842796,324.700409 
	C40.489418,327.610657 40.351742,330.498169 37.070087,332.418671 
	C29.055466,337.108917 21.114992,341.936340 13.291486,346.938171 
	C9.523118,349.347412 4.300541,351.066254 5.140155,356.990265 
	C5.438679,359.096497 6.858658,361.687866 8.581198,362.838806 
	C16.868797,368.376343 25.552814,373.318817 33.867153,378.818665 
	C41.486542,383.858795 42.102814,391.524780 35.636990,397.827148 
	C28.739777,404.550110 21.623840,411.050110 14.787602,417.833130 
	C13.223125,419.385376 12.157767,421.595673 11.320271,423.686401 
	C10.271400,426.304840 11.404642,427.975952 14.160312,428.957123 
	C23.221712,432.183563 32.121185,435.893250 41.268700,438.840546 
	C48.873299,441.290710 50.648811,447.753021 52.606579,453.999451 
	C53.053635,455.425842 51.099766,457.814850 49.898869,459.511658 
	C44.348862,467.353516 38.548733,475.020386 33.084240,482.920105 
	C28.630440,489.358734 30.098248,492.708038 37.836475,494.109589 
	C47.416492,495.844696 57.016350,497.492188 66.646690,498.912781 
	C69.206314,499.290344 70.771263,499.907227 70.389786,503.097565 
	C58.777519,501.640198 47.386604,499.814667 35.994217,497.998291 
	C27.933306,496.713135 23.824997,487.938965 28.432756,481.168640 
	C34.190151,472.709229 40.226093,464.432526 46.344589,456.228180 
	C50.267239,450.968262 49.008991,445.724396 42.690205,443.333435 
	C33.321541,439.788422 23.904354,436.367706 14.464699,433.015503 
	C6.693797,430.255951 4.333947,421.158173 10.190319,415.371948 
	C17.844429,407.809479 25.762182,400.514526 33.472076,393.007507 
	C38.039742,388.560028 37.179852,384.347107 31.763910,380.912415 
	C21.631964,374.486847 11.684552,367.770325 1.330178,361.087433 
	C1.000000,357.638702 1.000000,354.277435 0.999995,350.458069 
z"/>
<path fill="#D44516" opacity="1.000000" stroke="none" 
	d="
M351.449982,710.000000 
	C347.016083,704.762817 342.789612,699.689026 339.118835,694.240906 
	C335.685822,689.145630 332.892303,683.623108 329.723267,678.345154 
	C327.135681,674.035583 321.968353,673.468140 318.334320,677.197632 
	C310.933350,684.793091 303.719910,692.571594 296.298859,700.146973 
	C289.742767,706.839417 281.024506,704.710388 277.922180,695.959656 
	C274.625305,686.660095 271.157196,677.418884 267.613953,668.209839 
	C265.215149,661.975159 259.990082,660.798218 254.677353,664.748169 
	C246.456406,670.860413 238.172684,676.903442 229.693451,682.648010 
	C223.486954,686.852844 214.648666,683.575562 213.258224,676.278076 
	C211.064621,664.765198 209.667084,653.100647 207.737457,641.167603 
	C211.291672,639.695740 211.343842,643.226685 211.651031,644.867920 
	C213.352005,653.956116 214.419403,663.162842 216.120895,672.250916 
	C216.613022,674.879517 218.201813,679.122742 219.776962,679.358582 
	C223.308304,679.887207 227.057205,681.757019 231.074905,677.991821 
	C237.169998,672.279724 244.570831,667.960632 251.419647,663.053528 
	C252.208557,662.488159 253.097214,662.035156 253.799088,661.379639 
	C258.945007,656.573608 264.579041,657.202576 267.757019,663.828125 
	C271.695618,672.039551 274.989624,680.589844 278.102295,689.160828 
	C282.812469,702.130554 288.150360,703.479858 297.882446,693.575928 
	C304.263855,687.081848 310.374390,680.321960 316.737274,673.809143 
	C321.393585,669.043030 326.514038,669.642029 330.135803,675.321899 
	C335.220703,683.296509 340.544006,691.155884 345.032898,699.460449 
	C347.853760,704.679138 351.588806,706.057861 357.092560,706.146362 
	C362.427979,706.232117 363.749847,702.137634 365.744080,699.047424 
	C371.265930,690.491089 376.113678,681.494995 381.763214,673.029968 
	C382.787933,671.494507 386.388580,671.094727 388.722107,671.261475 
	C389.894897,671.345215 390.892639,673.879211 391.963562,675.709717 
	C385.951508,673.567627 383.828400,674.387817 380.622467,679.759521 
	C375.512512,688.321472 370.275940,696.811768 364.885834,705.199219 
	C363.804291,706.882202 361.797363,707.970520 360.108582,709.666504 
	C357.299988,710.000000 354.599976,710.000000 351.449982,710.000000 
z"/>
<path fill="#D44516" opacity="1.000000" stroke="none" 
	d="
M842.875732,330.000000 
	C832.096863,330.000000 821.806091,330.000000 811.259338,330.000000 
	C811.259338,279.584381 811.259338,229.543915 811.259338,179.000000 
	C827.989563,179.000000 844.594910,178.845352 861.195618,179.057388 
	C871.329041,179.186798 881.241211,180.711349 891.012390,183.854477 
	C912.215027,190.674820 921.808716,210.832169 918.222839,231.883255 
	C915.871704,245.685516 909.106262,254.742126 892.589478,264.961334 
	C907.042053,286.462158 921.485291,307.949158 936.307373,329.999634 
	C922.555603,329.999634 909.752991,330.118256 896.958496,329.849945 
	C895.354370,329.816315 893.229797,328.084900 892.298279,326.559021 
	C882.154602,309.942810 872.232117,293.191681 862.127319,276.551422 
	C861.427917,275.399567 859.818420,274.253021 858.525208,274.116394 
	C855.251770,273.770599 851.917358,274.001648 848.141357,274.001648 
	C848.141357,292.654144 848.141357,311.047699 848.141357,329.745209 
	C846.249084,329.846130 844.806458,329.923065 842.875732,330.000000 
M851.650635,244.999817 
	C856.552185,244.662628 861.493591,244.608154 866.346252,243.924088 
	C874.230652,242.812622 880.042664,237.192978 880.986145,230.337357 
	C882.352600,220.408646 879.294739,213.823532 871.099976,210.690018 
	C863.729248,207.871628 855.960083,207.500763 848.000488,208.320480 
	C848.000488,219.703079 847.921021,230.656876 848.118408,241.605698 
	C848.139099,242.751694 849.795959,243.868195 851.650635,244.999817 
z"/>
<path fill="#D44516" opacity="1.000000" stroke="none" 
	d="
M1439.000000,395.000000 
	C1439.000000,432.791473 1439.000000,470.082947 1439.000000,507.993469 
	C1430.151855,507.993469 1421.554932,508.081970 1412.965454,507.872986 
	C1411.976074,507.848938 1410.718628,506.335571 1410.114502,505.225006 
	C1407.948120,501.242126 1406.009277,497.135498 1404.312134,493.732910 
	C1399.096069,497.922302 1394.623291,503.153076 1388.945801,505.777466 
	C1369.448975,514.789673 1347.294312,508.862061 1336.182129,488.384460 
	C1331.224854,479.248901 1329.840454,469.150513 1328.785889,458.811096 
	C1327.345337,444.689178 1328.521973,431.018555 1333.066406,417.752777 
	C1340.598145,395.767242 1358.620361,385.658936 1381.891479,389.794189 
	C1390.985352,391.410156 1397.138916,396.842255 1403.345459,402.885040 
	C1402.742920,384.115601 1402.142700,365.421661 1401.530518,346.353973 
	C1414.235596,346.353973 1426.294067,346.353973 1439.000000,346.353973 
	C1439.000000,362.327423 1439.000000,378.413696 1439.000000,395.000000 
M1404.625610,460.865753 
	C1404.406372,452.320374 1405.310181,443.556061 1403.697266,435.282410 
	C1401.444092,423.724579 1397.488403,419.808624 1384.553833,418.175964 
	C1377.860352,417.331116 1370.838135,423.507538 1367.743286,432.675598 
	C1364.199341,443.174255 1364.083862,453.765289 1366.982300,464.432617 
	C1369.839966,474.949921 1375.861206,481.410034 1388.785522,480.024200 
	C1397.153076,479.126984 1403.542969,471.578278 1404.625610,460.865753 
z"/>
<path fill="#D44516" opacity="1.000000" stroke="none" 
	d="
M1537.010254,494.094421 
	C1535.561768,494.384552 1533.706909,494.678284 1532.866821,495.760040 
	C1523.890381,507.318542 1511.112549,510.004547 1497.784912,509.827057 
	C1481.082642,509.604553 1465.956543,501.659393 1462.969116,483.948914 
	C1458.761108,459.002441 1465.222534,443.465088 1491.767822,437.176697 
	C1500.605347,435.083099 1509.907471,434.865753 1519.021118,434.061340 
	C1523.126343,433.699005 1527.290161,434.000000 1531.336426,434.000000 
	C1535.049194,420.175476 1523.406128,413.066742 1512.779541,415.642639 
	C1503.242188,417.954498 1493.743042,420.424225 1483.447144,423.021057 
	C1480.195923,415.872955 1476.530029,407.813293 1472.314697,398.545380 
	C1479.818970,396.094238 1486.821045,392.996552 1494.148438,391.574310 
	C1512.106079,388.088684 1530.097046,386.227661 1547.749512,393.863007 
	C1559.266357,398.844513 1566.971436,407.765808 1567.614746,419.492767 
	C1569.221558,448.781952 1568.984863,478.172272 1569.492188,507.765808 
	C1560.308350,507.765808 1552.036743,507.765808 1543.393066,507.765808 
	C1541.356445,503.477966 1539.215576,498.970917 1537.010254,494.094421 
M1500.256592,464.266510 
	C1497.572754,474.535156 1499.724243,480.198303 1507.276245,482.743530 
	C1513.408447,484.810272 1524.028198,480.603455 1528.308228,475.510345 
	C1533.592773,469.221649 1531.567749,462.255371 1531.956665,454.763275 
	C1520.622070,455.773743 1509.028687,453.515594 1500.256592,464.266510 
z"/>
<path fill="#D44516" opacity="1.000000" stroke="none" 
	d="
M1238.419434,395.228271 
	C1256.751953,386.557190 1274.469116,385.679016 1291.774780,396.952179 
	C1299.006226,401.662811 1302.171143,408.933258 1303.882080,416.849243 
	C1304.843994,421.299744 1304.935791,425.995758 1304.954590,430.583069 
	C1305.052124,454.409271 1305.000000,478.236084 1305.000000,502.062683 
	C1305.000000,503.862335 1305.000000,505.661987 1305.000000,507.728821 
	C1292.924805,507.728821 1281.199585,507.728821 1269.000000,507.728821 
	C1269.000000,500.138428 1269.000000,492.688568 1269.000000,485.238678 
	C1269.000000,470.076294 1269.160400,454.911102 1268.895264,439.753357 
	C1268.822632,435.594574 1267.990845,431.276825 1266.607300,427.349121 
	C1263.729858,419.181488 1255.825562,416.263184 1246.849121,418.493561 
	C1237.886841,420.720337 1234.981689,427.592529 1233.184937,435.087189 
	C1231.785522,440.924133 1231.180176,447.064209 1231.093750,453.082062 
	C1230.833984,471.205719 1231.000000,489.335480 1231.000000,507.730286 
	C1218.921753,507.730286 1207.196411,507.730286 1195.234863,507.730286 
	C1195.234863,468.974854 1195.234863,430.372620 1195.234863,391.385010 
	C1204.173950,391.385010 1213.240112,391.385010 1222.515503,391.385010 
	C1224.073853,395.775513 1225.718018,400.408234 1227.483276,405.381683 
	C1231.293823,401.800873 1234.692383,398.607361 1238.419434,395.228271 
z"/>
<path fill="#D44516" opacity="1.000000" stroke="none" 
	d="
M1055.191650,478.402893 
	C1055.042358,449.189270 1055.042358,420.403046 1055.042358,391.308807 
	C1066.993164,391.308807 1078.714844,391.308807 1091.000000,391.308807 
	C1091.000000,393.095612 1091.000000,394.867096 1091.000000,396.638611 
	C1091.000000,417.122253 1090.879272,437.607208 1091.100586,458.088440 
	C1091.145508,462.244781 1091.963867,466.566376 1093.327026,470.499298 
	C1096.336182,479.181305 1106.031494,482.552002 1114.771240,479.192566 
	C1123.030029,476.018066 1126.157471,469.215576 1126.788940,461.756378 
	C1128.138672,445.811310 1128.427490,429.771606 1128.957886,413.764252 
	C1129.204224,406.325012 1129.000000,398.870819 1129.000000,391.216309 
	C1141.062256,391.216309 1152.665771,391.216309 1164.635254,391.216309 
	C1164.635254,429.867920 1164.635254,468.574310 1164.635254,507.640778 
	C1155.771606,507.640778 1146.705566,507.640778 1137.354492,507.640778 
	C1135.819702,502.888550 1134.214478,497.918213 1132.396973,492.290649 
	C1120.970337,507.500122 1105.856812,511.068207 1088.678345,509.002136 
	C1073.576660,507.185760 1059.453491,499.845154 1055.191650,478.402893 
z"/>
<path fill="#D44516" opacity="1.000000" stroke="none" 
	d="
M1023.000000,235.000153 
	C1023.000000,227.862366 1023.000000,221.224533 1023.000000,214.295212 
	C1035.025391,214.295212 1046.750488,214.295212 1058.739014,214.295212 
	C1058.739014,252.756851 1058.739014,291.142029 1058.739014,329.996277 
	C1050.137451,329.996277 1041.684448,330.125000 1033.245239,329.841125 
	C1032.130859,329.803619 1030.639282,327.836945 1030.099609,326.459320 
	C1028.766846,323.056488 1027.885254,319.476868 1026.545532,315.054504 
	C1024.740479,317.251892 1023.608643,318.733765 1022.370056,320.120422 
	C1015.444702,327.874329 1006.404114,330.780273 996.386292,332.106476 
	C987.751831,333.249542 979.633972,332.073883 971.546875,329.208130 
	C959.559937,324.960480 952.646790,316.348175 950.096130,304.196381 
	C949.193542,299.896271 949.063354,295.378113 949.045410,290.957611 
	C948.949280,267.299133 949.000000,243.640045 949.000000,219.981171 
	C949.000000,218.177582 949.000000,216.373993 949.000000,214.286804 
	C961.042725,214.286804 972.767761,214.286804 985.000000,214.286804 
	C985.000000,215.994034 985.000000,217.607193 985.000000,219.220352 
	C985.000000,239.546982 984.811646,259.876648 985.136047,280.198090 
	C985.214600,285.119354 986.616394,290.126984 988.079651,294.889038 
	C989.607727,299.861969 993.593811,302.596008 998.748657,302.943817 
	C1005.840576,303.422363 1013.282837,302.823547 1016.781921,295.792908 
	C1019.590210,290.150269 1021.343079,283.554260 1021.794800,277.254486 
	C1022.789856,263.378906 1022.666809,249.423157 1023.000000,235.000153 
z"/>
<path fill="#D44516" opacity="1.000000" stroke="none" 
	d="
M954.467163,391.232117 
	C962.677612,390.368896 970.513977,389.054840 978.339905,389.114868 
	C1004.679932,389.316772 1025.734863,406.600342 1030.021484,433.103149 
	C1032.448853,448.111816 1032.382935,462.960876 1026.887695,477.341614 
	C1020.589417,493.823578 1008.249023,503.836639 991.383179,507.701080 
	C972.988525,511.915833 955.088989,510.657532 939.198792,499.006836 
	C928.359131,491.059174 921.808777,480.343994 918.949768,467.184814 
	C916.076050,453.958069 916.306030,440.895721 919.596252,427.783447 
	C924.276306,409.132202 935.807739,397.102509 954.467163,391.232117 
M994.048828,446.031677 
	C993.355835,440.716461 993.506714,435.109009 991.788635,430.148804 
	C988.532410,420.747375 984.124695,417.390656 974.609192,417.172211 
	C966.033081,416.975372 959.460938,421.392700 956.811279,430.165131 
	C952.846191,443.292480 952.979797,456.231079 957.142761,469.083069 
	C959.215027,475.480499 963.807861,480.027161 970.816956,480.925507 
	C977.788391,481.818939 984.555054,480.736908 988.755737,474.417603 
	C994.279053,466.108917 994.365051,456.441681 994.048828,446.031677 
z"/>
<path fill="#D44516" opacity="1.000000" stroke="none" 
	d="
M1831.545898,392.230072 
	C1852.513794,400.185822 1863.245361,416.237701 1865.604858,437.002136 
	C1867.581543,454.398163 1867.094482,472.178497 1856.102173,487.652863 
	C1846.463379,501.221741 1833.272583,507.421722 1816.961060,509.215881 
	C1806.404785,510.376984 1796.352173,509.385651 1786.670410,505.887238 
	C1768.750854,499.412262 1758.031128,486.319336 1753.986328,467.718964 
	C1750.936768,453.695709 1751.013916,439.790527 1754.924316,425.890198 
	C1760.176147,407.221771 1772.449097,395.875946 1790.918457,391.040649 
	C1804.386230,387.514740 1817.850708,388.173309 1831.545898,392.230072 
M1789.050293,458.043671 
	C1790.010986,461.617035 1790.942261,465.198578 1791.937866,468.762207 
	C1794.436523,477.705902 1802.460327,481.846222 1812.032959,481.046570 
	C1818.243286,480.527771 1825.258179,474.410309 1826.987671,467.548767 
	C1829.759033,456.554352 1829.831177,445.444611 1827.894653,434.371643 
	C1826.801270,428.119843 1824.145142,421.957092 1818.177490,419.252838 
	C1803.729248,412.705688 1792.337646,421.020538 1790.133423,435.426849 
	C1789.043701,442.548767 1789.337891,449.882446 1789.050293,458.043671 
z"/>
<path fill="#D44516" opacity="1.000000" stroke="none" 
	d="
M877.999084,449.000000 
	C867.528076,449.000000 857.556763,449.000000 847.105835,449.000000 
	C847.105835,468.693817 847.105835,488.091156 847.105835,507.741150 
	C834.898071,507.741150 823.171814,507.741150 811.222351,507.741150 
	C811.222351,457.279938 811.222351,407.008667 811.222351,356.368530 
	C840.211670,356.368530 869.270447,356.368530 898.665283,356.368530 
	C898.665283,365.944458 898.665283,375.672546 898.665283,385.886932 
	C881.646973,385.886932 864.582642,385.886932 847.262268,385.886932 
	C847.262268,397.094849 847.262268,407.821289 847.262268,418.854919 
	C863.381226,418.854919 879.325012,418.854919 895.633423,418.854919 
	C895.633423,428.877960 895.633423,438.607208 895.633423,449.000000 
	C890.023987,449.000000 884.261353,449.000000 877.999084,449.000000 
z"/>
<path fill="#D44516" opacity="1.000000" stroke="none" 
	d="
M1083.993896,255.802261 
	C1080.487671,237.475220 1084.318359,223.178131 1103.669678,216.012344 
	C1116.613037,211.219498 1129.915771,211.311356 1143.471680,212.847519 
	C1153.645386,214.000397 1162.915283,217.302933 1172.114502,221.527008 
	C1168.550659,229.912827 1165.138428,237.941681 1161.610352,246.243546 
	C1155.680908,244.148026 1150.134399,241.927094 1144.430420,240.238235 
	C1137.347412,238.141113 1130.072876,236.516281 1122.774902,239.088882 
	C1120.967651,239.725937 1118.417969,241.587143 1118.346069,242.994614 
	C1118.251221,244.855469 1119.788940,247.715073 1121.446411,248.591278 
	C1128.589111,252.367172 1136.029663,255.580536 1143.366699,258.987976 
	C1151.417969,262.727142 1159.709229,265.914520 1165.708496,273.095123 
	C1174.147827,283.196167 1174.344482,294.488800 1171.220337,306.323883 
	C1167.269043,321.292572 1156.140991,328.312439 1141.989746,330.887024 
	C1123.898438,334.178436 1105.859131,333.141663 1088.147583,327.944672 
	C1084.849731,326.976990 1082.635742,325.513031 1082.870117,321.177490 
	C1083.317383,312.910034 1083.000000,304.601166 1083.000000,296.503326 
	C1090.846069,298.888245 1098.271973,301.717621 1105.953613,303.321594 
	C1113.848267,304.970062 1121.965454,307.662445 1130.065063,304.849060 
	C1132.992310,303.832336 1137.042114,301.437775 1137.458984,299.112518 
	C1137.868652,296.827118 1134.920410,292.719116 1132.395142,291.354279 
	C1124.448853,287.059509 1115.859375,283.971771 1107.797119,279.869995 
	C1097.411499,274.586151 1087.143677,268.924957 1083.993896,255.802261 
z"/>
<path fill="#D44516" opacity="1.000000" stroke="none" 
	d="
M1593.173950,399.313293 
	C1594.275757,398.540833 1595.063965,397.927399 1595.953125,397.554657 
	C1606.127319,393.289032 1608.601562,383.622314 1611.959351,374.638000 
	C1614.798462,367.041138 1614.688354,367.000000 1622.838745,367.000000 
	C1627.989502,367.000000 1633.140259,367.000000 1639.000000,367.000000 
	C1639.000000,371.085815 1639.000000,375.003540 1639.000000,378.921234 
	C1639.000000,382.731842 1639.000000,386.542480 1639.000000,390.826721 
	C1648.956665,390.826721 1658.686646,390.826721 1668.704102,390.826721 
	C1668.704102,400.019623 1668.704102,408.741943 1668.704102,417.942688 
	C1658.923340,417.942688 1649.193726,417.942688 1639.000000,417.942688 
	C1639.000000,429.851807 1639.000000,441.291382 1639.000000,452.730988 
	C1639.000000,456.560730 1639.283203,460.415253 1638.950684,464.215912 
	C1637.556641,480.150024 1646.563721,481.582031 1659.388428,479.213806 
	C1663.043945,478.538788 1666.655518,477.626617 1670.979492,476.670044 
	C1670.979492,485.543274 1671.071533,493.961090 1670.843994,502.370239 
	C1670.819946,503.260773 1669.033569,504.630280 1667.872192,504.879333 
	C1659.314819,506.714233 1650.736206,509.503052 1642.110718,509.704803 
	C1630.920654,509.966522 1619.512451,508.822449 1610.997192,499.564758 
	C1605.878296,493.999664 1603.309937,487.393829 1603.088989,480.118103 
	C1602.494751,460.550873 1602.332397,440.970490 1602.001831,421.395294 
	C1601.985596,420.433868 1601.999512,419.471924 1601.999512,418.033569 
	C1597.238281,418.033569 1592.829956,418.033569 1588.002319,418.033569 
	C1588.002319,413.114319 1587.543823,408.589478 1588.226440,404.243866 
	C1588.502075,402.488861 1591.272339,401.125671 1593.173950,399.313293 
z"/>
<path fill="#D44516" opacity="1.000000" stroke="none" 
	d="
M1217.233032,190.000000 
	C1223.660400,190.000000 1229.614502,190.000000 1235.864014,190.000000 
	C1235.864014,198.054352 1235.864014,205.667313 1235.864014,213.759369 
	C1246.217896,213.759369 1256.286255,213.759369 1266.674072,213.759369 
	C1266.674072,222.961548 1266.674072,231.689072 1266.674072,240.902985 
	C1256.633545,240.902985 1246.565796,240.902985 1236.000000,240.902985 
	C1236.000000,257.155792 1235.956665,272.931274 1236.045776,288.706024 
	C1236.059448,291.118469 1236.308838,293.660828 1237.106445,295.910004 
	C1238.717285,300.452698 1241.798828,303.509003 1247.070435,302.973022 
	C1253.845093,302.284149 1260.600098,301.400269 1267.661865,300.565125 
	C1267.661865,308.865265 1267.661865,317.599518 1267.661865,327.736023 
	C1260.871704,329.099060 1253.674072,330.713013 1246.413086,331.957611 
	C1237.776855,333.438019 1229.284668,332.609985 1220.857056,330.080139 
	C1209.052246,326.536621 1202.548584,318.146515 1201.226440,306.605835 
	C1199.874634,294.804657 1200.228394,282.797760 1200.032715,270.877655 
	C1199.872070,261.087708 1200.000000,251.293030 1200.000000,241.195099 
	C1195.010986,241.195099 1190.398560,241.195099 1185.015259,241.195099 
	C1185.015259,236.174561 1184.946899,231.423843 1185.093018,226.679718 
	C1185.113647,226.009659 1186.085693,225.238022 1186.781494,224.745010 
	C1188.633179,223.433060 1190.431152,221.879974 1192.503662,221.072098 
	C1204.910889,216.235687 1206.687012,204.171585 1210.773193,193.889267 
	C1212.137573,190.455688 1213.669800,189.629074 1217.233032,190.000000 
z"/>
<path fill="#D44516" opacity="1.000000" stroke="none" 
	d="
M1692.000000,406.004181 
	C1692.000000,400.869446 1692.000000,396.233978 1692.000000,391.301605 
	C1704.002563,391.301605 1715.718872,391.301605 1727.718750,391.301605 
	C1727.718750,430.019135 1727.718750,468.707642 1727.718750,507.698425 
	C1715.997314,507.698425 1704.281128,507.698425 1692.000000,507.698425 
	C1692.000000,473.948608 1692.000000,440.226013 1692.000000,406.004181 
z"/>
<path fill="#D44516" opacity="1.000000" stroke="none" 
	d="
M1693.095093,351.414825 
	C1700.480835,342.725800 1717.313477,343.283447 1725.843872,349.635925 
	C1727.623413,350.961182 1728.461426,354.090271 1728.935425,356.542236 
	C1732.068237,372.747284 1725.025757,377.298798 1712.836304,378.767639 
	C1708.060547,379.343140 1702.571899,378.244812 1698.171509,376.236053 
	C1695.113159,374.839905 1691.824829,370.804016 1691.371948,367.565338 
	C1690.656616,362.449768 1692.234375,357.013580 1693.095093,351.414825 
z"/>
<path fill="#FFFFFF" opacity="1.000000" stroke="none" 
	d="
M231.026169,125.995590 
	C254.127945,113.356575 278.360657,104.837784 303.624542,99.053879 
	C307.543762,98.156624 309.385132,100.794739 311.513275,103.039772 
	C316.178223,107.960846 320.782074,112.939911 325.401306,117.904182 
	C329.680054,122.502502 334.040466,127.029251 338.197571,131.735336 
	C345.768005,140.305466 360.771088,140.568817 368.963989,131.855240 
	C379.373474,120.784172 390.931305,110.785919 402.139740,100.483681 
	C403.266602,99.447922 405.558533,98.813957 407.040558,99.156906 
	C444.770111,107.887810 480.147827,122.027657 510.687225,146.370956 
	C523.029114,156.208801 535.111450,166.573776 546.054932,177.912048 
	C558.960510,191.283142 569.955505,206.376907 579.047485,222.699966 
	C579.708374,223.886520 579.813721,225.919022 579.269043,227.159348 
	C572.097290,243.490967 564.915649,259.822052 557.407349,276.000519 
	C553.251587,284.955017 552.072083,293.511444 558.982788,301.516541 
	C560.901489,303.739136 563.465515,305.715698 566.132141,306.929352 
	C579.847168,313.171356 593.675781,319.165466 607.501282,325.162018 
	C611.761047,327.009644 614.424438,329.409912 614.134949,334.716125 
	C613.849854,339.943207 614.982666,345.234009 614.921814,350.490234 
	C614.841492,357.415131 614.203247,364.333527 613.761963,372.000000 
	C605.966797,372.000000 598.047791,371.996948 590.128845,372.000977 
	C584.118347,372.004059 583.155396,372.912933 583.020996,379.184357 
	C582.917542,384.014221 583.006348,388.848053 582.998901,393.680115 
	C582.970154,412.333069 570.360962,424.807251 551.573547,425.084900 
	C541.937805,425.227264 533.061218,423.434845 526.729553,415.911377 
	C524.128906,412.821167 522.864075,408.173157 522.115479,404.030670 
	C518.255432,382.669708 510.045624,363.743286 492.987671,349.493439 
	C489.477905,346.561493 485.872070,343.744659 482.999329,341.429810 
	C493.300720,332.484741 504.106689,324.064148 513.772644,314.492371 
	C530.014587,298.408600 536.794495,278.380829 533.816650,255.763489 
	C531.851257,240.835541 525.028198,227.846222 514.995789,216.315826 
	C498.466980,197.318985 477.329468,186.775604 453.347534,181.296738 
	C446.529602,179.739136 439.360535,179.105301 432.350769,179.093811 
	C344.873901,178.950485 257.396698,179.000000 169.919601,179.000000 
	C168.148224,179.000000 166.376862,179.000000 163.830429,179.000000 
	C183.601028,157.303452 206.008255,140.274231 231.026169,125.995590 
z"/>
<path fill="#FFFFFF" opacity="1.000000" stroke="none" 
	d="
M165.284073,528.781982 
	C159.409698,521.964172 153.795975,515.397278 147.472321,508.000000 
	C150.281601,508.000000 152.030380,508.000000 153.779160,508.000000 
	C221.425522,508.000000 289.072052,507.943726 356.717987,508.113129 
	C361.806732,508.125885 363.170380,506.740784 363.117249,501.686462 
	C362.858185,477.037872 363.000000,452.385071 363.000000,427.255554 
	C341.122986,427.255554 319.395538,427.255554 297.335663,427.255554 
	C297.335663,411.390686 297.335663,395.998840 297.335663,380.000000 
	C299.046783,380.000000 300.813324,380.000000 302.579834,380.000000 
	C322.240601,380.000000 341.904907,380.234344 361.561188,379.937592 
	C383.559082,379.605469 399.120880,394.185455 403.928406,413.916168 
	C408.264130,431.710724 411.592438,449.755798 416.133148,467.493774 
	C419.797577,481.808624 428.076141,493.455719 439.926331,502.430725 
	C444.593201,505.965302 449.776001,508.012665 455.719879,508.009460 
	C491.208130,507.990356 526.696350,508.000000 563.041992,508.000000 
	C560.463379,511.469849 558.405579,514.656921 555.930237,517.477722 
	C551.570557,522.445618 547.073486,527.309021 542.367249,531.945435 
	C541.157227,533.137512 538.790771,534.142212 537.229553,533.835938 
	C524.182983,531.277222 511.181854,528.475220 498.204132,525.580078 
	C487.044189,523.090454 475.667786,526.856262 472.820099,540.453064 
	C469.696869,555.365723 466.317596,570.225220 462.963135,585.088318 
	C462.471863,587.265076 462.211456,589.200439 459.283966,590.499023 
	C438.838501,599.567688 417.516113,605.268311 395.529724,609.137085 
	C375.975739,612.577942 356.256805,613.044739 336.705719,611.719116 
	C307.728333,609.754272 279.789978,602.605530 252.816849,591.315735 
	C245.382050,588.203735 245.427704,582.751953 244.130859,577.415955 
	C241.106689,564.972717 238.770065,552.364136 236.017349,539.852722 
	C232.937820,525.855957 223.008957,522.176880 210.851715,524.265381 
	C197.941605,526.483337 185.292267,530.192566 172.417419,532.670410 
	C170.433365,533.052246 167.850601,530.323242 165.284073,528.781982 
z"/>
<path fill="#FFFFFF" opacity="1.000000" stroke="none" 
	d="
M139.274139,307.302307 
	C147.413498,304.203644 153.066574,299.390076 154.714066,290.724762 
	C156.111389,283.375183 152.038177,277.528961 149.615036,271.244904 
	C148.049362,267.184601 146.080505,263.279755 144.229828,259.166321 
	C155.883804,259.166321 167.161758,259.166321 178.719177,259.166321 
	C178.719177,314.043213 178.719177,368.753845 178.719177,423.732239 
	C154.718704,423.732239 130.793274,423.732239 106.136154,423.732239 
	C104.151718,415.280945 101.274704,406.616516 100.214249,397.735168 
	C98.248993,381.276001 97.016235,364.707062 96.162140,348.148560 
	C95.820358,341.522430 97.158195,334.785858 98.043900,328.141205 
	C98.212204,326.878632 99.614281,325.301117 100.845619,324.733612 
	C113.505646,318.898590 126.247772,313.241730 139.274139,307.302307 
z"/>
<path fill="#FFFFFF" opacity="1.000000" stroke="none" 
	d="
M391.661133,262.023956 
	C399.529266,265.282013 407.295319,267.814911 412.116638,275.272766 
	C419.357178,286.472870 414.621124,296.755585 404.943787,302.518921 
	C397.336151,307.049683 388.692017,308.714142 380.136902,308.844086 
	C352.665436,309.261353 325.183716,308.999268 297.353149,308.999268 
	C297.353149,293.094177 297.353149,277.369537 297.353149,261.000000 
	C299.003357,261.000000 300.764557,261.000000 302.525757,261.000000 
	C329.015656,261.000000 355.505676,260.967285 381.995361,261.044189 
	C385.076965,261.053101 388.156830,261.668762 391.661133,262.023956 
z"/>
<path fill="#FFFFFF" opacity="1.000000" stroke="none" 
	d="
M178.150360,567.670288 
	C183.276001,553.383545 195.829254,548.102173 208.195511,554.665710 
	C214.274490,557.892212 220.002411,567.089966 218.889038,573.205566 
	C217.419174,581.279297 214.238983,588.302856 205.394821,591.257507 
	C190.889282,596.103455 177.992294,587.208557 178.001373,572.078674 
	C178.002167,570.746948 178.022217,569.415222 178.150360,567.670288 
z"/>
<path fill="#FFFFFF" opacity="1.000000" stroke="none" 
	d="
M500.844482,555.630432 
	C517.020264,547.185913 531.952148,560.539429 531.020386,575.183655 
	C530.431824,584.433289 521.458069,593.289734 511.640076,593.986145 
	C502.510254,594.633850 492.891205,586.529053 490.785248,578.740906 
	C488.258392,569.396240 493.173248,560.007263 500.844482,555.630432 
z"/>
<path fill="#FFFFFF" opacity="1.000000" stroke="none" 
	d="
M334.000244,85.804672 
	C333.641937,72.812256 343.919281,63.573734 355.547791,63.976749 
	C365.775513,64.331223 375.493652,74.434410 374.948853,84.772301 
	C374.404053,95.110428 367.922211,103.008385 356.462067,104.948303 
	C348.131195,106.358513 338.081635,99.696678 335.057037,90.959137 
	C334.533234,89.445831 334.344177,87.816628 334.000244,85.804672 
z"/>
<path fill="#FFFFFF" opacity="1.000000" stroke="none" 
	d="
M625.502930,270.024017 
	C627.298706,284.323242 624.095947,289.357758 613.941528,294.875519 
	C602.312622,301.194458 587.958496,292.011139 586.053223,280.725616 
	C584.041565,268.809570 589.628418,259.889984 600.965759,256.566406 
	C608.729065,254.290543 620.943420,257.245270 625.502930,270.024017 
z"/>
<path fill="#FFFFFF" opacity="1.000000" stroke="none" 
	d="
M111.090355,256.581848 
	C120.345818,261.159607 123.866974,268.573700 122.932938,278.106781 
	C122.180977,285.781433 117.341843,290.806732 110.687500,294.029236 
	C103.693710,297.416077 94.121872,296.060669 89.027763,290.364624 
	C82.534142,283.103699 80.191544,277.190613 84.034081,267.215149 
	C86.633087,260.467957 94.730324,254.937317 102.112343,255.063324 
	C105.013512,255.112869 107.902557,255.872559 111.090355,256.581848 
z"/>
<path fill="#D44516" opacity="1.000000" stroke="none" 
	d="
M153.952209,604.695801 
	C150.192673,601.513062 146.014496,601.627380 141.260071,602.944702 
	C132.094254,605.484131 122.803200,607.577637 113.544907,609.775208 
	C107.043015,611.318542 99.787086,603.791321 101.344398,597.245300 
	C103.585617,587.824402 105.568306,578.335022 108.097221,568.992859 
	C109.252625,564.724609 109.283226,561.082642 106.060394,557.395752 
	C110.517647,558.258240 113.584724,564.764954 112.266220,570.604614 
	C110.151512,579.970642 107.962868,589.320374 105.914528,598.700806 
	C104.798431,603.812012 107.633247,606.645020 112.911293,605.492371 
	C122.937401,603.302673 132.911865,600.876099 142.904678,598.534607 
	C147.717545,597.406921 152.675461,599.977905 153.952209,604.695801 
z"/>
<path fill="#D44516" opacity="1.000000" stroke="none" 
	d="
M105.951797,556.689209 
	C103.725143,556.738953 101.501839,556.038635 99.296906,556.092285 
	C89.021317,556.342590 78.751884,557.068726 68.478180,557.109924 
	C58.275646,557.150879 57.309090,547.450928 60.102177,540.804932 
	C63.981586,531.574097 67.740623,522.237488 72.481476,513.447876 
	C74.760933,509.221710 71.902451,507.281097 70.707458,504.107727 
	C73.696060,504.252777 78.561035,511.021301 77.380150,513.832886 
	C74.913887,519.704834 71.946861,525.367065 69.501221,531.246826 
	C67.128677,536.950684 64.936745,542.751770 63.092587,548.643860 
	C62.193951,551.514954 63.549683,553.206970 67.040100,553.053101 
	C77.774429,552.580078 88.520035,552.367126 99.260101,552.017395 
	C102.505928,551.911743 105.854553,551.521912 105.951797,556.689209 
z"/>
<path fill="#D44516" opacity="1.000000" stroke="none" 
	d="
M207.382980,640.124146 
	C202.325546,635.936707 197.697067,638.163513 192.772552,640.571411 
	C185.053253,644.345886 177.275360,648.089539 169.248566,651.121582 
	C160.846893,654.295105 152.844315,650.903687 153.851028,639.776672 
	C154.523422,632.344788 153.964432,624.803833 154.011658,617.312073 
	C154.035858,613.473206 154.181122,609.635193 154.090012,605.428528 
	C159.403824,605.979553 159.005463,610.254944 158.918900,614.158569 
	C158.695206,624.244263 158.346848,634.327637 157.983704,644.409607 
	C157.895508,646.858765 158.664551,647.994202 161.349167,648.045898 
	C168.926987,648.191833 175.424713,645.352051 181.896667,641.755737 
	C187.777191,638.488037 193.888367,635.272583 200.302917,633.499451 
	C203.040466,632.742798 207.221329,635.247864 207.382980,640.124146 
z"/>
<path fill="#FFFFFF" opacity="1.000000" stroke="none" 
	d="
M851.172119,244.999100 
	C849.795959,243.868195 848.139099,242.751694 848.118408,241.605698 
	C847.921021,230.656876 848.000488,219.703079 848.000488,208.320480 
	C855.960083,207.500763 863.729248,207.871628 871.099976,210.690018 
	C879.294739,213.823532 882.352600,220.408646 880.986145,230.337357 
	C880.042664,237.192978 874.230652,242.812622 866.346252,243.924088 
	C861.493591,244.608154 856.552185,244.662628 851.172119,244.999100 
z"/>
<path fill="#FFFFFF" opacity="1.000000" stroke="none" 
	d="
M1404.361328,461.226929 
	C1403.542969,471.578278 1397.153076,479.126984 1388.785522,480.024200 
	C1375.861206,481.410034 1369.839966,474.949921 1366.982300,464.432617 
	C1364.083862,453.765289 1364.199341,443.174255 1367.743286,432.675598 
	C1370.838135,423.507538 1377.860352,417.331116 1384.553833,418.175964 
	C1397.488403,419.808624 1401.444092,423.724579 1403.697266,435.282410 
	C1405.310181,443.556061 1404.406372,452.320374 1404.361328,461.226929 
z"/>
<path fill="#FFFFFF" opacity="1.000000" stroke="none" 
	d="
M1500.542480,463.997131 
	C1509.028687,453.515594 1520.622070,455.773743 1531.956665,454.763275 
	C1531.567749,462.255371 1533.592773,469.221649 1528.308228,475.510345 
	C1524.028198,480.603455 1513.408447,484.810272 1507.276245,482.743530 
	C1499.724243,480.198303 1497.572754,474.535156 1500.542480,463.997131 
z"/>
<path fill="#FFFFFF" opacity="1.000000" stroke="none" 
	d="
M994.210693,446.452759 
	C994.365051,456.441681 994.279053,466.108917 988.755737,474.417603 
	C984.555054,480.736908 977.788391,481.818939 970.816956,480.925507 
	C963.807861,480.027161 959.215027,475.480499 957.142761,469.083069 
	C952.979797,456.231079 952.846191,443.292480 956.811279,430.165131 
	C959.460938,421.392700 966.033081,416.975372 974.609192,417.172211 
	C984.124695,417.390656 988.532410,420.747375 991.788635,430.148804 
	C993.506714,435.109009 993.355835,440.716461 994.210693,446.452759 
z"/>
<path fill="#FFFFFF" opacity="1.000000" stroke="none" 
	d="
M1789.028076,457.581970 
	C1789.337891,449.882446 1789.043701,442.548767 1790.133423,435.426849 
	C1792.337646,421.020538 1803.729248,412.705688 1818.177490,419.252838 
	C1824.145142,421.957092 1826.801270,428.119843 1827.894653,434.371643 
	C1829.831177,445.444611 1829.759033,456.554352 1826.987671,467.548767 
	C1825.258179,474.410309 1818.243286,480.527771 1812.032959,481.046570 
	C1802.460327,481.846222 1794.436523,477.705902 1791.937866,468.762207 
	C1790.942261,465.198578 1790.010986,461.617035 1789.028076,457.581970 
z"/>
</svg>